<?xml version="1.0" encoding="UTF-8"?>
<svg width="12px" height="15px" viewBox="0 0 12 15" version="1.1" xmlns="http://www.w3.org/2000/svg" xmlns:xlink="http://www.w3.org/1999/xlink">
    <!-- Generator: Sketch 48.2 (47327) - http://www.bohemiancoding.com/sketch -->
    <title>Shape</title>
    <desc>Created with Sketch.</desc>
    <defs></defs>
    <g id="Runtime" stroke="none" stroke-width="1" fill="none" fill-rule="evenodd" transform="translate(-1248.000000, -6505.000000)">
        <g id="footer" transform="translate(0.000000, 6313.000000)" fill="#6A6A6A" fill-rule="nonzero">
            <g id="Group-55" transform="translate(528.000000, 130.000000)">
                <g id="Group-53">
                    <g id="Group-64" transform="translate(713.000000, 0.000000)">
                        <g id="Group-56" transform="translate(0.000000, 56.000000)">
                            <g id="Group-57">
                                <g id="github-big-logo" transform="translate(6.933333, 6.066667)">
                                    <path d="M11.6068851,5.90820409 C11.6591684,5.57737106 11.6917866,5.2146264 11.7,4.80787076 C11.6968501,3.06374073 10.8619368,2.44658612 10.7012893,2.15726178 C10.9378888,0.83575489 10.6621063,0.234644416 10.5338416,0.0288673357 C10.0607603,-0.139051472 8.8879193,0.462265073 8.24709591,0.885565308 C7.20228413,0.57972581 4.99428722,0.609576734 4.16626262,0.96472619 C2.63850763,-0.129218919 1.83047197,0.037581215 1.83047197,0.037581215 C1.83047197,0.037581215 1.3080808,0.974323233 1.69237465,2.34472794 C1.18970746,2.98528638 0.815040088,3.43817259 0.815040088,4.63945149 C0.815040088,4.9271567 0.832909429,5.19902385 0.863231373,5.46058742 C1.29612865,7.7367351 3.09969558,8.71869509 4.87132143,8.88802696 C4.60472383,9.09059521 4.2846654,9.47394702 4.24038948,9.91814879 C3.90540558,10.1347299 3.23158132,10.206325 2.70760045,10.0415856 C1.97342669,9.809608 1.69237465,8.35574435 0.592924484,8.56314057 C0.355029693,8.60765201 0.402308376,8.76456071 0.608320967,8.89833053 C0.943275419,9.11558874 1.2587414,9.38566012 1.50190573,9.96357283 C1.68866536,10.4072741 2.08146702,11.1994717 3.32337144,11.1994717 C3.81638271,11.1994717 4.16169961,11.1412124 4.16169961,11.1412124 C4.16169961,11.1412124 4.17109058,12.2718382 4.17109058,12.7128017 C4.17109058,13.2202674 3.48622678,13.3627511 3.48622678,13.6062099 C3.48622678,13.703034 3.71290539,13.7122189 3.89507257,13.7122189 C4.25507943,13.7122189 5.00411978,13.4123555 5.00411978,12.8849008 C5.00411978,12.4657809 5.01080238,11.0573119 5.01080238,10.8106443 C5.01080238,10.2717086 5.29962626,10.1001099 5.29962626,10.1001099 C5.29962626,10.1001099 5.33498224,12.9770737 5.2301213,13.3627806 C5.10715551,13.8163733 4.88439225,13.7519318 4.88439225,13.9537935 C4.88439225,14.2550406 5.78489513,14.0274494 6.08358101,13.3680501 C6.314646,12.8530186 6.21116868,10.0317236 6.21116868,10.0317236 L6.45206623,10.0264835 C6.45206623,10.0264835 6.45483348,11.3186105 6.44653174,11.9089169 C6.4378473,12.520331 6.37475999,13.2932756 6.7379168,13.658081 C6.97628261,13.8980071 7.70654101,14.3190111 7.70654101,13.9342756 C7.70654101,13.7113063 7.19515994,13.527049 7.19515994,12.9229652 L7.19515994,10.1401761 C7.5058274,10.1401761 7.57003338,11.0548979 7.57003338,11.0548979 L7.68201851,12.7543104 C7.68201851,12.7543104 7.60765615,13.3744383 8.35192741,13.6332347 C8.61466854,13.7252603 9.17674319,13.7502833 9.20309089,13.595818 C9.22949748,13.44097 8.52629331,13.2119951 8.51961071,12.7320253 C8.51598974,12.4396982 8.53271097,12.2686 8.53271097,10.9970801 C8.53271097,9.72626681 8.36199548,9.25615892 7.76709659,8.88152099 C9.4922386,8.70447616 11.2840889,7.93403381 11.6068851,5.90820409 Z" id="Shape"></path>
                                </g>
                            </g>
                        </g>
                    </g>
                </g>
            </g>
        </g>
    </g>
</svg>