<?xml version="1.0" encoding="UTF-8"?>
<svg width="92px" height="90px" viewBox="0 0 92 90" version="1.1" xmlns="http://www.w3.org/2000/svg" xmlns:xlink="http://www.w3.org/1999/xlink">
    <!-- Generator: Sketch 48.2 (47327) - http://www.bohemiancoding.com/sketch -->
    <title>line-chart (3)</title>
    <desc>Created with Sketch.</desc>
    <defs></defs>
    <g id="Enterprise" stroke="none" stroke-width="1" fill="none" fill-rule="evenodd" transform="translate(-280.000000, -1437.000000)">
        <g id="benefits" transform="translate(0.000000, 1077.000000)" fill="#7F86F5" fill-rule="nonzero">
            <g id="Group-77" transform="translate(240.000000, 130.000000)">
                <g id="Group-76" transform="translate(0.000000, 195.000000)">
                    <g id="Group-39">
                        <g id="Group-18">
                            <g id="Group-16">
                                <g id="Group-75">
                                    <g id="line-chart-(3)" transform="translate(40.000000, 35.000000)">
                                        <polygon id="Shape" points="50.9115415 36.9613636 49.8011265 38.0719565 42.8005138 31.071166 25.9986166 47.8730632 20.3979842 42.2724308 4.70667984 57.9635573 6.68596838 59.9430237 20.3979842 46.2310079 25.9986166 51.8314625 42.8005138 35.0297431 49.8011265 42.0305336 52.8910079 38.9404743"></polygon>
                                        <path d="M68.703083,4.3479249 C59.4387747,4.3479249 51.9017194,11.8849802 51.9017194,21.1491107 C51.9017194,30.4130632 59.4387747,37.9502964 68.703083,37.9502964 C77.9672134,37.9502964 85.5042688,30.413419 85.5042688,21.1491107 C85.5042688,11.8848024 77.9673913,4.3479249 68.703083,4.3479249 Z M68.703083,35.1510474 C60.9822925,35.1510474 54.7009684,28.8699012 54.7009684,21.1491107 C54.7009684,13.4283202 60.9822925,7.14717391 68.703083,7.14717391 C76.4238735,7.14717391 82.7050198,13.4283202 82.7050198,21.1491107 C82.7050198,28.8699012 76.4238735,35.1510474 68.703083,35.1510474 Z" id="Shape"></path>
                                        <path d="M89.7047431,21.1492885 C89.7047431,9.56881423 80.2833794,0.147628458 68.703083,0.147628458 C57.1226087,0.147628458 47.7012451,9.56881423 47.7012451,21.1492885 C47.7012451,32.2176877 56.3081621,41.3128458 67.1805534,42.0954545 L67.1805534,47.6777668 L63.0752372,47.6777668 L63.0752372,50.4770158 L74.2720553,50.4770158 L74.2720553,47.6777668 L69.9799802,47.6777668 L69.9799802,42.1111067 C80.9678063,41.448913 89.7047431,32.3009289 89.7047431,21.1492885 Z M68.7032609,39.3516996 C58.6663043,39.3516996 50.5006719,31.1862451 50.5006719,21.1491107 C50.5006719,11.112332 58.6663043,2.9466996 68.7032609,2.9466996 C78.7400395,2.9466996 86.9056719,11.112332 86.9056719,21.1491107 C86.9056719,31.1860672 78.7400395,39.3516996 68.7032609,39.3516996 Z" id="Shape"></path>
                                        <path d="M70.1665613,51.9698419 L70.1665613,77.1625494 L67.3673123,77.1625494 L67.3673123,51.9698419 L64.5680632,51.9698419 L64.5680632,89.8523715 L72.9656324,89.8523715 L72.9656324,51.9698419 L70.1665613,51.9698419 Z M70.1665613,87.0531225 L67.3673123,87.0531225 L67.3673123,79.9617984 L70.1665613,79.9617984 L70.1665613,87.0531225 Z" id="Shape"></path>
                                        <polygon id="Shape" points="64.5680632 16.8865613 64.5680632 19.6858103 68.1870949 19.6858103 59.3124901 28.5602372 61.2919565 30.5398814 70.1665613 21.6652767 70.1665613 25.2843083 72.9656324 25.2843083 72.9656324 16.8865613"></polygon>
                                        <polygon id="Shape" points="2.79924901 87.0531225 2.79924901 22.4850593 0 22.4850593 0 89.8523715 63.0752372 89.8523715 63.0752372 87.0531225"></polygon>
                                        <rect id="Rectangle-path" x="74.2720553" y="87.0531225" width="16.7951383" height="2.79924901"></rect>
                                        <rect id="Rectangle-path" x="4.2920751" y="22.4850593" width="7.09132411" height="2.79924901"></rect>
                                        <rect id="Rectangle-path" x="4.2920751" y="28.0833794" width="2.79924901" height="2.79924901"></rect>
                                        <rect id="Rectangle-path" x="4.2920751" y="33.6818775" width="7.09132411" height="2.79924901"></rect>
                                        <rect id="Rectangle-path" x="4.2920751" y="39.2801976" width="2.79924901" height="2.79924901"></rect>
                                        <rect id="Rectangle-path" x="4.2920751" y="44.8786957" width="7.09132411" height="2.79924901"></rect>
                                        <rect id="Rectangle-path" x="4.2920751" y="50.6635968" width="2.79924901" height="2.79924901"></rect>
                                        <rect id="Rectangle-path" x="4.2920751" y="61.860415" width="2.79924901" height="2.79924901"></rect>
                                        <rect id="Rectangle-path" x="4.2920751" y="67.4587352" width="7.09132411" height="2.79924901"></rect>
                                        <rect id="Rectangle-path" x="4.2920751" y="73.0572332" width="2.79924901" height="2.79924901"></rect>
                                        <rect id="Rectangle-path" x="4.2920751" y="78.6555534" width="7.09132411" height="2.79924901"></rect>
                                        <rect id="Rectangle-path" x="15.4888933" y="78.4689723" width="2.79924901" height="7.09132411"></rect>
                                        <rect id="Rectangle-path" x="22.5802174" y="82.7610474" width="2.79924901" height="2.79924901"></rect>
                                        <rect id="Rectangle-path" x="29.4849605" y="78.4689723" width="2.79924901" height="7.09132411"></rect>
                                        <rect id="Rectangle-path" x="36.3895257" y="82.7610474" width="2.79924901" height="2.79924901"></rect>
                                        <rect id="Rectangle-path" x="43.4808498" y="78.4689723" width="2.79924901" height="7.09132411"></rect>
                                        <rect id="Rectangle-path" x="50.3855929" y="82.7610474" width="2.79924901" height="2.79924901"></rect>
                                        <rect id="Rectangle-path" x="57.663498" y="78.4689723" width="2.79924901" height="7.09132411"></rect>
                                        <rect id="Rectangle-path" x="74.2720553" y="78.4689723" width="2.79924901" height="7.09132411"></rect>
                                        <rect id="Rectangle-path" x="81.3633794" y="82.7610474" width="2.79924901" height="2.79924901"></rect>
                                        <rect id="Rectangle-path" x="88.2679447" y="78.4689723" width="2.79924901" height="7.09132411"></rect>
                                        <rect id="Rectangle-path" x="8.39756917" y="82.7610474" width="2.79924901" height="2.79924901"></rect>
                                    </g>
                                </g>
                            </g>
                        </g>
                    </g>
                </g>
            </g>
        </g>
    </g>
</svg>