<?xml version="1.0" encoding="UTF-8"?>
<svg width="420px" height="283px" viewBox="0 0 420 283" version="1.1" xmlns="http://www.w3.org/2000/svg" xmlns:xlink="http://www.w3.org/1999/xlink">
    <!-- Generator: Sketch 48.2 (47327) - http://www.bohemiancoding.com/sketch -->
    <title>support</title>
    <desc>Created with Sketch.</desc>
    <defs>
        <linearGradient x1="0.00388991071%" y1="49.997619%" x2="100.032232%" y2="49.997619%" id="linearGradient-1">
            <stop stop-color="#000000" stop-opacity="0.1" offset="0%"></stop>
            <stop stop-color="#000000" stop-opacity="0.2" offset="100%"></stop>
        </linearGradient>
    </defs>
    <g id="Enterprise" stroke="none" stroke-width="1" fill="none" fill-rule="evenodd" transform="translate(-354.000000, -5800.000000)">
        <g id="support" transform="translate(0.000000, 5500.000000)">
            <g id="Group-72" transform="translate(351.000000, 251.000000)">
                <g id="support" transform="translate(0.000000, 49.000000)">
                    <path d="M69.8557994,150 C51.1355338,150 36,164.991972 36,183.534674 C36,202.077376 51.1355338,217.069348 69.8557994,217.069348 L71.847317,217.069348 L71.847317,230.877743 C91.3641896,221.803655 103.711599,201.288325 103.711599,183.534674 C103.711599,164.991972 88.5760649,150 69.8557994,150 Z" id="Shape" fill="#7F86F5" fill-rule="nonzero" transform="translate(69.855799, 190.438871) rotate(16.000000) translate(-69.855799, -190.438871) "></path>
                    <polygon id="Path" fill="#FFFFFF" transform="translate(64.101376, 181.606384) rotate(16.000000) translate(-64.101376, -181.606384) " points="70.0759286 183.579012 66.0928934 191.469524 60.1183405 191.469524 64.1013758 183.579012 58.1268229 183.579012 58.1268229 171.743245 70.0759286 171.743245"></polygon>
                    <polygon id="Path" fill="#FFFFFF" transform="translate(79.416333, 185.997877) rotate(16.000000) translate(-79.416333, -185.997877) " points="85.3908853 187.970505 81.4078501 195.861017 75.4332973 195.861017 79.4163325 187.970505 73.4417797 187.970505 73.4417797 176.134738 85.3908853 176.134738"></polygon>
                    <path d="M418.268085,243.197815 C418.470542,244.187514 418.578693,245.20987 418.578693,246.256343 C418.578693,254.726526 411.61921,261.596369 403.034658,261.596369 C399.803122,261.596369 396.799567,260.621824 394.314702,258.955107 C392.128765,260.886057 389.254991,262.068062 386.092455,262.068062 C385.510605,262.068062 384.94195,262.016197 384.379784,261.938506 C383.602182,265.541295 380.361561,268.245948 376.477229,268.245948 C373.372445,268.245948 370.680147,266.517122 369.326752,263.98215 C368.13926,267.490387 364.788975,270.021944 360.838238,270.021944 C356.934655,270.021944 353.625251,267.554417 352.397959,264.114907 C352.293486,264.118322 352.192906,264.132408 352.08973,264.132408 C347.819085,264.132408 344.048959,262.068062 341.708583,258.909859 C339.109727,260.720217 335.940053,261.790596 332.513197,261.790596 C323.702611,261.790596 316.56295,254.742747 316.56295,246.048671 C316.56295,245.563105 316.585229,245.080955 316.630652,244.607769 C315.019643,243.153207 314,241.069864 314,238.744273 C314,234.357749 317.606386,230.801276 322.050937,230.801276 C323.429639,230.801276 324.723552,231.143199 325.858699,231.7453 C327.88479,230.825181 330.135401,230.307173 332.513197,230.307173 C333.328436,230.307173 334.133075,230.368429 334.913273,230.484111 C334.910677,230.39212 334.902025,230.303331 334.902025,230.208993 C334.902025,226.226716 338.172279,223 342.209536,223 C346.22127,223 349.475085,226.190645 349.514019,230.142828 C351.195975,229.159531 353.15285,228.584323 355.251618,228.584323 C358.423238,228.584323 361.287928,229.878168 363.339542,231.959163 C365.794991,228.449432 369.894975,226.148172 374.542201,226.148172 C379.631978,226.148172 384.063335,228.912159 386.391815,233.0003 C387.372956,232.393717 388.531464,232.038987 389.771734,232.038987 C391.445687,232.038987 392.962605,232.676732 394.102511,233.715095 C396.629555,231.958949 399.706436,230.918879 403.034658,230.918879 C406.328705,230.918879 409.382226,231.933337 411.89521,233.658962 C412.978013,232.534798 414.504232,231.829821 416.201762,231.829821 C419.486508,231.829821 422.15047,234.459558 422.15047,237.70036 C422.15047,240.225301 420.532323,242.368192 418.268085,243.197815 Z" id="Shape" fill="#7F86F5" fill-rule="nonzero" transform="translate(368.075235, 246.510972) rotate(17.000000) translate(-368.075235, -246.510972) "></path>
                    <polygon id="Path" fill="#FFFFFF" transform="translate(414.347657, 251.980002) rotate(17.000000) translate(-414.347657, -251.980002) " points="413.953773 250.868965 413.953773 253.740097 414.743055 253.740097 414.743055 250.868965 415.812014 250.868965 415.812014 250.219908 412.883299 250.219908 412.883299 250.868965"></polygon>
                    <polygon id="Path" fill="#FFFFFF" transform="translate(417.978695, 253.090122) rotate(17.000000) translate(-417.978695, -253.090122) " points="416.054265 251.330027 416.054265 254.850217 416.787742 254.850217 416.787742 252.382264 416.798341 252.382264 417.674359 254.850003 418.280435 254.850003 419.155805 252.355371 419.165106 252.355371 419.165106 254.850003 419.903124 254.850003 419.903124 251.330027 418.796096 251.330027 418.004867 253.752519 417.996215 253.752519 417.15978 251.330027"></polygon>
                    <path d="M414.041967,245.146673 C414.041967,240.548422 410.314237,235.99051 403.791249,235.99051 C398.226043,235.99051 394.535948,238.993972 393.430867,243.729462 C392.460325,238.487917 388.848532,235.99051 384.801325,235.99051 C382.045434,235.99051 379.754807,237.140926 378.821685,239.515608 L378.74598,239.515608 L378.74598,238.635187 C378.74598,236.91191 377.852873,235.99051 376.181083,235.99051 C374.957036,235.99051 374.199334,236.454305 373.851306,237.318291 C373.443362,236.643835 372.669221,235.99051 371.327723,235.99051 C369.773168,235.99051 368.999459,237.063022 368.610118,238.480447 L365.154061,251.163416 L365.076193,251.163416 L361.426764,238.098824 C361.078735,236.832939 360.029243,235.99051 358.514055,235.99051 C357.452883,235.99051 356.534901,236.562943 356.074613,237.429704 C355.598102,236.573615 354.621503,235.99051 353.695086,235.99051 C352.842861,235.99051 352.104409,236.45025 351.523858,237.063022 L345.232745,243.959546 L345.232745,231.240933 C345.232745,229.40112 344.106898,228.444076 342.399202,228.444076 C340.690641,228.444076 339.565444,229.40112 339.565444,231.240933 L339.565444,248.715099 C338.641839,246.053347 335.49055,244.994921 332.770566,244.3798 L330.404017,243.845571 C328.655224,243.460961 327.374723,243.155962 327.374723,241.852085 C327.374723,240.663677 328.655224,240.128808 330.635459,240.128808 C334.207021,240.128808 334.285754,242.696008 336.497215,242.696008 C337.974118,242.696008 338.868306,241.545165 338.868306,240.244703 C338.868306,237.67793 334.518061,235.990296 330.209347,235.990296 C326.287378,235.990296 321.706124,237.677716 321.706124,242.235628 C321.706124,245.991023 324.268858,247.332038 327.568745,248.137116 L330.908431,248.939419 C332.927384,249.437578 334.168519,249.667661 334.168519,251.084231 C334.168519,252.233794 332.888017,253.117417 330.866253,253.117417 C326.677152,253.117417 326.443331,249.667661 323.996535,249.667661 C322.404127,249.667661 321.705908,250.779659 321.705908,252.005418 C321.705908,254.76343 325.976337,257.024137 331.101804,257.024137 C334.756425,257.024137 338.546666,255.473529 339.565444,252.16891 L339.565444,254.226854 C339.565444,256.065813 340.690425,257.024137 342.399202,257.024137 C344.106898,257.024137 345.232745,256.065813 345.232745,254.226854 L345.232745,249.973514 L347.21471,248.250023 L352.57097,255.719834 C352.998381,256.334741 353.736616,257.024137 355.133271,257.024137 C356.646945,257.024137 357.811942,255.719834 357.811942,254.303263 C357.811942,253.383144 357.425412,252.770157 357.230309,252.50315 L351.329403,244.686507 L355.523046,240.359958 C355.695005,240.174056 355.846632,240.018675 355.975115,239.852836 C356.088889,240.229336 356.249817,240.679685 356.458331,241.27773 L362.359886,257.865713 C361.930745,259.591978 361.115074,259.629756 360.377055,259.629756 L359.796071,259.629756 C358.281532,259.629756 357.195701,260.394922 357.195701,261.889823 C357.195701,263.22977 358.243246,264.457024 360.765099,264.457024 C364.340121,264.457024 365.892513,262.463964 367.25218,258.633653 L373.621162,240.81607 L373.621162,261.661874 C373.621162,263.498699 374.747224,264.457237 376.454704,264.457237 C378.163265,264.457237 379.2863,263.498912 379.2863,261.661874 L379.2863,254.188008 L379.367845,254.188008 C380.416039,255.988122 382.35561,257.024137 384.957494,257.024137 C389.814315,257.024137 392.54598,253.711194 393.400369,249.58997 C394.359231,253.520596 397.538206,257.024137 403.985488,257.024137 C407.401528,257.024137 412.878052,255.452186 412.878052,252.082042 C412.878052,251.046453 411.907726,249.897104 410.547626,249.897104 C408.256566,249.897104 408.256566,252.656396 403.985488,252.656396 C400.686249,252.656396 398.743867,250.51009 398.743867,247.559987 L411.557751,247.559987 C413.460334,247.559987 414.041967,247.063109 414.041967,245.146673 Z" id="Path" fill="#FFFFFF" transform="translate(367.873937, 246.450656) rotate(17.000000) translate(-367.873937, -246.450656) "></path>
                    <path d="M387.324178,251.016602 C387.324178,247.722227 385.850736,244.961867 382.820792,244.926651 C379.520905,244.886738 378.279122,247.837695 378.279122,251.016602 C378.279122,253.889442 379.366683,257.222661 382.820792,257.222661 C386.430422,257.185097 387.324178,253.621367 387.324178,251.016602 Z" id="Path" fill="#7F86F5" transform="translate(382.801650, 251.074456) rotate(17.000000) translate(-382.801650, -251.074456) "></path>
                    <path d="M408.384026,255.011053 C408.071687,252.445347 406.132333,250.566475 403.606803,250.566475 C400.771963,250.566475 399.065133,252.290392 398.443267,255.011053 L408.384026,255.011053 Z" id="Path" fill="#7F86F5" transform="translate(403.413647, 252.788764) rotate(17.000000) translate(-403.413647, -252.788764) "></path>
                    <path d="M38.8629774,100.752062 C38.8629774,97.5020375 41.2096177,95.2326352 45.4741436,95.2326352 C48.0762124,95.2326352 50.2054345,96.0715705 51.3589894,96.8933982 C51.5240622,97.0107395 51.8185869,97.2954291 51.6420024,97.8248906 C51.4156789,98.3951473 51.0006076,99.2527256 50.702825,99.8098226 C50.5294985,100.13443 50.0868427,100.091661 49.8600848,99.9756357 C49.0384131,99.555181 47.6906805,98.8438954 46.4526344,98.7127364 C46.1391331,98.67827 45.8237388,98.6644961 45.5084613,98.6715024 C44.418112,98.6960674 43.5071707,99.0783587 43.1863647,99.9183907 C43.1234981,100.077333 43.0884424,100.246091 43.0827598,100.417146 C43.052786,101.524102 44.5784064,101.924378 46.4265703,102.245038 C49.862474,102.839421 52.4619364,103.856671 52.4619364,107.427794 C52.4619364,110.460463 50.0751139,113.201205 45.3985576,113.117202 C42.3156056,113.054254 40.1283908,112.00235 38.9563738,110.98159 C38.9164088,110.946936 38.4702778,110.488099 38.7094162,109.936266 C38.9830896,109.225857 39.4450762,108.411706 39.8075848,107.979408 C40.0091474,107.701737 40.5410728,107.657652 40.8175698,107.830702 C41.7836802,108.436929 43.373592,109.408998 45.2063346,109.47348 C45.3509906,109.478525 45.4943433,109.479402 45.6350896,109.475674 C47.2836457,109.435317 48.281033,108.804087 48.2601817,107.740777 C48.2423712,106.804021 46.9352552,106.256794 44.8538173,105.860685 C41.5341161,105.229235 38.8634118,104.124253 38.8634118,100.752062 L38.8629774,100.752062 Z M69.0219977,105.379695 C66.6810046,105.410621 64.5346236,106.056765 64.4727213,107.904178 C64.4720697,109.370176 65.6497339,110.090235 67.302634,109.995923 C68.8882018,109.841735 70.0973602,109.147337 70.6301544,108.225934 C70.8271558,107.884438 70.8571295,106.606625 70.8451835,106.060494 C70.8421427,105.944249 70.614516,105.724262 70.5148207,105.681931 C70.0174302,105.470278 69.6492744,105.404918 69.0217805,105.379257 L69.0219977,105.379695 Z M61.2325157,97.935652 C62.3272091,96.9464759 64.4976994,95.4067828 67.9568436,95.4879347 C72.5217586,95.5837817 74.933342,97.7448353 75.157928,102.914432 C75.2504556,105.046314 75.0971117,110.992776 75.0606219,112.474347 C75.0551918,112.686877 74.9839499,112.833828 74.7002853,112.839311 C73.9485524,112.869798 72.2118126,112.857735 71.4138159,112.847207 C71.0111251,112.827467 70.9644269,112.625684 70.9592141,112.41447 C70.9557388,112.276292 70.94401,111.866585 70.9355391,111.532546 C70.9309779,111.355328 70.7661223,111.360372 70.7239853,111.405773 C69.653184,112.560324 67.8995026,113.117859 66.0346142,113.117859 C63.2001402,113.117859 60.3743542,111.434067 60.3830423,108.0996 C60.3917303,104.68464 62.7896302,103.00019 65.4238448,102.602984 C67.1106283,102.349439 69.0120064,102.57491 70.4518323,103.152624 C70.5439256,103.18991 70.7320217,103.135954 70.7335421,103.004137 C70.7394066,102.568988 70.7185553,101.739703 70.6358017,101.346664 C70.424465,100.345206 69.5971461,99.5393893 67.8591032,99.3222531 C67.5011558,99.2777292 67.1408192,99.2630341 66.7800482,99.2919856 C65.3984322,99.4016504 63.735758,100.489525 63.0472306,100.89682 C62.8851986,100.992447 62.6315078,100.922481 62.5494058,100.815668 C62.1475838,100.29147 61.1375988,98.7583569 61.0581032,98.5133659 C60.9786076,98.2690328 61.0906834,98.0633017 61.2320813,97.9347746 L61.2325157,97.935652 Z M76.6631314,104.292698 C76.6359812,99.5299581 79.9222335,95.512061 85.2584294,95.4767489 C88.5881218,95.454816 91.0070901,96.979156 91.433673,97.6981181 C91.5203362,97.8670018 91.47581,98.0080307 91.4158625,98.1780111 C91.1339355,98.7789739 90.4219504,99.9401043 89.9145687,100.598093 C89.6984537,100.878396 89.4638765,100.63823 89.1912892,100.45509 C88.4347778,99.9462455 86.9973411,99.3240077 85.5827106,99.3240077 C83.0162627,99.3244464 81.1051105,101.101454 81.1263962,104.37078 C81.1463787,107.508069 82.9769493,109.232218 85.5916158,109.294727 C86.9584622,109.329381 88.2827371,108.536066 88.9951566,107.886193 C89.2188737,107.689016 89.45041,107.787714 89.7060557,107.989497 C90.2077902,108.507334 90.9273773,109.30679 91.3263757,109.857088 C91.5876686,110.162833 91.3921876,110.461999 91.2981396,110.582191 C90.2156094,111.965502 88.1248319,113.129703 85.3579075,113.145495 C79.5642861,113.18651 76.6902815,109.072985 76.6635658,104.293356 L76.6631314,104.292698 Z M104.318692,112.930771 C104.590628,112.910154 107.492651,112.505711 108.383393,112.29976 C108.604504,112.248876 108.68313,112.06113 108.559543,111.875139 C108.062153,111.121961 106.754385,108.98306 105.384715,107.068313 C104.124949,105.307755 102.797199,103.759289 102.367792,103.16359 C102.263101,103.018833 102.268748,102.876268 102.382779,102.763972 C103.199672,101.956839 106.616679,98.5736815 107.901424,97.1765526 C108.398814,96.633054 108.100163,96.3992488 107.677707,96.272257 C106.861682,96.026608 105.541751,95.720424 104.791104,95.5605328 C104.474643,95.4929793 104.093455,95.5166669 103.81674,95.8039885 C102.532213,97.0135907 98.6119512,100.986745 97.4416719,102.174414 C97.2309868,102.388699 97.1082682,102.341104 97.1071822,102.03492 C97.0976254,99.7451204 97.0528819,89.9415302 96.9718659,88.3290197 C96.9662187,88.1158315 96.7123107,87.9539663 96.5691751,87.9462898 C95.8332979,87.9074684 93.974274,87.8962826 93.2416547,87.9397099 C93.0363997,87.9631781 92.8402672,88.1743924 92.8224567,88.3529267 C92.6534742,90.9313643 92.894133,109.859062 92.9944799,112.506807 C93.0016476,112.698282 93.1428283,112.846768 93.3228879,112.857515 C94.0537695,112.900285 95.8615341,112.897433 96.7055774,112.881422 C97.1208659,112.881422 97.1716909,112.586643 97.1716909,112.586643 L97.2342448,107.50763 C97.2342448,107.50763 97.2770334,107.281721 97.3463206,107.207149 C97.643886,106.883638 98.4670781,105.992721 98.818075,105.648374 C98.9023491,105.565687 99.0352761,105.571609 99.1212877,105.688511 C99.5383138,106.256575 100.72749,108.103329 101.829785,109.752687 C102.842594,111.267815 103.78807,112.612524 103.854099,112.707494 C104.006574,112.926823 104.184679,112.935597 104.318909,112.931429 L104.318909,112.930771 L104.318692,112.930771 Z M54.9634412,112.913225 C55.2186524,112.921779 57.155,112.919586 58.0129442,112.918489 C58.3018216,112.924192 58.4519076,112.703327 58.4614644,112.508343 C58.6436961,108.795972 58.5657209,91.1210843 58.4506044,88.3301164 C58.4410475,88.0888539 58.3387458,87.9982708 58.1756278,87.9763379 C57.4393162,87.8767623 55.3468011,87.9000112 54.6760841,88.0772295 C54.5448947,88.1116642 54.4675711,88.2123364 54.4634443,88.3417408 C54.2992403,95.5357485 54.4100128,112.121446 54.444765,112.435525 C54.4793,112.750044 54.6422008,112.902259 54.9638756,112.913225 L54.9634412,112.913225 Z" id="Shape" fill="#FFFFFF" fill-rule="nonzero" transform="translate(73.628668, 100.528800) rotate(-16.000000) translate(-73.628668, -100.528800) "></path>
                    <path d="M11.6002476,132.066648 C10.4017423,132.075432 9.39090259,131.366552 9.02379675,130.260408 C9.00986167,130.21833 8.99687109,130.175935 8.98483505,130.133258 C8.57443844,128.679043 9.3584345,127.159825 10.7699304,126.677795 L33.3339518,118.938305 C33.6255152,118.839484 33.9266026,118.788975 34.2294216,118.78612 C35.4311738,118.776897 36.4870359,119.521792 36.8595531,120.640453 L36.8941857,120.756843 C37.1121548,121.530067 36.9833647,122.399039 36.550024,123.084861 C36.2270748,123.59478 35.2084427,124.04365 35.2084427,124.04365 L12.5587056,131.900847 C12.2497976,132.006945 11.9263526,132.063045 11.6002476,132.067087 L11.6002476,132.066648 Z" id="Shape" fill="#5F64B1" fill-rule="nonzero" transform="translate(22.937152, 125.426561) rotate(-16.000000) translate(-22.937152, -125.426561) "></path>
                    <path d="M4.71258177,122.297029 C3.5201256,122.306328 2.50998891,121.581466 2.13753627,120.450115 C2.12371921,120.407388 2.11083788,120.364352 2.09890191,120.321039 C1.69302403,118.872201 2.48003642,117.3565 3.89062482,116.871193 L26.5156031,109.139259 C26.7842443,109.059984 27.0622541,109.018567 27.341901,109.016161 C28.5660461,109.00642 29.6039648,109.747222 29.9855334,110.902485 L30.0193927,111.01407 C30.4426343,112.523129 29.3910417,113.870123 28.1310839,114.301852 C28.1302157,114.302516 27.9010141,114.381556 5.63155873,122.1374 C5.33555597,122.24033 5.02529897,122.294222 4.71258177,122.297029 Z" id="Shape" fill="#5F64B1" fill-rule="nonzero" transform="translate(16.053482, 115.656592) rotate(-16.000000) translate(-16.053482, -115.656592) "></path>
                    <path d="M28.0858296,131.371307 C26.8851442,131.383092 25.8135297,130.603485 25.4312583,129.440088 L17.8953514,106.561249 L17.8576611,106.43284 C17.4493488,104.973855 18.2345647,103.451994 19.6418883,102.967141 C19.9234829,102.870392 20.2146085,102.819914 20.5076836,102.817257 C20.9430723,102.813937 21.3643813,102.914228 21.7612131,103.114589 C22.4214328,103.448297 22.9242043,104.03731 23.1581394,104.751133 L30.6933964,127.62798 L30.7152741,127.701482 C31.1385326,129.216259 30.3550495,130.739006 28.947726,131.223859 C28.6697408,131.31878 28.3789054,131.368534 28.0858296,131.371307 Z" id="Shape" fill="#7F86F5" fill-rule="nonzero" transform="translate(24.289912, 117.094308) rotate(-16.000000) translate(-24.289912, -117.094308) "></path>
                    <path d="M18.4898162,138.265846 C17.2891866,138.277544 16.2177335,137.497202 15.8358161,136.332932 L8.30655178,113.45325 C8.07093298,112.740362 8.12226221,111.960891 8.44921816,111.286757 C8.7761741,110.612624 9.35189659,110.09921 10.049403,109.859756 C10.3276269,109.764629 10.6187167,109.714722 10.9120612,109.711854 C12.1122005,109.699736 13.1834444,110.47949 13.565412,111.643218 L21.0948928,134.523786 C21.3306244,135.237018 21.2791266,136.016883 20.951768,136.691218 C20.6244093,137.365552 20.0481099,137.878903 19.3500933,138.117944 C19.07241,138.213121 18.7817997,138.262959 18.4889503,138.265625 L18.4898162,138.265625 L18.4898162,138.265846 Z" id="Shape" fill="#7F86F5" fill-rule="nonzero" transform="translate(14.700722, 123.988845) rotate(-16.000000) translate(-14.700722, -123.988845) "></path>
                    <path d="M256.407793,282.178683 L159.121412,282.178683 C151.061924,282.178683 144.528262,275.645021 144.528262,267.585533 L144.528262,73.0122208 C144.528262,64.9527332 151.061924,58.4190708 159.121412,58.4190708 L256.407793,58.4190708 C264.467281,58.4190708 271.000943,64.9527332 271.000943,73.0122208 L271.000943,267.585533 C271.000943,275.645021 264.467832,282.178683 256.407793,282.178683 Z" id="Shape" fill="#FFFFFF" fill-rule="nonzero"></path>
                    <path d="M256.407793,252.992383 L159.121412,252.992383 C156.4351,252.992383 154.256845,250.814129 154.256845,248.127816 L154.256845,92.4693868 C154.256845,89.7830745 156.4351,87.6048197 159.121412,87.6048197 L256.407793,87.6048197 C259.094105,87.6048197 261.27236,89.7830745 261.27236,92.4693868 L261.27236,248.128367 C261.27236,250.81468 259.094105,252.992383 256.407793,252.992383 Z" id="Shape" fill="#5F64B1" fill-rule="nonzero"></path>
                    <path d="M261.27236,138.266188 C250.3618,120.082472 230.513947,107.873665 207.764878,107.873665 C185.015809,107.873665 165.167957,120.082472 154.257396,138.266188 L154.257396,202.332668 C165.167957,220.516384 185.015809,232.725191 207.764878,232.725191 C230.513947,232.725191 250.3618,220.516384 261.27236,202.332668 L261.27236,138.266188 Z" id="Shape" fill="#7F86F5" fill-rule="nonzero"></path>
                    <path d="M217.493461,77.8762368 L198.036295,77.8762368 C195.349983,77.8762368 193.171728,75.697982 193.171728,73.0116698 C193.171728,70.3253576 195.349983,68.1471028 198.036295,68.1471028 L217.493461,68.1471028 C220.179773,68.1471028 222.358028,70.3253576 222.358028,73.0116698 C222.357477,75.698533 220.179773,77.8762368 217.493461,77.8762368 Z" id="Shape" fill="#C7CFE2" fill-rule="nonzero"></path>
                    <path d="M212.628894,277.314116 L202.900311,277.314116 C197.527136,277.314116 193.171728,272.958709 193.171728,267.585533 C193.171728,262.212358 197.527136,257.85695 202.900311,257.85695 L212.628894,257.85695 C218.002069,257.85695 222.357477,262.212358 222.357477,267.585533 C222.357477,272.958158 218.002069,277.314116 212.628894,277.314116 Z" id="Shape" fill="#E4EAF6" fill-rule="nonzero"></path>
                    <path d="M178.578578,77.8762368 C175.892266,77.8762368 173.714011,75.697982 173.714011,73.0116698 C173.714011,70.3253576 175.892266,68.1471028 178.578578,68.1471028 C181.26489,68.1471028 183.443145,70.3253576 183.443145,73.0116698 C183.443145,75.698533 181.26489,77.8762368 178.578578,77.8762368 Z" id="Shape" fill="#959CB3" fill-rule="nonzero"></path>
                    <polygon id="Shape" fill="#D29B6E" fill-rule="nonzero" points="219.667859 185.324317 219.667859 174.836954 195.861346 174.836954 195.861346 185.324317 207.764327 197.310504"></polygon>
                    <path d="M237.776082,187.214378 L221.570594,183.579729 C221.325933,183.525176 221.100558,183.432051 220.890062,183.319088 L207.764327,190.617592 L195.150507,182.966423 C194.823741,183.259576 194.418177,183.477236 193.95806,183.58028 L177.752572,187.214929 C175.385862,187.745579 173.714011,189.758523 173.714011,192.075639 L173.714011,201.852163 C173.714011,203.231412 174.887172,204.348918 176.333648,204.348918 L239.196108,204.348918 C240.642584,204.348918 241.815745,203.231412 241.815745,201.852163 L241.815745,192.075639 C241.815194,189.757972 240.142792,187.745579 237.776082,187.214378 Z" id="Shape" fill="#EFF2FA" fill-rule="nonzero"></path>
                    <path d="M232.200676,196.247551 L240.687218,188.981008 C241.398609,189.839525 241.815194,190.919561 241.815194,192.075088 L241.815194,201.851611 C241.815194,203.230861 240.642033,204.348366 239.195557,204.348366 L230.027932,204.348366 L230.027932,200.890049 C230.027932,199.119563 230.818121,197.431732 232.200676,196.247551 Z" id="Shape" fill="#E4EAF6" fill-rule="nonzero"></path>
                    <path d="M183.328529,196.247551 L174.841987,188.981008 C174.130596,189.839525 173.714011,190.919561 173.714011,192.075088 L173.714011,201.851611 C173.714011,203.230861 174.887172,204.348366 176.333648,204.348366 L185.501274,204.348366 L185.501274,200.890049 C185.501274,199.119563 184.711084,197.431732 183.328529,196.247551 Z" id="Shape" fill="#E4EAF6" fill-rule="nonzero"></path>
                    <polygon id="Shape" fill="#5B5D6E" fill-rule="nonzero" points="211.039148 204.349469 204.490057 204.349469 205.3089 190.575162 210.219754 190.575162"></polygon>
                    <path d="M195.79412,180.347889 L207.764878,190.617041 C207.764878,190.617041 204.412911,192.22993 200.275715,195.481608 C199.422157,196.152221 198.131074,195.880559 197.673712,194.921202 L192.049814,183.127878 L193.829117,180.583733 C194.27105,179.95059 195.200651,179.83928 195.79412,180.347889 Z" id="Shape" fill="#E4EAF6" fill-rule="nonzero"></path>
                    <path d="M219.735085,180.347889 L207.764327,190.617041 C207.764327,190.617041 211.116294,192.22993 215.25349,195.481608 C216.107048,196.152221 217.398131,195.880559 217.855493,194.921202 L223.479391,183.127878 L221.700088,180.583733 C221.258155,179.95059 220.328554,179.83928 219.735085,180.347889 Z" id="Shape" fill="#E4EAF6" fill-rule="nonzero"></path>
                    <path d="M212.628894,131.38427 L202.900311,131.38427 C194.840823,131.38427 188.307161,137.917932 188.307161,145.97742 L188.307161,156.540826 C188.307161,159.120788 189.332092,161.595501 191.156581,163.419989 L193.171728,165.434586 L222.358028,165.434586 L224.373175,163.419438 C226.197664,161.59495 227.222595,159.120788 227.222595,156.540275 L227.222595,145.97742 C227.222044,137.917381 220.688382,131.38427 212.628894,131.38427 Z" id="Shape" fill="#694B4B" fill-rule="nonzero"></path>
                    <path d="M192.653752,156.443292 L193.276976,170.464464 C193.37451,172.651536 194.423136,174.679908 196.136866,175.994135 L201.075823,179.78087 C202.31621,180.731963 203.825505,181.246082 205.376127,181.246082 L210.154181,181.246082 C211.704803,181.246082 213.214097,180.731412 214.454484,179.78087 L219.393441,175.994135 C221.10662,174.679908 222.155797,172.652087 222.253331,170.464464 L222.876555,156.443292 C223.104134,151.327452 219.108555,147.051945 214.099615,147.051945 L201.432896,147.051945 C196.422304,147.051945 192.426173,151.327452 192.653752,156.443292 Z" id="Shape" fill="#F0C087" fill-rule="nonzero"></path>
                    <path d="M285.594093,77.8762368 C282.907781,77.8762368 280.729526,75.697982 280.729526,73.0116698 C280.729526,59.5999461 269.818414,48.6899368 256.407793,48.6899368 C253.721481,48.6899368 251.543226,46.511682 251.543226,43.8253698 C251.543226,41.1390576 253.721481,38.9608028 256.407793,38.9608028 C275.183324,38.9608028 290.458109,54.2355873 290.458109,73.0111187 C290.458109,75.698533 288.280405,77.8762368 285.594093,77.8762368 Z" id="Shape" fill="#7F86F5" fill-rule="nonzero"></path>
                    <path d="M305.051259,77.8762368 C302.364947,77.8762368 300.186692,75.697982 300.186692,73.0116698 C300.186692,48.8717795 280.546581,29.2327709 256.407793,29.2327709 C253.721481,29.2327709 251.543226,27.0545161 251.543226,24.3682039 C251.543226,21.6818917 253.721481,19.5036369 256.407793,19.5036369 C285.912042,19.5036369 309.915275,43.5074207 309.915275,73.0111187 C309.915826,75.698533 307.737571,77.8762368 305.051259,77.8762368 Z" id="Shape" fill="#7F86F5" fill-rule="nonzero"></path>
                    <path d="M324.508976,77.8762368 C321.822664,77.8762368 319.644409,75.697982 319.644409,73.0116698 C319.644409,38.1430618 291.278054,9.77505388 256.407793,9.77505388 C253.721481,9.77505388 251.543226,7.59679908 251.543226,4.91048687 C251.543226,2.22417467 253.721481,0.0470219436 256.407793,0.0470219436 C296.64076,0.0470219436 329.372992,32.779254 329.372992,73.0122208 C329.372992,75.698533 327.195288,77.8762368 324.508976,77.8762368 Z" id="Shape" fill="#7F86F5" fill-rule="nonzero"></path>
                    <path d="M381.896963,176.945317 L318.418133,176.945317 C315.956709,176.945317 313.883931,174.939256 313.883931,172.415502 L313.883931,126.599659 C313.883931,124.140617 315.891935,122.069844 318.418133,122.069844 L381.896963,122.069844 C384.358387,122.069844 386.431165,124.075905 386.431165,126.599659 L386.431165,172.415502 C386.431165,174.939256 384.423162,176.945317 381.896963,176.945317 Z" id="Shape" fill="#FFFFFF" fill-rule="nonzero" transform="translate(350.157548, 149.507580) rotate(-14.000000) translate(-350.157548, -149.507580) "></path>
                    <polygon id="Shape" fill="#FFFFFF" fill-rule="nonzero" opacity="0.1" transform="translate(338.083136, 158.748750) rotate(-14.000000) translate(-338.083136, -158.748750) " points="324.840592 180.140883 351.841206 158.491787 352.034528 157.335456 324.196186 137.356617 324.131745 179.177274"></polygon>
                    <path d="M319.698747,184.568022 C317.107774,184.568022 315.048283,182.575932 315.048283,180.069755 L315.048283,134.508739 C315.048283,132.002562 317.107774,131.552735 319.698747,131.552735 C322.28972,131.552735 324.349211,132.066823 324.349211,134.508739 L324.349211,184.568022 L319.698747,184.568022 Z" id="Shape" fill="#7F86F5" fill-rule="nonzero" transform="translate(319.698747, 158.060379) rotate(-14.000000) translate(-319.698747, -158.060379) "></path>
                    <path d="M381.066369,169.267356 L376.415905,169.267356 L376.415905,119.079551 C376.415905,116.573373 378.475396,116.252069 381.066369,116.252069 C383.657341,116.252069 385.716832,116.573373 385.716832,119.079551 L385.716832,164.83335 C385.716832,167.275266 383.657341,169.267356 381.066369,169.267356 Z" id="Shape" fill="#7F86F5" fill-rule="nonzero" transform="translate(381.066369, 142.759712) rotate(-14.000000) translate(-381.066369, -142.759712) "></path>
                    <path d="M362.406266,176.974938 L314.572774,128.930279 L317.088772,129.950296 L350.385881,153.847015 L386.189916,127.680022 L386.189915,172.554366 C386.189915,174.988884 384.197231,176.974938 381.690306,176.974938 L362.406266,176.974938 Z" id="Shape" fill="url(#linearGradient-1)" fill-rule="nonzero" transform="translate(350.381345, 152.327480) rotate(-14.000000) translate(-350.381345, -152.327480) "></path>
                    <path d="M347.453026,155.870902 L313.23104,130.881445 C311.225592,129.384681 310.643366,126.521305 312.131278,124.503927 C313.619191,122.486549 316.530324,122.031012 318.600463,123.527777 L347.517718,144.677708 L376.629049,123.26747 C378.634496,121.770705 381.480937,122.226242 382.96885,124.308697 C384.456762,126.326075 384.003919,129.189451 381.93378,130.686215 L347.453026,155.870902 Z" id="Shape" fill="#7F86F5" fill-rule="nonzero" transform="translate(347.569935, 139.129233) rotate(-14.000000) translate(-347.569935, -139.129233) "></path>
                    <path d="M379.32182,123.036465 C380.552585,123.036465 381.718574,123.620477 382.4959,124.65872 C383.726666,126.410755 383.338003,128.811692 381.653797,130.109496 L347.516237,155.02733 L313.637785,130.369057 C311.888802,129.071253 311.435362,126.605426 312.666128,124.91828 C313.378676,123.944928 314.609442,123.296026 315.904985,123.296026 C316.747088,123.296026 317.589191,123.555586 318.236963,124.074708 L347.127574,145.09913 L347.516237,145.358691 L347.9049,145.09913 L376.989842,123.750257 C377.702391,123.296026 378.479716,123.036465 379.32182,123.036465 Z M379.32182,122.387563 C378.414939,122.387563 377.443282,122.647124 376.665956,123.231135 L347.516237,144.580009 L318.560849,123.490696 C317.783523,122.906685 316.811865,122.647124 315.840208,122.647124 C314.415111,122.647124 312.990013,123.296026 312.083133,124.528939 C310.658036,126.540535 311.24103,129.395704 313.249122,130.888178 L347.516237,155.870902 L381.977683,130.693508 C383.985775,129.201033 384.439215,126.410755 383.014117,124.334269 C382.107237,123.036465 380.746917,122.387563 379.32182,122.387563 Z" id="Shape" fill-rule="nonzero" transform="translate(347.569935, 139.129233) rotate(-14.000000) translate(-347.569935, -139.129233) "></path>
                </g>
            </g>
        </g>
    </g>
</svg>