<?xml version="1.0" encoding="UTF-8"?>
<svg width="84px" height="90px" viewBox="0 0 84 90" version="1.1" xmlns="http://www.w3.org/2000/svg" xmlns:xlink="http://www.w3.org/1999/xlink">
    <!-- Generator: Sketch 48.2 (47327) - http://www.bohemiancoding.com/sketch -->
    <title>Shape</title>
    <desc>Created with Sketch.</desc>
    <defs></defs>
    <g id="Enterprise" stroke="none" stroke-width="1" fill="none" fill-rule="evenodd" transform="translate(-280.000000, -1662.000000)">
        <g id="benefits" transform="translate(0.000000, 1077.000000)" fill="#7F86F5" fill-rule="nonzero">
            <g id="Group-77" transform="translate(240.000000, 130.000000)">
                <g id="Group-76" transform="translate(0.000000, 195.000000)">
                    <g id="Group-39-Copy-2" transform="translate(0.000000, 220.000000)">
                        <g id="Group-18">
                            <g id="Group-16">
                                <g id="Group-75">
                                    <g id="worldwide" transform="translate(40.000000, 40.000000)">
                                        <path d="M80.9539453,53.2566211 C81.4916602,50.6279883 81.7655273,47.9329102 81.7655273,45.2293945 C81.7655273,35.3536523 78.1242187,25.8811523 71.5123828,18.5566992 C65.2466602,11.6158008 56.8017773,7.12441406 47.6138672,5.81273438 C47.5948828,2.604375 44.9801367,0 41.7670312,0 C38.5426758,0 35.9193164,2.62318359 35.9193164,5.84771484 C35.9193164,5.85333984 35.919668,5.85896484 35.919668,5.86458984 C16.5592969,8.79714844 2.11974609,25.4898633 2.11974609,45.2293945 C2.11974609,47.8854492 2.38535156,50.5393945 2.908125,53.1342773 C1.24171875,54.1657617 0.128671875,56.0098828 0.128671875,58.1097656 C0.128671875,61.3341211 2.75185547,63.9574805 5.97638672,63.9574805 C6.24375,63.9574805 6.50636719,63.937793 6.76441406,63.9028125 C9.6665625,69.3553711 13.8396094,74.1111328 18.8880469,77.7011133 C23.9964258,81.3338086 29.9295703,83.7145898 36.1158398,84.6249609 C36.3575391,87.6290625 38.8775391,90 41.9428125,90 C45.0075586,90 47.5273828,87.6297656 47.7696094,84.626543 C53.9441016,83.7177539 59.8674023,81.3434766 64.96875,77.7218555 C70.0205273,74.1352148 74.1986719,69.3801562 77.1053906,63.9277734 C77.2994531,63.9472852 77.4961523,63.9574805 77.6953125,63.9574805 C80.919668,63.9574805 83.5430273,61.3342969 83.5430273,58.1097656 C83.5430273,56.0907422 82.5143555,54.307793 80.9539453,53.2566211 Z M79.1289844,45.2292188 C79.1289844,47.6122852 78.9027539,49.9883203 78.4555664,52.3107422 C78.4316602,52.3075781 78.4074023,52.3065234 78.3834961,52.3037109 C78.3084375,52.2949219 78.2328516,52.2877148 78.1569141,52.2817383 C78.1180664,52.27875 78.0795703,52.2750586 78.0405469,52.2727734 C77.9262891,52.2660937 77.8113281,52.2616992 77.6953125,52.2616992 C75.3778125,52.2616992 73.3707422,53.6167969 72.4252148,55.5764063 C72.240293,55.9597852 72.0975586,56.3670703 71.9994727,56.7910547 L63.8180859,56.7910547 C64.4516016,53.0934961 64.7762695,49.2138281 64.7762695,45.2292188 C64.7762695,42.7064063 64.6402148,40.1915039 64.3746094,37.7323242 C66.0747656,37.008457 67.3628906,35.5014844 67.7874023,33.6673828 L77.3024414,33.6673828 C78.4887891,37.3134375 79.1289844,41.2008398 79.1289844,45.2292188 Z M62.0912109,35.5601953 C60.3205664,35.5601953 58.8802148,34.119668 58.8802148,32.3491992 C58.8802148,30.5787305 60.3205664,29.1382031 62.0912109,29.1382031 C63.8616797,29.1382031 65.302207,30.5785547 65.302207,32.3491992 C65.302207,34.1198438 63.8618555,35.5601953 62.0912109,35.5601953 Z M62.139375,45.2293945 C62.139375,49.2324609 61.7814844,53.1251367 61.1184375,56.7912305 L43.2611719,56.7912305 L43.2611719,33.6675586 L56.3953711,33.6675586 C56.9717578,36.1583789 59.1424805,38.0452148 61.7711133,38.1877734 C62.0143945,40.498418 62.139375,42.8596875 62.139375,45.2293945 Z M76.3323047,31.0308398 L67.7872266,31.0308398 C67.1899219,28.449668 64.880332,26.5174805 62.1237305,26.5023633 C59.8485937,18.9991406 56.2992187,13.0580859 52.00875,9.41783203 C63.1436133,12.5191406 72.0402539,20.604375 76.3323047,31.0308398 Z M46.6421484,9.08033203 C52.1052539,11.5217578 56.7667969,18.0279492 59.5464258,27.0850781 C57.9761719,27.8472656 56.7975586,29.2920117 56.3951953,31.0308398 L43.2609961,31.0308398 L43.2609961,11.5011914 C43.2836719,11.4952148 43.3059961,11.4881836 43.3286719,11.4818555 C43.3773633,11.4684961 43.4258789,11.4551367 43.4742187,11.4405469 C43.5492773,11.4175195 43.6232812,11.3925586 43.6969336,11.3667188 C43.7864062,11.3356055 43.8744727,11.3018555 43.9620117,11.2663477 C43.9991016,11.2512305 44.0363672,11.2364648 44.0731055,11.2206445 C44.1464062,11.1893555 44.2190039,11.1564844 44.2908984,11.1220313 C44.3016211,11.1169336 44.3123437,11.1113086 44.3230664,11.1060352 C45.2598047,10.6512891 46.0634766,9.95414063 46.6421484,9.08033203 Z M41.7670313,2.63671875 C43.5375,2.63671875 44.9780273,4.07707031 44.9780273,5.84771484 C44.9780273,6.15832031 44.9314453,6.45785156 44.8486523,6.74208984 C44.8396875,6.77302734 44.8308984,6.80414062 44.8212305,6.83472656 C44.7952148,6.91505859 44.7663867,6.99416016 44.7343945,7.07150391 C44.7301758,7.081875 44.7264844,7.09277344 44.7220898,7.10314453 C44.3968945,7.86585937 43.7848242,8.47775391 43.0221094,8.80294922 C43.0133203,8.80664062 43.0043555,8.80980469 42.9955664,8.81349609 C42.9159375,8.84654297 42.8347266,8.87607422 42.7521094,8.90279297 C42.7266211,8.91105469 42.7007813,8.9184375 42.6751172,8.92599609 C42.6070898,8.94603516 42.5380078,8.96378906 42.4682227,8.97925781 C42.436582,8.98628906 42.4049414,8.99349609 42.3727734,8.99964844 C42.3036914,9.01283203 42.2335547,9.02302734 42.1630664,9.03164063 C42.1324805,9.03533203 42.1024219,9.04042969 42.0716602,9.04324219 C41.9712891,9.05273438 41.8698633,9.05871094 41.7670313,9.05871094 C41.6649023,9.05871094 41.5641797,9.05273438 41.4645117,9.04341797 C41.4314648,9.04025391 41.3991211,9.03515625 41.36625,9.0309375 C41.2994531,9.0225 41.2331836,9.01300781 41.167793,9.00052734 C41.1312305,8.99367188 41.0951953,8.98558594 41.0591602,8.9775 C40.996582,8.96326172 40.934707,8.94744141 40.8733594,8.9296875 C40.8401367,8.92001953 40.8069141,8.91052734 40.7742188,8.89998047 C40.7042578,8.87712891 40.6355273,8.85164063 40.5678516,8.82421875 C40.5467578,8.81578125 40.5251367,8.80822266 40.5042188,8.79925781 C40.3182422,8.71927734 40.1410547,8.62294922 39.9749414,8.51097656 C39.9723047,8.50921875 39.9700195,8.50728516 39.9673828,8.50570313 C39.8861719,8.45068359 39.8077734,8.39179688 39.7321875,8.32974609 C39.7270898,8.32570313 39.722168,8.32130859 39.7172461,8.31708984 C39.6420117,8.25451172 39.5694141,8.18894531 39.5001563,8.11986328 C39.4985742,8.11828125 39.497168,8.116875 39.4955859,8.11529297 C39.2095898,7.82876953 38.9777344,7.48828125 38.8156641,7.11105469 C38.8088086,7.09488281 38.8026563,7.07835937 38.7959766,7.0621875 C38.7662695,6.98958984 38.7391992,6.91558594 38.7147656,6.84052734 C38.7054492,6.811875 38.6966602,6.78287109 38.6882227,6.75386719 C38.6034961,6.46628906 38.5560352,6.16271484 38.5560352,5.84789062 C38.5562109,4.07707031 39.9965625,2.63671875 41.7670313,2.63671875 Z M36.9775195,9.20144531 C37.227832,9.55863281 37.5169922,9.88382812 37.8370898,10.1742187 C37.8372656,10.1743945 37.8374414,10.1745703 37.8376172,10.1747461 C38.0334375,10.3522852 38.2405078,10.5162891 38.4584766,10.6658789 C38.4869531,10.6853906 38.5154297,10.7047266 38.5442578,10.7237109 C38.6041992,10.7634375 38.6643164,10.8028125 38.7258398,10.8402539 C38.7836719,10.8755859 38.8427344,10.9089844 38.9019727,10.9423828 C38.9708789,10.9810547 39.0403125,11.0184961 39.1108008,11.0545312 C39.1742578,11.0870508 39.2380664,11.1186914 39.3027539,11.1489258 C39.345293,11.1686133 39.387832,11.188125 39.4307227,11.2069336 C39.519668,11.2457812 39.6094922,11.2826953 39.7005469,11.3171484 C39.7188281,11.3240039 39.7364062,11.3319141 39.7546875,11.3385937 C39.8661328,11.3795508 39.9795117,11.4161133 40.0939453,11.4503906 C40.1243555,11.4595312 40.1549414,11.467793 40.1855273,11.4764062 C40.2820312,11.5036523 40.3795898,11.5282617 40.4780273,11.5505859 C40.5017578,11.5560352 40.5253125,11.5620117 40.5492187,11.5671094 C40.5741797,11.5723828 40.5991406,11.5776562 40.6242773,11.5827539 L40.6242773,31.0311914 L23.3056055,31.0311914 C25.7141602,20.467793 30.7216406,12.1656445 36.9775195,9.20144531 Z M40.6241016,33.6675586 L40.6241016,56.7914062 L22.7592773,56.7914062 C22.1013281,53.1304102 21.7460742,49.2394922 21.7460742,45.2293945 C21.7460742,41.2265039 22.1041406,37.3340039 22.7671875,33.6675586 L40.6241016,33.6675586 Z M31.892168,9.41888672 C28.8437695,12.0106055 26.1372656,15.7795313 24.0180469,20.4590039 C22.5488672,23.7032227 21.4006641,27.2583984 20.5827539,31.0308398 L7.56773437,31.0308398 C11.8696289,20.6193164 20.7708398,12.5217773 31.892168,9.41888672 Z M6.5925,33.6675586 L20.0677148,33.6675586 C19.4340234,37.3651172 19.1095312,41.2449609 19.1095312,45.2293945 C19.1095312,49.1674219 19.4442187,53.0655469 20.0859961,56.7912305 L11.6724023,56.7912305 C11.5743164,56.3672461 11.431582,55.9599609 11.2464844,55.576582 C10.300957,53.6171484 8.29388672,52.2620508 5.97638672,52.2620508 C5.97603516,52.2620508 5.97585937,52.2620508 5.97550781,52.2620508 C5.87900391,52.2620508 5.78302734,52.2646875 5.68722656,52.2694336 C5.65822266,52.2708398 5.62974609,52.2736523 5.60091797,52.2754102 C5.54308594,52.2789258 5.48525391,52.2820898 5.42759766,52.2873633 C4.98199219,49.9679297 4.75646484,47.5994531 4.75646484,45.2293945 C4.75646484,41.2050586 5.39964844,37.3166016 6.5925,33.6675586 Z M9.17244141,58.4054297 C9.16945312,58.4379492 9.16488281,58.4701172 9.16083984,58.5022852 C9.15275391,58.5675 9.14308594,58.6321875 9.13113281,58.6963477 C9.12445312,58.732207 9.11759766,58.7678906 9.10986328,58.8033984 C9.095625,58.8679102 9.07875,58.9313672 9.06064453,58.9944727 C9.05220703,59.0240039 9.045,59.0538867 9.03568359,59.0830664 C9.00773437,59.170957 8.97609375,59.2572656 8.9409375,59.3416406 C8.93039062,59.3671289 8.91791016,59.3915625 8.90666016,59.416875 C8.87853516,59.4796289 8.84917969,59.5418555 8.8171875,59.6023242 C8.80259766,59.6300977 8.78712891,59.6573437 8.77166016,59.6847656 C8.73738281,59.7452344 8.70134766,59.8046484 8.66337891,59.8626562 C8.64984375,59.8833984 8.63648437,59.9044922 8.62242187,59.9250586 C8.51150391,60.08625 8.38705078,60.2374219 8.24923828,60.3755859 C8.24449219,60.380332 8.23939453,60.3847266 8.23464844,60.3894727 C8.17066406,60.4529297 8.10369141,60.5133984 8.03443359,60.5714062 C8.02177734,60.5821289 8.00876953,60.5925 7.99576172,60.6030469 C7.93107422,60.6556055 7.86410156,60.7055273 7.79537109,60.7529883 C7.7821875,60.7621289 7.76917969,60.7716211 7.75582031,60.7805859 C7.59427734,60.8885156 7.42253906,60.9820312 7.24236328,61.0597266 C7.21669922,61.0708008 7.18998047,61.0801172 7.16378906,61.0904883 C6.79587891,61.2376172 6.39580078,61.3209375 5.97603516,61.3209375 C4.20591797,61.3205859 2.76556641,59.8802344 2.76556641,58.1097656 C2.76556641,56.6901563 3.69246094,55.4848242 4.97197266,55.0618945 C5.00220703,55.0520508 5.03226562,55.0420313 5.06267578,55.0330664 C5.12947266,55.0132031 5.1975,54.9961523 5.26605469,54.9806836 C5.29787109,54.9734766 5.32951172,54.9655664 5.36150391,54.9594141 C5.43269531,54.9455273 5.50511719,54.935332 5.57789062,54.9261914 C5.60759766,54.9225 5.63695312,54.9174023 5.66683594,54.9144141 C5.76861328,54.9045703 5.87162109,54.8987695 5.97585937,54.8987695 C5.97603516,54.8987695 5.97621094,54.8987695 5.97638672,54.8987695 C6.58634766,54.8987695 7.15517578,55.072793 7.64138672,55.3695117 C8.56634766,55.9337695 9.18738281,56.9494336 9.18738281,58.1099414 C9.18720703,58.2097852 9.18123047,58.3080469 9.17244141,58.4054297 Z M9.24626953,62.9576367 C9.39427734,62.8576172 9.53542969,62.7491602 9.67289062,62.6368359 C9.68449219,62.6273438 9.69609375,62.6180273 9.70751953,62.6085352 C9.77238281,62.5545703 9.83619141,62.4995508 9.89859375,62.4429492 C9.90632812,62.435918 9.91388672,62.4288867 9.92144531,62.4218555 C10.112168,62.2471289 10.2905859,62.060625 10.4558203,61.8632227 C10.4688281,61.8475781 10.4823633,61.8324609 10.4951953,61.8168164 C10.5384375,61.7639062 10.5804492,61.7101172 10.6219336,61.6558008 C10.646543,61.6236328 10.6708008,61.5914648 10.694707,61.5587695 C10.7300391,61.5104297 10.7648438,61.4620898 10.7985938,61.4126953 C10.8300586,61.3668164 10.860293,61.3202344 10.8905273,61.2734766 C10.9161914,61.2335742 10.9427344,61.1941992 10.9673437,61.1535937 C11.0216602,61.065 11.0735156,60.9748242 11.1230859,60.8832422 C11.1331055,60.8647852 11.1420703,60.8458008 11.1517383,60.827168 C11.19375,60.7473633 11.2341797,60.6665039 11.2726758,60.5845898 C11.2844531,60.5594531 11.2957031,60.5339648 11.3071289,60.5086523 C11.3428125,60.4295508 11.3769141,60.3493945 11.4092578,60.2685352 C11.4183984,60.2456836 11.4275391,60.222832 11.4363281,60.1998047 C11.4728906,60.104707 11.507168,60.0087305 11.5386328,59.9113477 C11.5410937,59.9036133 11.544082,59.8958789 11.546543,59.8881445 C11.594707,59.7375 11.6360156,59.584043 11.6720508,59.4284766 L20.5975195,59.4284766 C21.4386328,63.3141211 22.6230469,66.9668555 24.1196484,70.2232031 C26.225332,74.8049414 28.8922852,78.4914258 31.8909375,81.0397266 C22.2649805,78.3573047 14.0944922,71.8952344 9.24626953,62.9576367 Z M36.8891016,81.2158594 C30.6557227,78.2154492 25.6833984,69.9660352 23.2934766,59.428125 L40.6242773,59.428125 L40.6242773,78.4564453 C39.0338086,78.8245313 37.6901367,79.842832 36.8891016,81.2158594 Z M41.9428125,87.3632813 C40.1723438,87.3632813 38.7318164,85.9229297 38.7318164,84.1522852 C38.7318164,83.9552344 38.7523828,83.7632813 38.7864844,83.5760742 C38.794043,83.5347656 38.8017773,83.4936328 38.810918,83.4528516 C38.8244531,83.3925586 38.8400977,83.3331445 38.8569727,83.274082 C38.8682227,83.2348828 38.8789453,83.1955078 38.8916016,83.1570117 C38.9098828,83.1012891 38.9308008,83.0467969 38.9520703,82.9923047 C38.9680664,82.9513477 38.9831836,82.9098633 39.0009375,82.8697852 C39.0204492,82.8251367 39.0427734,82.7820703 39.0643945,82.7384766 C39.0883008,82.6903125 39.1109766,82.6416211 39.137168,82.5948633 C39.148418,82.5748242 39.16125,82.5560156 39.1728516,82.5361523 C39.4966406,81.9866602 39.9779297,81.5419336 40.5502734,81.2634961 C40.5537891,81.2617383 40.5573047,81.2599805 40.5609961,81.2583984 C40.639043,81.2207813 40.7190234,81.1866797 40.8002344,81.1552148 C40.8137695,81.1501172 40.8273047,81.1451953 40.8410156,81.1402734 C40.9144922,81.1130273 40.9890234,81.0882422 41.0646094,81.0664453 C41.0911523,81.0588867 41.1182227,81.0525586 41.1449414,81.0457031 C41.210332,81.0286523 41.27625,81.0123047 41.3430469,80.9994727 C41.3892773,80.9906836 41.4363867,80.984707 41.4833203,80.9780273 C41.5339453,80.9706445 41.5843945,80.9618555 41.6357227,80.9567578 C41.7366211,80.9470898 41.8385742,80.9412891 41.9421094,80.9412891 C41.9424609,80.9412891 41.9426367,80.9412891 41.9429883,80.9412891 C42.046875,80.9412891 42.1491797,80.9472656 42.2506055,80.9569336 C42.3012305,80.9618555 42.3508008,80.9704688 42.4007227,80.9778516 C42.4485352,80.984707 42.4965234,80.9908594 42.5436328,80.9996484 C42.6097266,81.0124805 42.6745898,81.0284766 42.7392773,81.0453516 C42.7670508,81.0525586 42.7951758,81.0588867 42.8227734,81.0667969 C42.8974805,81.088418 42.970957,81.1128516 43.0435547,81.1395703 C43.0581445,81.1450195 43.0730859,81.1501172 43.0876758,81.1557422 C43.167832,81.1866797 43.246582,81.2204297 43.32375,81.2575195 C43.3284961,81.2598047 43.333418,81.2620898 43.3381641,81.264375 C43.9092773,81.5426367 44.3893359,81.9866602 44.7127734,82.5350977 C44.7247266,82.5554883 44.7379102,82.5748242 44.7493359,82.5953906 C44.7753516,82.6419727 44.7980273,82.6906641 44.8219336,82.7386523 C44.8433789,82.7822461 44.8657031,82.8253125 44.8852148,82.8699609 C44.9029687,82.9103906 44.9182617,82.951875 44.9342578,82.9931836 C44.9553516,83.0473242 44.9760937,83.1014648 44.994375,83.1568359 C45.007207,83.1958594 45.0181055,83.2355859 45.0293555,83.2751367 C45.0460547,83.3336719 45.0616992,83.3923828 45.0750586,83.4521484 C45.084375,83.4936328 45.0922852,83.5356445 45.0998437,83.5776563 C45.1337695,83.7643359 45.1541602,83.9557617 45.1541602,84.1521094 C45.1536328,85.9229297 43.713457,87.3632813 41.9428125,87.3632813 Z M46.9965234,81.2162109 C46.1954883,79.842832 44.8518164,78.8245312 43.2609961,78.4562695 L43.2609961,59.428125 L60.5800195,59.428125 C58.1830664,69.9417773 53.2116211,78.2158008 46.9965234,81.2162109 Z M51.9929297,81.0404297 C55.0404492,78.4495898 57.74625,74.6820703 59.865293,70.0045312 C61.3353516,66.759082 62.4844336,63.2023242 63.3026953,59.428125 L71.9994727,59.428125 C72.3515625,60.9495117 73.2981445,62.2448437 74.5813477,63.0555469 C74.581875,63.0558984 74.5824023,63.0564258 74.5831055,63.0567773 C69.7285547,71.9425195 61.5803906,78.3676758 51.9929297,81.0404297 Z M77.6951367,61.3205859 C77.3676562,61.3205859 77.0516016,61.2706641 76.7536523,61.179082 C76.7309766,61.1720508 76.7091797,61.1632617 76.6866797,61.1558789 C76.6161914,61.1325 76.5462305,61.1075391 76.4780273,61.0794141 C76.4474414,61.0667578 76.4173828,61.0528711 76.3873242,61.0393359 C76.3298437,61.0134961 76.2730664,60.9864258 76.2175195,60.9574219 C76.1835938,60.939668 76.1500195,60.9215625 76.1167969,60.9027539 C76.0688086,60.8755078 76.0222266,60.8465039 75.9758203,60.8169727 C75.9389063,60.7932422 75.9014648,60.7700391 75.8656055,60.7449023 C75.8311523,60.7209961 75.798457,60.6949805 75.7650586,60.669668 C75.5894531,60.53625 75.4268555,60.3870117 75.2825391,60.2216016 C75.2818359,60.2208984 75.2811328,60.2201953 75.2806055,60.2194922 C75.2261133,60.1569141 75.174082,60.0922266 75.1245117,60.0256055 C75.1231055,60.0236719 75.1216992,60.0219141 75.120293,60.0199805 C74.8803516,59.6963672 74.7017578,59.3279297 74.5954102,58.9345312 C74.5871484,58.903418 74.5787109,58.8724805 74.5713281,58.8410156 C74.5586719,58.7881055 74.5477734,58.734668 74.5379297,58.6810547 C74.5287891,58.6299023 74.5210547,58.5783984 74.5141992,58.5263672 C74.50875,58.4855859 74.5027734,58.4448047 74.4989063,58.4036719 C74.4901172,58.3066406 74.4839648,58.2089062 74.4839648,58.1097656 C74.4839648,56.9492578 75.1048242,55.9335938 76.0299609,55.3693359 C76.5161719,55.072793 77.085,54.8987695 77.6949609,54.8985938 C77.6958398,54.8985938 77.6967188,54.8987695 77.6977734,54.8987695 C77.8074609,54.8987695 77.915918,54.9043945 78.022793,54.915293 C78.024375,54.9154687 78.0257812,54.9158203 78.0273633,54.9159961 C79.6422656,55.0828125 80.905957,56.4512695 80.905957,58.1097656 C80.9063086,59.8802344 79.4657812,61.3205859 77.6951367,61.3205859 Z" id="Shape"></path>
                                    </g>
                                </g>
                            </g>
                        </g>
                    </g>
                </g>
            </g>
        </g>
    </g>
</svg>