<?xml version="1.0" encoding="UTF-8"?>
<svg width="150px" height="24px" viewBox="0 0 150 24" version="1.1" xmlns="http://www.w3.org/2000/svg" xmlns:xlink="http://www.w3.org/1999/xlink">
    <!-- Generator: Sketch 48.2 (47327) - http://www.bohemiancoding.com/sketch -->
    <title>Siemens</title>
    <desc>Created with Sketch.</desc>
    <defs></defs>
    <g id="Monitoring" stroke="none" stroke-width="1" fill="none" fill-rule="evenodd" transform="translate(-1333.000000, -5916.000000)">
        <g id="clients" transform="translate(0.000000, 5563.000000)" fill="#FFFFFF">
            <g id="Group-48" transform="translate(423.000000, 190.000000)">
                <g id="Group-47" transform="translate(0.000000, 113.000000)">
                    <g id="Group-33" transform="translate(896.000000, 0.000000)">
                        <g id="Siemens" transform="translate(14.000000, 50.000000)">
                            <path d="M148.244494,0.833908283 L148.244494,5.28230948 C145.92811,4.41230358 143.865778,3.97241639 142.060797,3.97241639 C140.991661,3.97241639 140.140295,4.16938878 139.500179,4.55020715 C138.859986,4.93430712 138.533293,5.40708664 138.533293,5.96518779 C138.533293,6.70713492 139.255946,7.36696571 140.711145,7.95795919 L144.915047,9.9933914 C148.313837,11.6053444 150,13.7457879 150,16.434564 C150,18.6702502 149.105755,20.4529228 147.300774,21.7726607 C145.508986,23.1056013 143.096872,23.7654321 140.094118,23.7654321 C138.708184,23.7654321 137.464234,23.7063633 136.358816,23.5815861 C135.253398,23.4634485 133.982985,23.2204574 132.573962,22.872455 L132.573962,18.2172366 C135.157669,19.0872425 137.510412,19.5271297 139.628816,19.5271297 C142.15645,19.5271297 143.41367,18.798309 143.41367,17.3275411 C143.41367,16.5954388 142.898892,16.0045216 141.852922,15.5415869 L137.183718,13.5619419 C135.461273,12.7871788 134.180964,11.8482592 133.342792,10.7353385 C132.51789,9.61257303 132.098765,8.32565116 132.098765,6.85488329 C132.098765,4.79640356 132.969922,3.13850811 134.692367,1.87783904 C136.428082,0.627014775 138.73135,0 141.595495,0 C142.526022,0 143.598456,0.0820400296 144.78641,0.23307 C145.984183,0.393944775 147.135778,0.590917162 148.244494,0.833908283 Z" id="Shape"></path>
                            <path d="M16.141782,0.833908283 L16.141782,5.28230948 C13.8244674,4.41230358 11.7646748,3.97241639 9.95902784,3.97241639 C8.88619841,3.97241639 8.03789504,4.16938878 7.39746628,4.55020715 C6.75711426,4.93430712 6.43030068,5.40708664 6.43030068,5.96518779 C6.43030068,6.70713492 7.16311816,7.36696571 8.61885432,7.95795919 L12.8243058,9.9933914 C16.2110736,11.6053444 17.9012346,13.7457879 17.9012346,16.434564 C17.9012346,18.6702502 17.0033605,20.4529228 15.210912,21.7726607 C13.4052651,23.1056013 11.0054605,23.7654321 7.99170068,23.7654321 C6.60525606,23.7654321 5.35747125,23.7063633 4.25164584,23.5815861 C3.14582044,23.4634485 1.88813683,23.2204574 0.468772979,22.872455 L0.468772979,18.2172366 C3.06333051,19.0872425 5.41694073,19.5271297 7.5229277,19.5271297 C10.0514933,19.5271297 11.3091769,18.798309 11.3091769,17.3275411 C11.3091769,16.5954388 10.7975092,16.0045216 9.76097529,15.5415869 L5.09012716,13.5619419 C3.35377178,12.7871788 2.072991,11.8482592 1.24778481,10.7353385 C0.409303498,9.61257303 0,8.32565116 0,6.85488329 C0,4.79640356 0.864878089,3.13850811 2.59785713,1.87783904 C4.32101411,0.627014775 6.62835324,0 9.4936312,0 C10.4344,0 11.4940311,0.0820400296 12.6955448,0.23307 C13.8839368,0.393944775 15.0359566,0.590917162 16.141782,0.833908283 Z" id="Shape"></path>
                            <polygon id="Shape" points="20.9876543 0.308641975 27.7777778 0.308641975 27.7777778 23.1481481 20.9876543 23.1481481"></polygon>
                            <polygon id="Shape" points="49.792068 0.308641975 49.792068 4.52999925 39.6160594 4.52999925 39.6160594 9.59483747 48.4421212 9.59483747 48.4421212 13.4008771 39.6160594 13.4008771 39.6160594 18.7176119 50 18.7176119 50 23.1481481 33.0246914 23.1481481 33.0246914 0.308641975"></polygon>
                            <polygon id="Shape" points="81.7901235 0.308641975 81.7901235 23.2466328 75.372012 23.2466328 75.372012 8.11774686 68.7127496 23.4567901 64.7501261 23.4567901 58.3455703 8.11774686 58.3455703 23.2466328 53.7037037 23.2466328 53.7037037 0.308641975 62.0961566 0.308641975 67.8247812 14.3505572 73.8185102 0.308641975"></polygon>
                            <polygon id="Shape" points="103.804413 0.308641975 103.804413 4.52999925 93.683986 4.52999925 93.683986 9.59483747 102.510011 9.59483747 102.510011 13.4008771 93.683986 13.4008771 93.683986 18.7176119 104.012346 18.7176119 104.012346 23.1481481 87.037037 23.1481481 87.037037 0.308641975"></polygon>
                            <polygon id="Shape" points="127.777778 0.308641975 127.777778 23.1481481 120.504671 23.1481481 112.342784 8.49945998 112.342784 23.1481481 107.716049 23.1481481 107.716049 0.308641975 115.201173 0.308641975 123.151812 14.7055856 123.151812 0.308641975"></polygon>
                        </g>
                    </g>
                </g>
            </g>
        </g>
    </g>
</svg>