<?xml version="1.0" encoding="UTF-8"?>
<svg width="150px" height="30px" viewBox="0 0 150 30" version="1.1" xmlns="http://www.w3.org/2000/svg" xmlns:xlink="http://www.w3.org/1999/xlink">
    <!-- Generator: Sketch 48.2 (47327) - http://www.bohemiancoding.com/sketch -->
    <title>Société_Générale</title>
    <desc>Created with Sketch.</desc>
    <defs></defs>
    <g id="Monitoring" stroke="none" stroke-width="1" fill="none" fill-rule="evenodd" transform="translate(-1333.000000, -6097.000000)">
        <g id="clients" transform="translate(0.000000, 5563.000000)" fill="#FFFFFF">
            <g id="Group-48" transform="translate(423.000000, 190.000000)">
                <g id="Group-47" transform="translate(0.000000, 113.000000)">
                    <g id="Group-34" transform="translate(896.000000, 184.000000)">
                        <g id="Société_Générale" transform="translate(14.000000, 47.000000)">
                            <path d="M48.3280652,3.22434348 C46.8078524,2.54784917 45.1808351,2.10697596 43.7324904,2.10697596 C41.6153717,2.10697596 40.5583095,2.58240696 40.5583095,3.44006762 C40.5583095,5.89366861 50,3.92282901 50,9.15885328 C50,11.3265671 48.0605556,13 44.1746796,13 C41.8699052,13 40.0682082,12.5004837 38,11.3265671 L38.8534351,9.37353014 C40.6671103,10.4301599 42.3600065,10.8993074 44.1886542,10.8993074 C46.4924307,10.8993074 47.7281652,10.2018688 47.7281652,9.15885328 C47.7281652,6.4748671 38.2824821,8.47816971 38.2824821,3.57201544 C38.2824821,1.45561464 40.206954,0 43.6865746,0 C45.7687574,0 47.5195475,0.479619782 49.1934786,1.35822456 L48.3280652,3.22434348" id="path6" fill-rule="nonzero"></path>
                            <path d="M60.0142064,13 C56.179788,13 53,10.3946178 53,6.50258812 C53,2.65506807 56.179788,0 60.0142064,0 C63.8709564,0 67,2.65506807 67,6.50258812 C67,10.395653 63.8709564,13 60.0142064,13 Z M60.0142064,2.0971415 C57.2221247,2.0971415 55.3140453,4.02555937 55.3140453,6.50258812 C55.3140453,9.03758266 57.1388984,10.923561 60.0142064,10.923561 C62.8722612,10.923561 64.6879793,9.01998587 64.6879793,6.50258812 C64.6879793,4.02555937 62.8722612,2.0971415 60.0142064,2.0971415 Z" id="Combined-Shape"></path>
                            <path d="M76.1945417,13 C72.0903171,13 69,10.3958546 69,6.49430044 C69,2.65906724 72.1388899,0 76.1945417,0 C78.613053,0 80.3463145,0.689119186 81.8997428,1.83626938 L80.6904872,3.6393781 C79.5597827,2.76891182 78.1448518,2.13367869 76.2606895,2.13367869 C73.2664934,2.13367869 71.4061026,4.0300517 71.4061026,6.49326409 C71.4061026,9.03005174 73.2840685,10.8715025 76.2906626,10.8715025 C78.170694,10.8715025 79.6621054,10.2632124 80.785578,9.39170965 L82,11.1968912 C80.4424354,12.3450777 78.613053,13 76.1945417,13" id="path10" fill-rule="nonzero"></path>
                            <polygon id="rect12" fill-rule="nonzero" points="85 0 87 0 87 13 85 13"></polygon>
                            <polyline id="polyline14" fill-rule="nonzero" points="90 13 90 0 101.593239 0 101.593239 2.15004635 92.3632948 2.15004635 92.3632948 5.3082694 99.5368923 5.3082694 99.5368923 7.452837 92.3632948 7.452837 92.3632948 10.8510498 102 10.8510498 102 13 90 13"></polyline>
                            <polyline id="polyline16" fill-rule="nonzero" points="110.11201 2.13580039 110.11201 13 107.892038 13 107.892038 2.13580039 103 2.13580039 103 0 115 0 115 2.13580039 110.11201 2.13580039"></polyline>
                            <polyline id="polyline18" fill-rule="nonzero" points="117 13 117 0 128.593239 0 128.593239 2.15004635 119.363295 2.15004635 119.363295 5.3082694 126.542263 5.3082694 126.542263 7.452837 119.363295 7.452837 119.363295 10.8510498 129 10.8510498 129 13 117 13"></polyline>
                            <path d="M45.28885,27.854067 C46.5357088,27.854067 47.8218546,27.5731264 48.7895659,27.1118025 L48.7895659,23.5373207 L51,23.5373207 L51,28.3112443 C49.4440117,29.360367 47.304915,30 45.1916655,30 C41.0923335,30 38,27.3958535 38,23.4906699 C38,19.6539077 41.1388584,17 45.1916655,17 C47.5654525,17 49.3468272,17.6717701 50.9028154,18.8193778 L49.6942107,20.6242424 C48.5600446,19.7544656 47.1384602,19.1604467 45.254732,19.1604467 C42.2626848,19.0982454 40.4037697,21.0347689 40.4037697,23.4906699 C40.4037697,26.035726 42.2843966,27.854067 45.28885,27.854067" id="path20" fill-rule="nonzero"></path>
                            <polyline id="polyline22" fill-rule="nonzero" points="54 30 54 17 65.5953834 17 65.5953834 19.147483 56.3557797 19.147483 56.3557797 22.3056749 63.5390371 22.3056749 63.5390371 24.4531579 56.3557797 24.4531579 56.3557797 27.852517 66 27.852517 66 30 54 30"></polyline>
                            <path d="M70.1455613,30 L68,30 L68,17 L70.2382839,17.0000017 L77.9501473,26.7979598 L78.0029904,26.7804189 C77.8733796,24.3172266 77.8564311,22.323214 77.8564311,20.3949739 L77.8564311,17 L80,17 L80,30 L77.7796583,29.9999983 L70.0957146,20.2042328 L70.0608343,20.2239663 C70.1455769,22.1489174 70.1455769,25.511005 70.1455769,26.6050261 L70.1455769,30" id="path24" fill-rule="nonzero"></path>
                            <polyline id="polyline26" fill-rule="nonzero" points="83 30 83 17 94.5879845 17 94.5879845 19.147483 85.3551477 19.147483 85.3551477 22.3056749 92.5343339 22.3056749 92.5343339 24.4531579 85.3551477 24.4531579 85.3551477 27.852517 95 27.852517 95 30 83 30"></polyline>
                            <path d="M102.8172,25.2172192 L99.2280378,25.2172192 L99.2280378,30 L97,30 L97,17 L104.720148,17 C107.281377,17 108.870373,18.701324 108.870373,21.1447843 C108.870373,23.4654692 107.309732,24.8510836 105.425015,25.1470614 L109,30 L106.20989,30 L102.8172,25.2172192 Z M104.482152,23.0511002 C105.874676,23.0511002 106.662589,22.270596 106.662589,21.1458806 C106.662589,19.9126401 105.970885,19.1485793 104.720148,19.1485793 L99.2280378,19.1485793 L99.2280378,23.0521965 L104.482152,23.0521965 L104.482152,23.0511002 Z" id="Combined-Shape"></path>
                            <path d="M113.773422,26.8440002 L112.40127,30 L110,30 L115.830646,17 L118.162295,17 L124,30 L121.607811,30 L120.230615,26.8440002 L113.773422,26.8440002 Z M114.69761,24.7326923 L119.307438,24.7326923 L117.010092,19.464289 L114.69761,24.7326923 Z" id="Combined-Shape"></path>
                            <polyline id="polyline32" fill-rule="nonzero" points="126 30 126 17 128.171588 17 128.171588 27.852517 136 27.852517 136 30 126 30"></polyline>
                            <polyline id="polyline34" fill-rule="nonzero" points="138 30 138 17 149.595564 17 149.595564 19.147483 140.361168 19.147483 140.361168 22.3056749 147.539069 22.3056749 147.539069 24.4531579 140.361168 24.4531579 140.361168 27.852517 150 27.852517 150 30 138 30"></polyline>
                            <path d="M0,0 L29,0 L29,30 L0,30 L0,0 Z M5.1595092,15.3592814 L24.0184049,15.3592814 L24.0184049,14.8203593 L5.1595092,14.8203593 L5.1595092,15.3592814 Z" id="Combined-Shape"></path>
                        </g>
                    </g>
                </g>
            </g>
        </g>
    </g>
</svg>