<?xml version="1.0" encoding="UTF-8"?>
<svg width="82px" height="96px" viewBox="0 0 82 96" version="1.1" xmlns="http://www.w3.org/2000/svg" xmlns:xlink="http://www.w3.org/1999/xlink">
    <!-- Generator: Sketch 48.2 (47327) - http://www.bohemiancoding.com/sketch -->
    <title>Tesla_Motors</title>
    <desc>Created with Sketch.</desc>
    <defs></defs>
    <g id="Monitoring" stroke="none" stroke-width="1" fill="none" fill-rule="evenodd" transform="translate(-470.000000, -6065.000000)">
        <g id="clients" transform="translate(0.000000, 5563.000000)" fill="#FFFFFF" fill-rule="nonzero">
            <g id="Group-48" transform="translate(423.000000, 190.000000)">
                <g id="Group-47" transform="translate(0.000000, 113.000000)">
                    <g id="Group-29" transform="translate(0.000000, 185.000000)">
                        <g id="Tesla_Motors" transform="translate(47.000000, 14.000000)">
                            <polyline id="polyline10" points="69.6081421 88.8417159 69.6081421 95.2214747 71.6540788 95.2214747 71.6540788 90.9738341 79.1003335 90.9738341 79.1003335 95.2214747 81.1448145 95.2214747 81.1448145 88.8527797 69.6081421 88.8417159"></polyline>
                            <path d="M71.4261055,86.7780188 L79.2930772,86.7780188 C80.3857769,86.5608181 81.1983867,85.5965172 81.4275247,84.6636609 L69.2919492,84.6636609 C69.5187579,85.5968084 70.3433051,86.5608181 71.4261055,86.7780188" id="path12"></path>
                            <path d="M63.41181,95.2255509 C64.4433674,94.7882381 64.9983063,94.0318209 65.2108485,93.1467138 L56.0345588,93.1467138 L56.0403818,84.6689017 L53.9833813,84.6747248 L53.9833813,95.2255509 L63.41181,95.2255509" id="path16"></path>
                            <path d="M38.6867506,86.7494857 L45.9521989,86.7494857 C47.0475189,86.4312548 47.9672733,85.5968084 48.1914616,84.6718132 L36.6501308,84.6718132 L36.6501308,90.9068687 L46.0963199,90.9068687 L46.0963199,93.0948884 L38.6867506,93.1007115 C37.5256298,93.4244744 36.5409482,94.2041839 36.049772,95.2339943 L36.6501308,95.2229305 L48.1259521,95.2229305 L48.1259521,88.8338547 L38.6867506,88.8338547 L38.6867506,86.7494857" id="path20"></path>
                            <path d="M20.7508121,86.7695753 L28.6151634,86.7695753 C29.7093188,86.5515012 30.522511,85.5880738 30.7504843,84.654344 L18.6154912,84.654344 C18.8420087,85.5880738 19.6671382,86.5515012 20.7508121,86.7695753" id="path24"></path>
                            <path d="M20.7508121,90.9394779 L28.6151634,90.9394779 C29.7093188,90.7237331 30.522511,89.7594322 30.7504843,88.8251201 L18.6154912,88.8251201 C18.8420087,89.7597233 19.6671382,90.7237331 20.7508121,90.9394779" id="path26"></path>
                            <path d="M20.7508121,95.2243863 L28.6151634,95.2243863 C29.7093188,95.0068945 30.522511,94.0428847 30.7504843,93.1097373 L18.6154912,93.1097373 C18.8420087,94.0431759 19.6671382,95.0068945 20.7508121,95.2243863" id="path28"></path>
                            <path d="M0.291153654,84.6799655 C0.527570421,85.6020491 1.32591374,86.5445135 2.42123379,86.7806391 L5.73165083,86.7806391 L5.90051995,86.8473133 L5.90051995,95.2008028 L7.96771089,95.2008028 L7.96771089,86.8473133 L8.155505,86.7806391 L11.4688336,86.7806391 C12.5763821,86.4953086 13.3575473,85.6020491 13.5898879,84.6799655 L13.5898879,84.6595848 L0.291153654,84.6595848 L0.291153654,84.6799655" id="path32"></path>
                            <path d="M40.8634153,73.8080335 L51.1923823,15.7173477 C61.0377431,15.7173477 64.143188,16.7969454 64.5915646,21.203556 C64.5915646,21.203556 71.1960941,18.7409784 74.5271831,13.7395409 C61.528337,7.71615413 48.4674753,7.44450777 48.4674753,7.44450777 L40.8462372,16.7270686 L40.8634153,16.725904 L33.2421773,7.44305201 C33.2421773,7.44305201 20.1810244,7.71498952 7.18392525,13.7383763 C10.5121027,18.7398138 17.1192525,21.2023914 17.1192525,21.2023914 C17.5702495,16.7954897 20.6719094,15.7158919 30.4511783,15.7089042 L40.8634153,73.8080335" id="path35"></path>
                            <path d="M40.8593392,4.76327378 C51.3670745,4.68291537 63.3943408,6.38878463 75.7066465,11.7550376 C77.352247,8.7931315 77.7752932,7.48410467 77.7752932,7.48410467 C64.3161333,2.1591955 51.7118005,0.336864777 40.8578834,0.291153654 C30.0045486,0.336864777 17.4007981,2.15948665 3.94338509,7.48410467 C3.94338509,7.48410467 4.54374392,9.09651361 6.01057603,11.7550376 C18.3205525,6.38878463 30.3498569,4.68291537 40.8578834,4.76327378 L40.8593392,4.76327378" id="path37"></path>
                        </g>
                    </g>
                </g>
            </g>
        </g>
    </g>
</svg>