<?xml version="1.0" encoding="UTF-8"?>
<svg width="133px" height="91px" viewBox="0 0 133 91" version="1.1" xmlns="http://www.w3.org/2000/svg" xmlns:xlink="http://www.w3.org/1999/xlink">
    <!-- Generator: Sketch 48.2 (47327) - http://www.bohemiancoding.com/sketch -->
    <title>best-buy</title>
    <desc>Created with Sketch.</desc>
    <defs></defs>
    <g id="Monitoring" stroke="none" stroke-width="1" fill="none" fill-rule="evenodd" transform="translate(-445.000000, -5884.000000)">
        <g id="clients" transform="translate(0.000000, 5563.000000)" fill="#FFFFFF">
            <g id="Group-48" transform="translate(423.000000, 190.000000)">
                <g id="Group-47" transform="translate(0.000000, 113.000000)">
                    <g id="Group-25" transform="translate(0.000000, 1.000000)">
                        <g id="Best_Buy_Logo" transform="translate(22.000000, 17.000000)">
                            <g id="best-buy">
                                <path d="M83.2440296,48.8265514 L83.2497087,48.7670051 L71.1487392,47.6114618 L69.8300763,61.4297557 C69.8300763,61.4297557 70.0096094,65.0381845 65.992028,64.656444 C61.9801997,64.269458 63.1684008,60.911631 63.1684008,60.911631 L64.4494987,46.9136349 L52.3976005,45.8234071 L50.8768995,61.7676705 C50.8768995,61.7676705 50.6751997,71.1208193 65.4693346,72.533056 C80.2682074,73.9449542 81.6963499,65.0544288 81.6963499,65.0544288 L83.2309079,48.9641366 L93.6392761,64.1711463 L92.6473601,74.604201 L104.971688,75.7817417 L105.985771,65.1745687 L119.089655,52.1899784 L105.042757,50.854902 L100.583873,56.9052176 L97.1280725,50.0971743 L83.2440296,48.8265514 Z M3.24107125,21.4248448 L30.8879809,0.0463638677 L132.946191,9.84741476 L125.390742,90.3195216 L22.984126,80.5188092 L0.0412875318,53.8907201 L3.24107125,21.4248448 Z M11.8095878,39.3314504 C11.9623855,37.7127761 10.7795992,36.2788804 9.16617048,36.1264211 C7.55291094,35.9737926 6.11901527,37.1565789 5.96097201,38.7701768 C5.80851272,40.3834364 6.99112977,41.8224084 8.60472774,41.9750369 C10.2239097,42.1278346 11.6574669,40.9448791 11.8095878,39.3314504 Z M50.4623321,17.6309606 L48.222145,42.2965382 L71.5575534,44.5311412 L72.1897265,37.9359656 L61.5224835,36.916299 L61.7622557,34.3928524 L71.2250534,35.2923791 L71.8355674,28.9308842 L62.3181145,28.020528 L62.5306438,25.7855865 L72.9636985,26.7830865 L73.6290369,19.844243 L50.4623321,17.6309606 Z M77.0846679,36.3770229 L72.702098,42.8419059 C72.702098,42.8419059 78.2075534,45.8015789 85.8447316,46.4662405 C93.4704033,47.1425776 99.0631718,44.956369 100.856641,41.3046221 C102.655187,37.6633664 100.501975,33.5203995 96.9700293,32.3706094 C93.4325,31.2257265 87.2999478,30.0048677 87.9377048,28.788916 C88.575631,27.579056 92.4241705,27.8296578 94.7623308,28.8054987 C97.1008295,29.7813397 97.7387557,30.3644415 97.7387557,30.3644415 L101.761583,24.6139682 C101.761583,24.6139682 97.4878155,21.4852532 89.4908944,21.0109542 C81.4892354,20.5366552 75.6076234,24.5430687 75.1988092,28.2658842 C74.7847494,31.9890382 77.1773957,34.1857379 80.8134059,35.5160763 C80.8134059,35.5160763 83.8984644,36.5079924 86.2259644,37.0149491 C88.5480496,37.5274898 90.0252634,39.0590204 87.2508766,39.6040496 C84.4759822,40.1487405 78.768827,38.0995929 77.0846679,36.3770229 Z M108.923785,31.3732786 L107.501396,48.0751005 L119.95094,49.2626247 L121.542541,32.5777239 L128.367167,33.2318944 L129.130648,25.2024847 L102.867885,22.6952824 L102.104405,30.7246921 L108.923785,31.3732786 Z M44.6189618,57.2431323 C44.6189618,57.2431323 49.6941132,56.2454631 49.5631438,51.0616781 C49.4326819,45.8726476 39.0754338,44.5861349 39.0754338,44.5861349 L21.9815496,42.8906387 L19.6484656,67.6435293 C19.6484656,67.6435293 33.2921336,69.0770865 37.2655509,69.3984186 C41.2394758,69.7148435 49.2467188,69.3765903 50.0372735,64.2579517 C50.8222443,59.1349135 44.6189618,57.2431323 44.6189618,57.2431323 Z M42.1224198,28.8819822 C42.1224198,28.8819822 47.1975712,27.8844822 47.0666018,22.700528 C46.9358015,17.5170814 36.5788919,16.2192316 36.5788919,16.2192316 L19.4792545,14.529827 L17.1519237,39.2823791 C17.1519237,39.2823791 30.7955916,40.7159364 34.7637634,41.0323613 C38.7373499,41.3592774 46.7449313,41.0157786 47.535486,35.8973092 C48.3255331,30.7735941 42.1224198,28.8819822 42.1224198,28.8819822 Z M119.182552,54.6210356 C119.078826,55.7166781 119.885625,56.6926883 120.981267,56.8016603 C122.07691,56.9052176 123.058504,56.0984186 123.161723,55.0027761 C123.265449,53.9067952 122.453235,52.9260471 121.357593,52.8224898 C120.26195,52.7191018 119.286279,53.5253931 119.182552,54.6210356 Z" id="Combined-Shape"></path>
                                <path d="M120.512383,53.6020458 L121.346425,53.6834364 C121.891793,53.7325076 122.163884,53.9506209 122.120566,54.4249198 C122.082494,54.8120751 121.842552,54.9757023 121.47198,54.9757023 L121.984182,56.0166896 L121.547955,55.9781094 L121.062996,54.9481209 L120.80681,54.9262926 L120.713913,55.8965496 L120.294439,55.8581387 L120.512383,53.6020458 Z M120.839637,54.6046221 L121.204795,54.6432023 C121.455397,54.6651997 121.673172,54.6538626 121.700922,54.3486056 C121.728165,54.0871743 121.493469,54.0218588 121.275356,53.9998613 L120.899369,53.9617888 L120.839637,54.6046221 Z" id="Combined-Shape"></path>
                                <path d="M32.9486349,50.1570751 C32.9486349,50.1570751 38.1980738,49.6719466 37.9090611,52.1353232 C37.6144644,54.5937926 32.6269644,53.4817366 32.6269644,53.4817366 L32.9486349,50.1570751 Z" id="Path"></path>
                                <path d="M31.8529924,62.7809071 L32.1254224,58.7585878 C32.1254224,58.7585878 38.6881094,58.5132316 38.4755802,61.331444 C38.2630509,64.1496565 31.8529924,62.7809071 31.8529924,62.7809071 Z" id="Path"></path>
                                <path d="M30.5556501,21.8612405 C30.5556501,21.8612405 35.8105038,21.3815267 35.5214911,23.839827 C35.227402,26.2981272 30.2393944,25.1860712 30.2393944,25.1860712 L30.5556501,21.8612405 Z" id="Path"></path>
                                <path d="M29.4654224,34.4909949 L29.7378524,30.462584 C29.7378524,30.462584 36.2954631,30.2229809 36.0885178,33.0410242 C35.8759885,35.8538219 29.4654224,34.4909949 29.4654224,34.4909949 Z" id="Path"></path>
                            </g>
                        </g>
                    </g>
                </g>
            </g>
        </g>
    </g>
</svg>