<?xml version="1.0" encoding="UTF-8"?>
<svg width="151px" height="60px" viewBox="0 0 151 60" version="1.1" xmlns="http://www.w3.org/2000/svg" xmlns:xlink="http://www.w3.org/1999/xlink">
    <!-- Generator: Sketch 48.2 (47327) - http://www.bohemiancoding.com/sketch -->
    <title>IBM_logo</title>
    <desc>Created with Sketch.</desc>
    <defs></defs>
    <g id="Monitoring" stroke="none" stroke-width="1" fill="none" fill-rule="evenodd" transform="translate(-1033.000000, -6082.000000)">
        <g id="clients" transform="translate(0.000000, 5563.000000)" fill="#FFFFFF" fill-rule="nonzero">
            <g id="Group-48" transform="translate(423.000000, 190.000000)">
                <g id="Group-47" transform="translate(0.000000, 113.000000)">
                    <g id="Group-32" transform="translate(597.333333, 184.000000)">
                        <g id="IBM_logo" transform="translate(13.000000, 32.000000)">
                            <path d="M0,0 L0,4.10505 L29.197266,4.10505 L29.197266,0 L0,0 Z M33.3339855,0 L33.3339855,4.10505 L74.9414055,4.10505 C74.9414055,4.10505 70.6914375,0 65.0625,0 L33.3339855,0 Z M83.103516,0 L83.103516,4.10505 L108.275391,4.10505 L106.78125,0 L83.103516,0 Z M126.322266,0 L124.828125,4.10505 L149.771484,4.10505 L149.771484,0 L126.322266,0 Z M0,7.9833315 L0,12.0883803 L29.197266,12.0883803 L29.197266,7.9833315 L0,7.9833315 Z M33.3339855,7.98914625 L33.3339855,12.0883803 L79.769532,12.0883803 C79.769532,12.0883803 79.2271875,8.9289579 78.28125,7.98914625 L33.3339855,7.98914625 Z M83.103516,7.98914625 L83.103516,12.0883803 L111.035157,12.0883803 L109.652343,7.98914625 L83.103516,7.98914625 Z M123.333984,7.98914625 L121.951172,12.0883803 L149.771484,12.0883803 L149.771484,7.98914625 L123.333984,7.98914625 Z M8.3906244,15.966663 L8.3906244,20.0775255 L21.0351555,20.0775255 L21.0351555,15.966663 L8.3906244,15.966663 Z M41.7246105,15.966663 L41.7246105,20.0775255 L54.3691395,20.0775255 L54.3691395,15.966663 L41.7246105,15.966663 Z M66.6679695,15.966663 L66.6679695,20.0775255 L79.3125,20.0775255 C79.3125015,20.0775255 80.115234,17.9065725 80.115234,15.966663 L66.6679695,15.966663 Z M91.494141,15.966663 L91.494141,20.0775255 L113.91211,20.0775255 L112.417969,15.966663 L91.494141,15.966663 Z M120.580078,15.966663 L119.080078,20.0775255 L141.609375,20.0775255 L141.609375,15.966663 L120.580078,15.966663 Z M8.3906244,23.95581 L8.3906244,28.060857 L21.0351555,28.060857 L21.0351555,23.95581 L8.3906244,23.95581 Z M41.7246105,23.95581 L41.7246105,28.060857 L74.0214855,28.060857 C74.021487,28.0608555 76.7231715,25.954515 77.583984,23.95581 L41.7246105,23.95581 Z M91.494141,23.95581 L91.494141,28.060857 L104.138672,28.060857 L104.138672,25.7757525 L104.941406,28.060857 L128.103516,28.060857 L128.964845,25.7757525 L128.964845,28.060857 L141.609375,28.060857 L141.609375,23.95581 L117.873047,23.95581 L116.613281,27.4328895 L115.347657,23.95581 L91.494141,23.95581 Z M8.3906244,31.9391415 L8.3906244,36.0441885 L21.0351555,36.0441885 L21.0351555,31.9391415 L8.3906244,31.9391415 Z M41.7246105,31.9391415 L41.7246105,36.0441885 L77.583984,36.0441885 C76.7229855,34.0519965 74.0214855,31.9391415 74.0214855,31.9391415 L41.7246105,31.9391415 Z M91.494141,31.9391415 L91.494141,36.0441885 L104.138671,36.0441885 L104.138671,31.9391415 L91.494141,31.9391415 Z M106.435547,31.9391415 L107.964845,36.0441885 L125.332032,36.0441885 L126.785157,31.9391415 L106.435547,31.9391415 Z M128.964845,31.9391415 L128.964845,36.0441885 L141.609375,36.0441885 L141.609375,31.9391415 L128.964845,31.9391415 Z M8.3906244,39.922473 L8.3906244,44.02752 L21.0351555,44.02752 L21.0351555,39.922473 L8.3906244,39.922473 Z M41.7246105,39.922473 L41.7246105,44.02752 L54.3691395,44.02752 L54.3691395,39.922473 L41.7246105,39.922473 Z M66.6679695,39.922473 L66.6679695,44.02752 L80.115234,44.02752 C80.115237,42.0902205 79.3125,39.922473 79.3125,39.922473 L66.6679695,39.922473 Z M91.494141,39.922473 L91.494141,44.02752 L104.138671,44.02752 L104.138671,39.922473 L91.494141,39.922473 Z M109.30664,39.922473 L110.789063,44.02752 L122.43164,44.02752 L123.925781,39.922473 L109.30664,39.922473 Z M128.964845,39.922473 L128.964845,44.02752 L141.609375,44.02752 L141.609375,39.922473 L128.964845,39.922473 Z M0.2285145,47.9058045 L0.2285145,52.016667 L29.4257805,52.016667 L29.4257805,47.9058045 L0.2285145,47.9058045 Z M33.3339855,47.9058045 L33.3339855,52.016667 L78.28125,52.016667 C79.2271875,51.0753675 79.769532,47.9058045 79.769532,47.9058045 L33.3339855,47.9058045 Z M83.3320305,47.9058045 L83.3320305,52.016667 L104.138671,52.016667 L104.138671,47.9058045 L83.3320305,47.9058045 Z M112.183593,47.9058045 L113.707031,52.016667 L119.630859,52.016667 L121.060547,47.9058045 L112.183593,47.9058045 Z M128.964844,47.9058045 L128.964844,52.016667 L150,52.016667 L150,47.9058045 L128.964844,47.9058045 Z M0.2285145,55.89495 L0.2285145,60 L29.4257805,60 L29.4257805,55.89495 L0.2285145,55.89495 Z M33.3339855,55.89495 L33.3339855,59.994186 L65.0625,59.994186 C70.691436,59.994183 74.9414055,55.89495 74.9414055,55.89495 L33.3339855,55.89495 Z M83.3320305,55.89495 L83.3320305,60 L104.138671,60 L104.138671,55.89495 L83.3320305,55.89495 Z M115.072266,55.89495 L116.537111,59.988369 L116.789063,59.994186 L118.277345,55.89495 L115.072266,55.89495 Z M128.964844,55.89495 L128.964844,60 L150,60 L150,55.89495 L128.964844,55.89495 Z" id="Shape"></path>
                        </g>
                    </g>
                </g>
            </g>
        </g>
    </g>
</svg>