<?xml version="1.0" encoding="UTF-8"?>
<svg width="150px" height="37px" viewBox="0 0 150 37" version="1.1" xmlns="http://www.w3.org/2000/svg" xmlns:xlink="http://www.w3.org/1999/xlink">
    <!-- Generator: Sketch 48.2 (47327) - http://www.bohemiancoding.com/sketch -->
    <title>PayPal</title>
    <desc>Created with Sketch.</desc>
    <defs></defs>
    <g id="Monitoring" stroke="none" stroke-width="1" fill="none" fill-rule="evenodd" transform="translate(-1034.000000, -5909.000000)">
        <g id="clients" transform="translate(0.000000, 5563.000000)" fill="#FFFFFF" fill-rule="nonzero">
            <g id="Group-48" transform="translate(423.000000, 190.000000)">
                <g id="Group-47" transform="translate(0.000000, 113.000000)">
                    <g id="Group-31" transform="translate(597.333333, 0.000000)">
                        <g id="PayPal" transform="translate(14.000000, 43.000000)">
                            <path d="M55.9004032,8.1641129 L47.6274194,8.1641129 C47.0612903,8.1641129 46.5798387,8.57540323 46.4915323,9.13427419 L43.1455645,30.3483871 C43.0790323,30.7669355 43.4032258,31.1443548 43.8278226,31.1443548 L47.7774194,31.1443548 C48.3435484,31.1443548 48.825,30.7330645 48.9133065,30.1729839 L49.8157258,24.4512097 C49.9028226,23.891129 50.3854839,23.4798387 50.9504032,23.4798387 L53.5693548,23.4798387 C59.0189516,23.4798387 62.1641129,20.8427419 62.9854839,15.6169355 C63.3556452,13.3306452 63.0012097,11.5342742 61.9306452,10.2762097 C60.7548387,8.89475806 58.6693548,8.1641129 55.9004032,8.1641129 Z M56.8548387,15.9120968 C56.4024194,18.8806452 54.1342742,18.8806452 51.941129,18.8806452 L50.6927419,18.8806452 L51.5685484,13.3366935 C51.6205645,13.0016129 51.9108871,12.7548387 52.2495968,12.7548387 L52.8217742,12.7548387 C54.3157258,12.7548387 55.725,12.7548387 56.4532258,13.6064516 C56.8875,14.1145161 57.0205645,14.8693548 56.8548387,15.9120968 Z" id="Shape"></path>
                            <path d="M80.6298387,15.8165323 L76.6681452,15.8165323 C76.3306452,15.8165323 76.0391129,16.0633065 75.9870968,16.3983871 L75.8116935,17.5064516 L75.5346774,17.1048387 C74.6770161,15.8600806 72.7645161,15.4439516 70.8556452,15.4439516 C66.4778226,15.4439516 62.7387097,18.7596774 62.0104839,23.4108871 C61.6318548,25.7310484 62.1701613,27.9495968 63.4862903,29.4967742 C64.6935484,30.9193548 66.4209677,31.5120968 68.4762097,31.5120968 C72.003629,31.5120968 73.9596774,29.2439516 73.9596774,29.2439516 L73.7830645,30.3447581 C73.7165323,30.7657258 74.0407258,31.1431452 74.4629032,31.1431452 L78.0314516,31.1431452 C78.5987903,31.1431452 79.0778226,30.7318548 79.1673387,30.1717742 L81.3084677,16.6125 C81.3762097,16.1951613 81.0532258,15.8165323 80.6298387,15.8165323 Z M75.1076613,23.5270161 C74.7254032,25.7903226 72.9290323,27.3096774 70.6379032,27.3096774 C69.4875,27.3096774 68.5681452,26.9407258 67.9778226,26.2415323 C67.3923387,25.5471774 67.1697581,24.558871 67.3560484,23.4580645 C67.7129032,21.2141129 69.5395161,19.6451613 71.7955645,19.6451613 C72.9205645,19.6451613 73.8350806,20.0189516 74.4375,20.7241935 C75.041129,21.4366935 75.2806452,22.4310484 75.1076613,23.5270161 Z" id="Shape"></path>
                            <path d="M101.729032,15.8165323 L97.7479839,15.8165323 C97.3681452,15.8165323 97.0112903,16.0052419 96.7959677,16.3209677 L91.3052419,24.408871 L88.9778226,16.6366935 C88.8314516,16.1504032 88.3826613,15.8165323 87.8745968,15.8165323 L83.9625,15.8165323 C83.4870968,15.8165323 83.1568548,16.2810484 83.3080645,16.728629 L87.6931452,29.5971774 L83.5705645,35.4169355 C83.246371,35.8754032 83.5729839,36.5056452 84.1330645,36.5056452 L88.1092742,36.5056452 C88.4866935,36.5056452 88.8399194,36.3217742 89.0540323,36.0120968 L102.295161,16.8991935 C102.612097,16.4419355 102.286694,15.8165323 101.729032,15.8165323 Z" id="Shape"></path>
                            <path d="M114.909677,8.1641129 L106.635484,8.1641129 C106.070565,8.1641129 105.589113,8.57540323 105.500806,9.13427419 L102.154839,30.3483871 C102.088306,30.7669355 102.4125,31.1443548 102.834677,31.1443548 L107.080645,31.1443548 C107.475,31.1443548 107.8125,30.8564516 107.874194,30.4645161 L108.82379,24.4512097 C108.910887,23.891129 109.393548,23.4798387 109.958468,23.4798387 L112.57621,23.4798387 C118.027016,23.4798387 121.170968,20.8427419 121.993548,15.6169355 C122.364919,13.3306452 122.008065,11.5342742 120.9375,10.2762097 C119.762903,8.89475806 117.678629,8.1641129 114.909677,8.1641129 Z M115.864113,15.9120968 C115.412903,18.8806452 113.144758,18.8806452 110.950403,18.8806452 L109.703226,18.8806452 L110.580242,13.3366935 C110.632258,13.0016129 110.920161,12.7548387 111.260081,12.7548387 L111.832258,12.7548387 C113.325,12.7548387 114.735484,12.7548387 115.46371,13.6064516 C115.897984,14.1145161 116.029839,14.8693548 115.864113,15.9120968 Z" id="Shape"></path>
                            <path d="M139.637903,15.8165323 L135.678629,15.8165323 C135.33871,15.8165323 135.049597,16.0633065 134.99879,16.3983871 L134.823387,17.5064516 L134.545161,17.1048387 C133.6875,15.8600806 131.77621,15.4439516 129.867339,15.4439516 C125.489516,15.4439516 121.751613,18.7596774 121.023387,23.4108871 C120.645968,25.7310484 121.181855,27.9495968 122.497984,29.4967742 C123.707661,30.9193548 125.432661,31.5120968 127.487903,31.5120968 C131.015323,31.5120968 132.971371,29.2439516 132.971371,29.2439516 L132.794758,30.3447581 C132.728226,30.7657258 133.052419,31.1431452 133.477016,31.1431452 L137.044355,31.1431452 C137.609274,31.1431452 138.090726,30.7318548 138.179032,30.1717742 L140.321371,16.6125 C140.386694,16.1951613 140.0625,15.8165323 139.637903,15.8165323 Z M134.115726,23.5270161 C133.735887,25.7903226 131.937097,27.3096774 129.645968,27.3096774 C128.497984,27.3096774 127.57621,26.9407258 126.985887,26.2415323 C126.400403,25.5471774 126.180242,24.558871 126.364113,23.4580645 C126.723387,21.2141129 128.547581,19.6451613 130.803629,19.6451613 C131.928629,19.6451613 132.843145,20.0189516 133.445565,20.7241935 C134.051613,21.4366935 134.291129,22.4310484 134.115726,23.5270161 Z" id="Shape"></path>
                            <path d="M144.308468,8.74596774 L140.912903,30.3483871 C140.846371,30.7669355 141.170565,31.1443548 141.592742,31.1443548 L145.006452,31.1443548 C145.57379,31.1443548 146.055242,30.7330645 146.142339,30.1729839 L149.490726,8.96008065 C149.557258,8.54153226 149.233065,8.16290323 148.810887,8.16290323 L144.988306,8.16290323 C144.650806,8.1641129 144.360484,8.4108871 144.308468,8.74596774 Z" id="Shape"></path>
                            <path d="M26.7024154,8.77265089 C26.7023981,8.77277955 26.7023808,8.77290821 26.7023634,8.77303688 C26.9133765,8.84434663 27.1171249,8.92155701 27.3136086,9.00507087 C27.1171503,8.92142828 26.9134138,8.84396726 26.7024154,8.77265089 Z M8.17387436,31.2194565 L7.97903226,32.4556452 L0.973790323,32.4556452 C0.376209677,32.4556452 -0.0810483871,31.9209677 0.0120967742,31.3282258 L4.73830645,1.37056452 C4.86169355,0.580645161 5.54274194,0 6.34112903,0 L17.6879032,0 C21.596371,0 24.6508065,0.825 26.3431452,2.75201613 C27.8782258,4.50241935 28.3270161,6.43548387 27.8818548,9.27459677 C27.7867097,9.22444037 27.6895784,9.17596446 27.5904612,9.12916906 C27.6891285,9.17588966 27.7858721,9.22433374 27.8806452,9.27459677 C28.5157258,9.6108871 29.058871,10.0233871 29.4967742,10.5205645 C30.9435484,12.1693548 31.2266129,14.5137097 30.6798387,17.321371 C29.3709677,24.0423387 24.8927419,26.3649194 19.1721774,26.3649194 L18.2891129,26.3649194 C17.5899194,26.3649194 16.9947581,26.8729839 16.8858871,27.5649194 L16.8145161,27.9520161 L15.7028226,35.0068548 L15.6447581,35.3068548 C15.5346774,35.996371 14.9407258,36.5044355 14.2415323,36.5044355 L8.33709677,36.5044355 C7.81451613,36.5044355 7.41532258,36.0375 7.49637097,35.5197581 L7.97903226,32.4556452 L8.17395027,31.2194582 L8.17387436,31.2194565 Z M27.8806452,9.27459677 C27.8467742,9.49112903 27.8080645,9.7125 27.7645161,9.93991935 Z" id="Combined-Shape"></path>
                        </g>
                    </g>
                </g>
            </g>
        </g>
    </g>
</svg>