<?xml version="1.0" encoding="UTF-8"?>
<svg width="99px" height="90px" viewBox="0 0 99 90" version="1.1" xmlns="http://www.w3.org/2000/svg" xmlns:xlink="http://www.w3.org/1999/xlink">
    <!-- Generator: Sketch 48.2 (47327) - http://www.bohemiancoding.com/sketch -->
    <title>diamond (1)</title>
    <desc>Created with Sketch.</desc>
    <defs></defs>
    <g id="Enterprise" stroke="none" stroke-width="1" fill="none" fill-rule="evenodd" transform="translate(-1030.000000, -1442.000000)">
        <g id="benefits" transform="translate(0.000000, 1077.000000)" fill="#7F86F5" fill-rule="nonzero">
            <g id="Group-77" transform="translate(240.000000, 130.000000)">
                <g id="Group-76" transform="translate(0.000000, 195.000000)">
                    <g id="Group-39-Copy" transform="translate(750.000000, 0.000000)">
                        <g id="Group-18">
                            <g id="Group-16">
                                <g id="Group-75">
                                    <g id="diamond" transform="translate(40.000000, 40.000000)">
                                        <g id="diamond-(1)">
                                            <path d="M78.8955319,0.101489362 L17.5750851,0.101489362 L0,25.5912128 L0,26.6453617 L49.0212766,89.8985106 L98.0425532,26.6453617 L98.0425532,25.5569362 L78.8955319,0.101489362 Z M76.4078936,3.10978723 L64.323,23.2506383 L51.7348723,3.10978723 L76.4078936,3.10978723 Z M61.9132979,25.0707447 L36.1290638,25.0707447 L49.0210851,4.44370213 L61.9132979,25.0707447 Z M46.3074894,3.10978723 L33.6931277,23.2925745 L21.0785745,3.10978723 L46.3074894,3.10978723 Z M4.91706383,28.0790426 L9.11144681,28.0790426 L9.11144681,25.0707447 L4.01285106,25.0707447 L18.3031277,4.34508511 L31.257,25.0709362 L12.320234,25.0709362 L12.320234,28.079234 L32.6399362,28.079234 L46.3471277,81.5373191 L4.91706383,28.0790426 Z M49.0210851,79.8541277 L35.7455106,28.0790426 L62.2968511,28.0790426 L49.0210851,79.8541277 Z M88.9309149,25.0709362 L88.9309149,28.079234 L93.1252979,28.079234 L51.6954255,81.5371277 L65.402617,28.0790426 L85.7223191,28.0790426 L85.7223191,25.0707447 L66.7390213,25.0707447 L78.7967234,4.97508511 L93.9125106,25.0709362 L88.9309149,25.0709362 Z" id="Shape"></path>
                                            <rect id="Rectangle-path" transform="translate(26.033886, 47.590372) rotate(-37.871466) translate(-26.033886, -47.590372) " x="24.5297178" y="30.1128191" width="3.00833633" height="34.9551065"></rect>
                                        </g>
                                    </g>
                                </g>
                            </g>
                        </g>
                    </g>
                </g>
            </g>
        </g>
    </g>
</svg>