<?xml version="1.0" encoding="UTF-8"?>
<svg width="93px" height="90px" viewBox="0 0 93 90" version="1.1" xmlns="http://www.w3.org/2000/svg" xmlns:xlink="http://www.w3.org/1999/xlink">
    <!-- Generator: Sketch 48.2 (47327) - http://www.bohemiancoding.com/sketch -->
    <title>loyalty</title>
    <desc>Created with Sketch.</desc>
    <defs></defs>
    <g id="Enterprise" stroke="none" stroke-width="1" fill="none" fill-rule="evenodd" transform="translate(-1030.000000, -1662.000000)">
        <g id="benefits" transform="translate(0.000000, 1077.000000)" fill="#7F86F5" fill-rule="nonzero">
            <g id="Group-77" transform="translate(240.000000, 130.000000)">
                <g id="Group-76" transform="translate(0.000000, 195.000000)">
                    <g id="Group-39-Copy-3" transform="translate(750.000000, 220.000000)">
                        <g id="Group-18">
                            <g id="Group-16">
                                <g id="Group-75">
                                    <g id="loyalty" transform="translate(40.000000, 40.000000)">
                                        <rect id="Rectangle-path" transform="translate(5.016310, 3.273471) rotate(-45.000000) translate(-5.016310, -3.273471) " x="3.55274433" y="0.346339198" width="2.92713193" height="5.85426386"></rect>
                                        <rect id="Rectangle-path" transform="translate(14.673979, 12.931970) rotate(-45.000000) translate(-14.673979, -12.931970) " x="13.2104131" y="10.0048383" width="2.92713193" height="5.85426386"></rect>
                                        <rect id="Rectangle-path" transform="translate(5.015822, 12.932780) rotate(-45.000000) translate(-5.015822, -12.932780) " x="2.08868984" y="11.4692143" width="5.85426386" height="2.92713193"></rect>
                                        <rect id="Rectangle-path" transform="translate(14.675032, 3.272966) rotate(-45.000000) translate(-14.675032, -3.272966) " x="11.7479" y="1.80939985" width="5.85426386" height="2.92713193"></rect>
                                        <rect id="Rectangle-path" x="8.38242" y="6.63966" width="2.92716" height="2.92716"></rect>
                                        <rect id="Rectangle-path" transform="translate(79.232458, 15.016988) rotate(-45.000000) translate(-79.232458, -15.016988) " x="77.7688923" y="12.0898561" width="2.92713193" height="5.85426386"></rect>
                                        <rect id="Rectangle-path" transform="translate(88.893089, 24.676246) rotate(-45.000000) translate(-88.893089, -24.676246) " x="87.4295232" y="21.7491138" width="2.92713193" height="5.85426386"></rect>
                                        <rect id="Rectangle-path" transform="translate(79.233183, 24.676017) rotate(-45.000000) translate(-79.233183, -24.676017) " x="76.3060515" y="23.212451" width="5.85426386" height="2.92713193"></rect>
                                        <rect id="Rectangle-path" transform="translate(88.892149, 15.017781) rotate(-45.000000) translate(-88.892149, -15.017781) " x="85.9650174" y="13.5542153" width="5.85426386" height="2.92713193"></rect>
                                        <rect id="Rectangle-path" x="82.59948" y="18.38412" width="2.92716" height="2.92716"></rect>
                                        <path d="M74.58066,46.4625 L79.01946,41.472 L73.39878,36.24426 L73.95264,35.63802 L68.44464,30.50388 L69.30522,29.59362 L61.36326,22.18698 L60.72066,22.86666 L59.0049,21.27438 C60.02802,20.98368 61.01082,20.53296 61.91964,19.92366 C64.1925,18.39942 65.73564,16.0812 66.26502,13.3965 L66.537,12.01644 L45.52092,6.9993 L43.2792,8.9028 L31.69512,3.57606 L31.0572,4.82976 C29.81628,7.26876 29.59902,10.04508 30.44628,12.64734 C31.03272,14.44896 32.08122,16.01712 33.48,17.22384 L31.7052,18.73098 L25.52868,16.20144 L23.03298,24.02496 L23.04918,27.26496 L17.49798,52.43472 L19.96182,53.57304 L0,81.82764 L2.39076,83.51658 L22.66416,54.82116 L47.47842,66.2841 L53.39196,65.5893 L54.26496,66.89772 L39.9447,69.07536 L27.4113,88.21746 L29.8602,89.8209 L41.67738,71.77266 L56.0583,69.58566 L69.56658,89.83152 L72.00162,88.20684 L54.8316,62.47278 L47.95668,63.28044 L20.86398,50.76468 L21.6702,47.10924 L27.91044,49.2921 L28.87704,46.5291 L22.30524,44.23032 L23.43438,39.11112 L29.66688,41.29128 L30.63348,38.52828 L24.06924,36.2322 L25.5879,29.34684 L32.39892,31.72932 L33.36552,28.96632 L25.97238,26.38026 L25.96302,24.47352 L27.35442,20.11176 L45.21834,27.42786 L41.472,31.76694 L47.23668,37.13058 L45.30978,39.16872 L53.25174,46.57518 L54.23814,45.53172 L60.00588,50.90778 L63.0252,47.60244 L68.79474,52.9686 L72.58284,48.7098 L89.76546,73.16568 L92.16054,71.48286 L74.58066,46.4625 Z M33.22962,11.74104 C32.77188,10.3347 32.7492,8.8569 33.14916,7.46658 L40.81788,10.99278 L35.75106,15.29514 C34.5744,14.4018 33.69654,13.17546 33.22962,11.74104 Z M34.75584,19.97982 L46.28448,10.19088 L62.9919,14.17932 C62.4483,15.52032 61.51806,16.66872 60.28992,17.49258 C59.08122,18.30348 57.69108,18.72666 56.26836,18.73422 L56.09178,18.57024 L54.62262,18.57024 L48.49326,17.7237 L45.3897,24.33474 L34.75584,19.97982 Z M50.77368,20.99268 L49.49982,22.46814 L50.22774,20.91726 L50.77368,20.99268 Z M45.53028,31.545 L54.20484,21.49776 L54.40968,21.49776 C54.62064,21.53556 54.8316,21.56616 55.04274,21.59082 L58.6368,24.92622 L49.23558,34.99254 L45.53028,31.545 Z M53.06778,42.40152 L49.46202,39.03894 L49.6467,38.84112 L61.4934,26.31096 L64.88028,29.46942 L53.06778,42.40152 Z M60.8814,45.60876 L59.83848,46.7505 L56.24874,43.40448 L66.43422,32.6313 L69.66972,35.64702 L60.84198,45.57186 L60.8814,45.60876 Z M68.5962,48.78666 L64.99908,45.44082 L71.42508,38.40588 L74.93004,41.66586 L68.5962,48.78666 Z" id="Shape"></path>
                                    </g>
                                </g>
                            </g>
                        </g>
                    </g>
                </g>
            </g>
        </g>
    </g>
</svg>