<?xml version="1.0" encoding="UTF-8"?>
<svg width="95px" height="90px" viewBox="0 0 95 90" version="1.1" xmlns="http://www.w3.org/2000/svg" xmlns:xlink="http://www.w3.org/1999/xlink">
    <!-- Generator: Sketch 48.2 (47327) - http://www.bohemiancoding.com/sketch -->
    <title>analytics</title>
    <desc>Created with Sketch.</desc>
    <defs></defs>
    <g id="Enterprise" stroke="none" stroke-width="1" fill="none" fill-rule="evenodd" transform="translate(-280.000000, -1877.000000)">
        <g id="benefits" transform="translate(0.000000, 1077.000000)" fill="#7F86F5" fill-rule="nonzero">
            <g id="Group-77" transform="translate(240.000000, 130.000000)">
                <g id="Group-76" transform="translate(0.000000, 195.000000)">
                    <g id="Group-39-Copy-5" transform="translate(0.000000, 440.000000)">
                        <g id="Group-18">
                            <g id="Group-16">
                                <g id="Group-75">
                                    <g id="analytics" transform="translate(40.000000, 35.000000)">
                                        <polygon id="Shape" points="89.6593648 31.7067418 85.8979918 16.3067828 72.05625 51.4200615 70.602418 48.871291 68.0914549 50.3035451 72.5337295 58.0907582 85.2495492 25.8342418 87.3898156 34.5974385 94.4262295 34.5974385 94.4262295 31.7067418"></polygon>
                                        <polygon id="Shape" points="59.1707582 29.9417828 53.3146721 37.2623975 49.9389344 31.3546721 47.4290779 32.7887705 52.9148361 42.3888934 58.8620287 34.9552254 62.3244467 40.581332 64.7859836 39.0664549"></polygon>
                                        <polygon id="Shape" points="41.5370287 16.4908402 37.3356148 22.1340984 29.411373 0.0407581967 14.4798566 47.999877 6.81915984 31.7067418 0 31.7067418 0 34.5974385 4.98411885 34.5974385 15.0283402 55.9611885 29.6050205 9.1427459 36.434877 28.1847541 41.0859221 21.9369467 41.7109426 23.1526844 44.2818443 21.8312705"></polygon>
                                        <path d="M65.8069672,26.3956352 C60.6411885,21.2302254 52.236332,21.2302254 47.0707377,26.3956352 C41.9053279,31.5615984 41.9053279,39.9664549 47.0707377,45.1322336 C49.5730328,47.6345287 52.900082,49.0127459 56.4390369,49.0127459 C59.9779918,49.0127459 63.3048566,47.6343443 65.8071516,45.1320492 C68.3094467,42.6297541 69.6876639,39.3027049 69.6876639,35.76375 C69.6874795,32.2249795 68.3094467,28.8979303 65.8069672,26.3956352 Z M63.7631557,43.0878689 C61.8067623,45.0442623 59.2056148,46.1218648 56.4390369,46.1218648 C53.672459,46.1218648 51.071127,45.0442623 49.114918,43.0878689 C45.0763525,39.0493033 45.0763525,32.4781967 49.114918,28.4394467 C51.1345697,26.4201639 53.78625,25.4104303 56.4390369,25.4104303 C59.0912705,25.4104303 61.7442418,26.4201639 63.7631557,28.4394467 C67.8017213,32.4780123 67.8017213,39.0493033 63.7631557,43.0878689 Z" id="Shape"></path>
                                        <path d="M68.9368648,23.2657377 C65.5985656,19.9274385 61.1599795,18.0890779 56.4388525,18.0890779 C51.7177254,18.0890779 47.2791393,19.9274385 43.9408402,23.2657377 C40.6023566,26.6042213 38.7639959,31.042623 38.7639959,35.76375 C38.7639959,39.9994672 40.2480738,44.0050205 42.9631967,47.1952254 L40.811127,49.3472951 L42.8549385,51.391291 L45.0070082,49.2392213 C48.1972131,51.9543443 52.2029508,53.4382377 56.4384836,53.4382377 C61.1597951,53.4384221 65.5983811,51.6000615 68.9366803,48.2617623 C75.8283197,41.3703074 75.8283197,30.1571926 68.9368648,23.2657377 Z M66.8932377,46.217582 C64.1008402,49.0101639 60.3881557,50.5479098 56.4390369,50.5479098 C52.489918,50.5479098 48.777418,49.0103484 45.9848361,46.217582 C43.1922541,43.4251844 41.6545082,39.7126844 41.6545082,35.7635656 C41.6545082,31.8146311 43.1922541,28.1019467 45.9848361,25.3095492 C48.7772336,22.5169672 52.489918,20.9792213 56.4390369,20.9792213 C60.3881557,20.9792213 64.1006557,22.5167828 66.8932377,25.3095492 C72.6574795,31.0739754 72.6574795,40.4533402 66.8932377,46.217582 Z" id="Shape"></path>
                                        <rect id="Rectangle-path" transform="translate(39.743405, 52.455312) rotate(-45.000000) translate(-39.743405, -52.455312) " x="38.2982551" y="48.0291253" width="2.89030015" height="8.85237412"></rect>
                                        <path d="M33.4656148,50.3905943 L31.4218033,52.4347746 L32.4863115,53.4990984 L10.577582,75.4080123 L16.7944057,81.6250205 L38.7029508,59.7164754 L39.7676434,60.7809836 L41.8114549,58.7369877 L33.4656148,50.3905943 Z M16.7945902,77.5372131 L14.6655738,75.4080123 L17.8378893,72.2356967 L19.9669057,74.3648975 L16.7945902,77.5372131 Z M22.0109016,72.3209016 L19.8818852,70.1918852 L34.5303074,55.5434631 L36.6591393,57.6724795 L22.0109016,72.3209016 Z" id="Shape"></path>
                                        <path d="M62.3511885,66.4129918 L50.1941803,59.4660246 L50.1941803,89.9590574 L94.396168,89.9590574 L94.396168,66.4129918 L62.3511885,66.4129918 Z M91.5056557,87.0689139 L53.0846926,87.0689139 L53.0846926,64.4471926 L61.5836066,69.3035041 L91.5054713,69.3035041 L91.5056557,87.0689139 Z" id="Shape"></path>
                                        <rect id="Rectangle-path" x="57.6191803" y="73.1392008" width="16.1872746" height="2.8905123"></rect>
                                        <rect id="Rectangle-path" x="57.6191803" y="77.571332" width="5.78120902" height="2.8905123"></rect>
                                        <rect id="Rectangle-path" x="66.4838115" y="77.571332" width="13.1040369" height="2.8905123"></rect>
                                        <rect id="Rectangle-path" x="57.6191803" y="81.8109221" width="2.8905123" height="2.8905123"></rect>
                                        <rect id="Rectangle-path" x="63.4003893" y="81.8109221" width="3.0832377" height="2.8905123"></rect>
                                        <rect id="Rectangle-path" x="69.3743238" y="81.8109221" width="2.8905123" height="2.8905123"></rect>
                                        <rect id="Rectangle-path" x="75.1555328" y="81.8109221" width="3.0832377" height="2.8905123"></rect>
                                        <rect id="Rectangle-path" x="81.1294672" y="81.8109221" width="2.8905123" height="2.8905123"></rect>
                                    </g>
                                </g>
                            </g>
                        </g>
                    </g>
                </g>
            </g>
        </g>
    </g>
</svg>