<?xml version="1.0" encoding="UTF-8"?>
<svg width="90px" height="90px" viewBox="0 0 90 90" version="1.1" xmlns="http://www.w3.org/2000/svg" xmlns:xlink="http://www.w3.org/1999/xlink">
    <!-- Generator: Sketch 48.2 (47327) - http://www.bohemiancoding.com/sketch -->
    <title>Shape</title>
    <desc>Created with Sketch.</desc>
    <defs></defs>
    <g id="Enterprise" stroke="none" stroke-width="1" fill="none" fill-rule="evenodd" transform="translate(-1030.000000, -1882.000000)">
        <g id="benefits" transform="translate(0.000000, 1077.000000)" fill="#7F86F5" fill-rule="nonzero">
            <g id="Group-77" transform="translate(240.000000, 130.000000)">
                <g id="Group-76" transform="translate(0.000000, 195.000000)">
                    <g id="Group-39-Copy-4" transform="translate(750.000000, 440.000000)">
                        <g id="Group-18">
                            <g id="Group-16">
                                <g id="Group-75">
                                    <g id="graph" transform="translate(40.000000, 40.000000)">
                                        <path d="M88.59375,84.375 L7.85619141,84.375 L17.6909766,75.4342383 C18.2858203,75.7550391 18.9657422,75.9375 19.6875,75.9375 C21.1213477,75.9375 22.3897852,75.2178516 23.1523242,74.1213281 L30.9501562,76.2479297 C31.1097656,78.4295508 32.9345508,80.15625 35.15625,80.15625 C37.4825391,80.15625 39.375,78.2636133 39.375,75.9375 C39.375,75.2037891 39.1863867,74.5134961 38.8555664,73.9117969 L48.3282422,63.324668 L50.1496875,66.2668945 C49.5680273,66.9902344 49.21875,67.9079883 49.21875,68.90625 C49.21875,71.2323633 51.1112109,73.125 53.4375,73.125 C54.9036914,73.125 56.1969141,72.372832 56.953125,71.2346484 L77.3630859,76.3370508 C77.5652344,78.4764844 79.3710352,80.15625 81.5625,80.15625 C83.8887891,80.15625 85.78125,78.2636133 85.78125,75.9375 C85.78125,73.6113867 83.8887891,71.71875 81.5625,71.71875 C80.0963086,71.71875 78.8030859,72.470918 78.046875,73.6091016 L57.6369141,68.5066992 C57.4347656,66.3672656 55.6289648,64.6875 53.4375,64.6875 C53.1295312,64.6875 52.8292969,64.7216016 52.5399609,64.7845313 L50.283457,61.1395313 L57.4588477,53.1200391 C57.9534961,53.3241211 58.4950781,53.4375 59.0625,53.4375 C61.3887891,53.4375 63.28125,51.5448633 63.28125,49.21875 C63.28125,47.9482031 62.7159375,46.8080859 61.8245508,46.0339453 L74.3860547,14.0588086 C74.4343945,14.0603906 74.4825586,14.0625 74.53125,14.0625 C76.8575391,14.0625 78.75,12.1698633 78.75,9.84375 C78.75,7.51763672 76.8575391,5.625 74.53125,5.625 C72.2049609,5.625 70.3125,7.51763672 70.3125,9.84375 C70.3125,11.1142969 70.8778125,12.2544141 71.7691992,13.0285547 L59.2076953,45.0036914 C59.1593555,45.0021094 59.1111914,45 59.0625,45 C56.7362109,45 54.84375,46.8926367 54.84375,49.21875 C54.84375,49.9524609 55.0323633,50.6427539 55.3631836,51.2444531 L36.7599023,72.0362109 C36.2652539,71.8321289 35.7238477,71.71875 35.15625,71.71875 C33.7222266,71.71875 32.4539648,72.4383984 31.69125,73.5350977 L23.8935938,71.4084961 C23.7339844,69.2266992 21.9091992,67.5 19.6875,67.5 C17.3612109,67.5 15.46875,69.3926367 15.46875,71.71875 C15.46875,72.298125 15.5863477,72.8506055 15.7985156,73.3535156 L5.625,82.6022461 L5.625,45.64125 L18.2842383,50.5102148 C18.2831836,50.5485352 18.28125,50.5865039 18.28125,50.625 C18.28125,52.9511133 20.1737109,54.84375 22.5,54.84375 C24.8262891,54.84375 26.71875,52.9511133 26.71875,50.625 C26.71875,50.0623242 26.6071289,49.5254883 26.4063867,49.0341797 L33.1189453,43.0676367 C33.7232812,43.4025 34.4176172,43.59375 35.15625,43.59375 C35.4642188,43.59375 35.7644531,43.5596484 36.0537891,43.4967187 L44.4065625,56.9896875 C44.6726953,57.4194727 45.1327148,57.6558984 45.6036328,57.6558984 C45.8562305,57.6558984 46.1119922,57.5878711 46.3424414,57.4451367 C47.0026758,57.0364453 47.2067578,56.169668 46.7978906,55.5092578 L38.4438867,42.0143555 C39.0257227,41.2910156 39.375,40.3732617 39.375,39.375 C39.375,37.0488867 37.4825391,35.15625 35.15625,35.15625 C32.8299609,35.15625 30.9375,37.0488867 30.9375,39.375 C30.9375,39.9376758 31.0491211,40.4745117 31.2498633,40.9658203 L24.5373047,46.9323633 C23.9329687,46.5975 23.238457,46.40625 22.5,46.40625 C21.2185547,46.40625 20.0698242,46.9812305 19.2955078,47.8858008 L5.625,42.6280078 L5.625,1.40625 C5.625,0.629648437 4.99535156,0 4.21875,0 C3.44214844,0 2.8125,0.629648437 2.8125,1.40625 L2.8125,8.4375 L1.40625,8.4375 C0.629648437,8.4375 0,9.06714844 0,9.84375 C0,10.6203516 0.629648437,11.25 1.40625,11.25 L2.8125,11.25 L2.8125,16.875 L1.40625,16.875 C0.629648437,16.875 0,17.5046484 0,18.28125 C0,19.0578516 0.629648437,19.6875 1.40625,19.6875 L2.8125,19.6875 L2.8125,25.3125 L1.40625,25.3125 C0.629648437,25.3125 0,25.9421484 0,26.71875 C0,27.4953516 0.629648437,28.125 1.40625,28.125 L2.8125,28.125 L2.8125,33.75 L1.40625,33.75 C0.629648437,33.75 0,34.3796484 0,35.15625 C0,35.9328516 0.629648437,36.5625 1.40625,36.5625 L2.8125,36.5625 L2.8125,42.1875 L1.40625,42.1875 C0.629648437,42.1875 0,42.8171484 0,43.59375 C0,44.3703516 0.629648437,45 1.40625,45 L2.8125,45 L2.8125,50.625 L1.40625,50.625 C0.629648437,50.625 0,51.2546484 0,52.03125 C0,52.8078516 0.629648437,53.4375 1.40625,53.4375 L2.8125,53.4375 L2.8125,59.0625 L1.40625,59.0625 C0.629648437,59.0625 0,59.6921484 0,60.46875 C0,61.2453516 0.629648437,61.875 1.40625,61.875 L2.8125,61.875 L2.8125,67.5 L1.40625,67.5 C0.629648437,67.5 0,68.1296484 0,68.90625 C0,69.6828516 0.629648437,70.3125 1.40625,70.3125 L2.8125,70.3125 L2.8125,75.9375 L1.40625,75.9375 C0.629648437,75.9375 0,76.5671484 0,77.34375 C0,78.1203516 0.629648437,78.75 1.40625,78.75 L2.8125,78.75 L2.8125,84.375 L1.40625,84.375 C0.629648437,84.375 0,85.0046484 0,85.78125 C0,86.5578516 0.629648437,87.1875 1.40625,87.1875 L2.8125,87.1875 L2.8125,88.59375 C2.8125,89.3703516 3.44214844,90 4.21875,90 C4.99535156,90 5.625,89.3703516 5.625,88.59375 L5.625,87.1875 L11.25,87.1875 L11.25,88.59375 C11.25,89.3703516 11.8796484,90 12.65625,90 C13.4328516,90 14.0625,89.3703516 14.0625,88.59375 L14.0625,87.1875 L19.6875,87.1875 L19.6875,88.59375 C19.6875,89.3703516 20.3171484,90 21.09375,90 C21.8703516,90 22.5,89.3703516 22.5,88.59375 L22.5,87.1875 L28.125,87.1875 L28.125,88.59375 C28.125,89.3703516 28.7546484,90 29.53125,90 C30.3078516,90 30.9375,89.3703516 30.9375,88.59375 L30.9375,87.1875 L36.5625,87.1875 L36.5625,88.59375 C36.5625,89.3703516 37.1921484,90 37.96875,90 C38.7453516,90 39.375,89.3703516 39.375,88.59375 L39.375,87.1875 L45,87.1875 L45,88.59375 C45,89.3703516 45.6296484,90 46.40625,90 C47.1828516,90 47.8125,89.3703516 47.8125,88.59375 L47.8125,87.1875 L53.4375,87.1875 L53.4375,88.59375 C53.4375,89.3703516 54.0671484,90 54.84375,90 C55.6203516,90 56.25,89.3703516 56.25,88.59375 L56.25,87.1875 L61.875,87.1875 L61.875,88.59375 C61.875,89.3703516 62.5046484,90 63.28125,90 C64.0578516,90 64.6875,89.3703516 64.6875,88.59375 L64.6875,87.1875 L70.3125,87.1875 L70.3125,88.59375 C70.3125,89.3703516 70.9421484,90 71.71875,90 C72.4953516,90 73.125,89.3703516 73.125,88.59375 L73.125,87.1875 L78.75,87.1875 L78.75,88.59375 C78.75,89.3703516 79.3796484,90 80.15625,90 C80.9328516,90 81.5625,89.3703516 81.5625,88.59375 L81.5625,87.1875 L88.59375,87.1875 C89.3703516,87.1875 90,86.5578516 90,85.78125 C90,85.0046484 89.3703516,84.375 88.59375,84.375 Z M81.5625,74.53125 C82.3378711,74.53125 82.96875,75.1621289 82.96875,75.9375 C82.96875,76.7128711 82.3378711,77.34375 81.5625,77.34375 C80.7871289,77.34375 80.15625,76.7128711 80.15625,75.9375 C80.15625,75.1621289 80.7871289,74.53125 81.5625,74.53125 Z M54.84375,68.90625 C54.84375,69.6816211 54.2128711,70.3125 53.4375,70.3125 C52.6621289,70.3125 52.03125,69.6816211 52.03125,68.90625 C52.03125,68.1308789 52.6621289,67.5 53.4375,67.5 C54.2128711,67.5 54.84375,68.1308789 54.84375,68.90625 Z M74.53125,8.4375 C75.3066211,8.4375 75.9375,9.06837891 75.9375,9.84375 C75.9375,10.6191211 75.3066211,11.25 74.53125,11.25 C73.7558789,11.25 73.125,10.6191211 73.125,9.84375 C73.125,9.06837891 73.7558789,8.4375 74.53125,8.4375 Z M35.15625,37.96875 C35.9316211,37.96875 36.5625,38.5996289 36.5625,39.375 C36.5625,40.1503711 35.9316211,40.78125 35.15625,40.78125 C34.3808789,40.78125 33.75,40.1503711 33.75,39.375 C33.75,38.5996289 34.3808789,37.96875 35.15625,37.96875 Z M22.5,49.21875 C23.2753711,49.21875 23.90625,49.8496289 23.90625,50.625 C23.90625,51.4003711 23.2753711,52.03125 22.5,52.03125 C21.7246289,52.03125 21.09375,51.4003711 21.09375,50.625 C21.09375,49.8496289 21.7246289,49.21875 22.5,49.21875 Z M59.0625,47.8125 C59.8378711,47.8125 60.46875,48.4433789 60.46875,49.21875 C60.46875,49.9941211 59.8378711,50.625 59.0625,50.625 C58.2871289,50.625 57.65625,49.9941211 57.65625,49.21875 C57.65625,48.4433789 58.2871289,47.8125 59.0625,47.8125 Z M35.15625,74.53125 C35.9316211,74.53125 36.5625,75.1621289 36.5625,75.9375 C36.5625,76.7128711 35.9316211,77.34375 35.15625,77.34375 C34.3808789,77.34375 33.75,76.7128711 33.75,75.9375 C33.75,75.1621289 34.3808789,74.53125 35.15625,74.53125 Z M19.6875,70.3125 C20.4628711,70.3125 21.09375,70.9433789 21.09375,71.71875 C21.09375,72.4941211 20.4628711,73.125 19.6875,73.125 C18.9121289,73.125 18.28125,72.4941211 18.28125,71.71875 C18.28125,70.9433789 18.9121289,70.3125 19.6875,70.3125 Z" id="Shape"></path>
                                    </g>
                                </g>
                            </g>
                        </g>
                    </g>
                </g>
            </g>
        </g>
    </g>
</svg>