<?xml version="1.0" encoding="UTF-8"?>
<svg width="440px" height="440px" viewBox="0 0 440 440" version="1.1" xmlns="http://www.w3.org/2000/svg" xmlns:xlink="http://www.w3.org/1999/xlink">
    <!-- Generator: Sketch 48.2 (47327) - http://www.bohemiancoding.com/sketch -->
    <title>Group 83</title>
    <desc>Created with Sketch.</desc>
    <defs>
        <circle id="path-1" cx="200" cy="202" r="200"></circle>
        <filter x="-7.8%" y="-7.8%" width="115.5%" height="115.5%" filterUnits="objectBoundingBox" id="filter-2">
            <feMorphology radius="1" operator="dilate" in="SourceAlpha" result="shadowSpreadOuter1"></feMorphology>
            <feOffset dx="0" dy="0" in="shadowSpreadOuter1" result="shadowOffsetOuter1"></feOffset>
            <feMorphology radius="1" operator="erode" in="SourceAlpha" result="shadowInner"></feMorphology>
            <feOffset dx="0" dy="0" in="shadowInner" result="shadowInner"></feOffset>
            <feComposite in="shadowOffsetOuter1" in2="shadowInner" operator="out" result="shadowOffsetOuter1"></feComposite>
            <feGaussianBlur stdDeviation="10" in="shadowOffsetOuter1" result="shadowBlurOuter1"></feGaussianBlur>
            <feColorMatrix values="0 0 0 0 0.498039216   0 0 0 0 0.525490196   0 0 0 0 0.960784314  0 0 0 1 0" type="matrix" in="shadowBlurOuter1"></feColorMatrix>
        </filter>
        <rect id="path-3" x="0" y="0" width="101" height="102" rx="2"></rect>
        <filter x="-19.8%" y="-9.8%" width="139.6%" height="139.2%" filterUnits="objectBoundingBox" id="filter-4">
            <feOffset dx="0" dy="10" in="SourceAlpha" result="shadowOffsetOuter1"></feOffset>
            <feGaussianBlur stdDeviation="5" in="shadowOffsetOuter1" result="shadowBlurOuter1"></feGaussianBlur>
            <feColorMatrix values="0 0 0 0 0   0 0 0 0 0   0 0 0 0 0  0 0 0 0.25 0" type="matrix" in="shadowBlurOuter1"></feColorMatrix>
        </filter>
        <rect id="path-5" x="0" y="300" width="101" height="102" rx="2"></rect>
        <filter x="-19.8%" y="-9.8%" width="139.6%" height="139.2%" filterUnits="objectBoundingBox" id="filter-6">
            <feOffset dx="0" dy="10" in="SourceAlpha" result="shadowOffsetOuter1"></feOffset>
            <feGaussianBlur stdDeviation="5" in="shadowOffsetOuter1" result="shadowBlurOuter1"></feGaussianBlur>
            <feColorMatrix values="0 0 0 0 0   0 0 0 0 0   0 0 0 0 0  0 0 0 0.25 0" type="matrix" in="shadowBlurOuter1"></feColorMatrix>
        </filter>
        <rect id="path-7" x="299" y="300" width="101" height="102" rx="2"></rect>
        <filter x="-19.8%" y="-9.8%" width="139.6%" height="139.2%" filterUnits="objectBoundingBox" id="filter-8">
            <feOffset dx="0" dy="10" in="SourceAlpha" result="shadowOffsetOuter1"></feOffset>
            <feGaussianBlur stdDeviation="5" in="shadowOffsetOuter1" result="shadowBlurOuter1"></feGaussianBlur>
            <feColorMatrix values="0 0 0 0 0   0 0 0 0 0   0 0 0 0 0  0 0 0 0.25 0" type="matrix" in="shadowBlurOuter1"></feColorMatrix>
        </filter>
        <rect id="path-9" x="299" y="0" width="101" height="102" rx="2"></rect>
        <filter x="-19.8%" y="-9.8%" width="139.6%" height="139.2%" filterUnits="objectBoundingBox" id="filter-10">
            <feOffset dx="0" dy="10" in="SourceAlpha" result="shadowOffsetOuter1"></feOffset>
            <feGaussianBlur stdDeviation="5" in="shadowOffsetOuter1" result="shadowBlurOuter1"></feGaussianBlur>
            <feColorMatrix values="0 0 0 0 0   0 0 0 0 0   0 0 0 0 0  0 0 0 0.25 0" type="matrix" in="shadowBlurOuter1"></feColorMatrix>
        </filter>
        <path d="M200.015,71.540152 L200.015,330.427799" id="path-11"></path>
        <filter x="-2909.9%" y="-11.9%" width="5919.9%" height="123.8%" filterUnits="objectBoundingBox" id="filter-12">
            <feMorphology radius="1" operator="dilate" in="SourceAlpha" result="shadowSpreadOuter1"></feMorphology>
            <feOffset dx="0" dy="0" in="shadowSpreadOuter1" result="shadowOffsetOuter1"></feOffset>
            <feMorphology radius="1" operator="erode" in="SourceAlpha" result="shadowInner"></feMorphology>
            <feOffset dx="0" dy="0" in="shadowInner" result="shadowInner"></feOffset>
            <feComposite in="shadowOffsetOuter1" in2="shadowInner" operator="out" result="shadowOffsetOuter1"></feComposite>
            <feGaussianBlur stdDeviation="10" in="shadowOffsetOuter1" result="shadowBlurOuter1"></feGaussianBlur>
            <feColorMatrix values="0 0 0 0 0.498039216   0 0 0 0 0.525490196   0 0 0 0 0.960784314  0 0 0 1 0" type="matrix" in="shadowBlurOuter1"></feColorMatrix>
        </filter>
        <path d="M71.423448,200.435107 L327.099233,200.435107" id="path-13"></path>
        <filter x="-12.1%" y="-2906.1%" width="124.2%" height="5912.3%" filterUnits="objectBoundingBox" id="filter-14">
            <feMorphology radius="1" operator="dilate" in="SourceAlpha" result="shadowSpreadOuter1"></feMorphology>
            <feOffset dx="0" dy="0" in="shadowSpreadOuter1" result="shadowOffsetOuter1"></feOffset>
            <feMorphology radius="1" operator="erode" in="SourceAlpha" result="shadowInner"></feMorphology>
            <feOffset dx="0" dy="0" in="shadowInner" result="shadowInner"></feOffset>
            <feComposite in="shadowOffsetOuter1" in2="shadowInner" operator="out" result="shadowOffsetOuter1"></feComposite>
            <feGaussianBlur stdDeviation="10" in="shadowOffsetOuter1" result="shadowBlurOuter1"></feGaussianBlur>
            <feColorMatrix values="0 0 0 0 0.498039216   0 0 0 0 0.525490196   0 0 0 0 0.960784314  0 0 0 1 0" type="matrix" in="shadowBlurOuter1"></feColorMatrix>
        </filter>
        <path d="M243.287209,170.180777 L155.653733,170.180777 C150.8822,170.180777 147,174.062977 147,178.834511 L147,213.88786 C147,218.659599 150.8822,222.541594 155.653733,222.541594 L186.522768,222.541594 L195.830537,231.849568 C196.802881,232.821912 198.095786,233.357479 199.471086,233.357479 C200.846182,233.357479 202.139292,232.822117 203.111635,231.849568 L212.41961,222.541594 L243.287209,222.541594 C248.058948,222.541594 251.940943,218.659394 251.940943,213.88786 L251.940943,178.834511 C251.940943,174.062977 248.058743,170.180777 243.287209,170.180777 Z" id="path-15"></path>
        <filter x="-19.1%" y="-15.8%" width="138.1%" height="163.3%" filterUnits="objectBoundingBox" id="filter-16">
            <feOffset dx="0" dy="10" in="SourceAlpha" result="shadowOffsetOuter1"></feOffset>
            <feGaussianBlur stdDeviation="5" in="shadowOffsetOuter1" result="shadowBlurOuter1"></feGaussianBlur>
            <feColorMatrix values="0 0 0 0 0   0 0 0 0 0   0 0 0 0 0  0 0 0 0.25 0" type="matrix" in="shadowBlurOuter1"></feColorMatrix>
        </filter>
    </defs>
    <g id="Enterprise" stroke="none" stroke-width="1" fill="none" fill-rule="evenodd" transform="translate(-399.000000, -5723.000000)">
        <g id="support" transform="translate(0.000000, 5501.000000)">
            <g id="Group-84" transform="translate(419.000000, 240.000000)">
                <g id="Group-83">
                    <g id="Oval-5" stroke-linecap="round" stroke-linejoin="round" stroke-dasharray="2,10">
                        <use fill="black" fill-opacity="1" filter="url(#filter-2)" xlink:href="#path-1"></use>
                        <use stroke="#4A6280" stroke-width="2" xlink:href="#path-1"></use>
                    </g>
                    <g id="Rectangle-4">
                        <use fill="black" fill-opacity="1" filter="url(#filter-4)" xlink:href="#path-3"></use>
                        <use fill="#FFFFFF" fill-rule="evenodd" xlink:href="#path-3"></use>
                    </g>
                    <path d="M71.8407366,29.2352697 C71.4187461,28.6902369 70.6346943,28.5905298 70.0896129,29.012234 C69.5445316,29.4341868 69.4446911,30.2181687 69.8665573,30.7632014 C73.1418946,34.9941675 74.8730004,40.0660554 74.8730004,45.4303515 L74.8730004,49.0903012 C74.4972623,48.9612538 74.0949167,48.8901409 73.6759102,48.8901409 L70.2325973,48.8901409 C69.8774987,47.5989205 68.6932149,46.647351 67.2901028,46.647351 L63.8686728,46.647351 C62.1864303,46.647351 60.8180075,48.0157761 60.8180075,49.6976199 L60.8180075,66.0665054 C60.8180075,67.7490952 62.1865546,69.1181419 63.8686728,69.1181419 L67.2901028,69.1181419 C67.451986,69.1181419 67.6107609,69.1052123 67.76593,69.080845 C67.1687526,73.7618609 63.1620812,77.3930919 58.3203809,77.3930919 L57.660539,77.3930919 C57.3545524,75.8475063 55.988865,74.6784956 54.3548642,74.6784956 L50.6137707,74.6784956 C48.755471,74.6784956 47.2435664,76.1902653 47.2435664,78.0483994 L47.2435664,79.2340694 C47.2435664,81.0922035 48.7553466,82.6039732 50.6137707,82.6039732 L54.3548642,82.6039732 C55.988865,82.6039732 57.3546768,81.4348381 57.660539,79.8893768 L58.3203809,79.8893768 C64.9490131,79.8893768 70.3421358,74.4976054 70.3421358,67.8700616 C70.3421358,67.6137073 70.2646756,67.3753797 70.1318866,67.1772086 C70.1705545,67.078496 70.2043735,66.9774213 70.2327217,66.8741087 L73.6759102,66.8741087 C75.712381,66.8741087 77.3693836,65.2178755 77.3693836,63.1822079 L77.3693836,53.2659434 L77.3693836,45.4303515 C77.369508,39.5079687 75.4577444,33.9078316 71.8407366,29.2352697 Z M55.2286853,79.2340694 L55.228561,79.2340694 C55.228561,79.7156974 54.8365351,80.1076883 54.3548642,80.1076883 L50.6138951,80.1076883 C50.1322242,80.1076883 49.7401983,79.7156974 49.7401983,79.2340694 L49.7401983,78.0483994 C49.7401983,77.5667714 50.1322242,77.1747805 50.6138951,77.1747805 L54.3549885,77.1747805 C54.8366594,77.1747805 55.2286853,77.5667714 55.2286853,78.0483994 L55.2286853,79.2340694 Z M67.8456283,50.1382212 L67.8456283,65.6260284 L67.8456283,66.0666298 C67.8456283,66.372962 67.5964624,66.6219813 67.2902272,66.6219813 L63.8687971,66.6219813 C63.5631835,66.6219813 63.3146393,66.3728377 63.3146393,66.0666298 L63.3146393,49.6976199 C63.3146393,49.3920335 63.5633078,49.1436358 63.8687971,49.1436358 L67.2902272,49.1436358 C67.5965868,49.1436358 67.8456283,49.3921579 67.8456283,49.6976199 L67.8456283,50.1382212 Z M74.8731248,53.2660678 L74.8731248,63.1822079 C74.8731248,63.8414937 74.3361251,64.3779482 73.6760345,64.3779482 L70.3420115,64.3779482 L70.3420115,51.3863015 L73.6760345,51.3863015 C74.3361251,51.3863015 74.8731248,51.9232532 74.8731248,52.5832849 L74.8731248,53.2660678 Z" id="Shape" fill="#7F86F5" fill-rule="nonzero"></path>
                    <path d="M66.3084839,23.9010599 C61.793907,20.6624414 56.4612108,18.9505113 50.8873061,18.9505113 C43.8148006,18.9505113 37.1645343,21.7047668 32.1613238,26.7062878 C27.1596054,31.7088035 24.4051043,38.3584767 24.4051043,45.4303515 L24.4051043,53.2659434 L24.4051043,63.1820836 C24.4051043,65.2178755 26.0619826,66.8739844 28.0985777,66.8739844 L31.5417662,66.8739844 C31.8967405,68.1659508 33.0811486,69.1181419 34.4843851,69.1181419 L37.9058151,69.1181419 C39.5880576,69.1181419 40.9564804,67.7490952 40.9564804,66.0665054 L40.9564804,49.6976199 C40.9564804,48.0156517 39.5879333,46.647351 37.9058151,46.647351 L34.4843851,46.647351 C33.081273,46.647351 31.8969892,47.5990448 31.5418906,48.8901409 L28.0985777,48.8901409 C27.6796956,48.8901409 27.2772256,48.9612538 26.9014875,49.0903012 L26.9014875,45.4302272 C26.9014875,39.0249732 29.3963786,33.0021374 33.9264973,28.4711795 C38.4581079,23.9414649 44.4814809,21.4466719 50.8873061,21.4466719 C55.9360229,21.4466719 60.7654141,22.9967332 64.8532757,25.9291437 C65.4132772,26.3310805 66.193226,26.202779 66.5950743,25.6425788 C66.9969227,25.0826273 66.8684854,24.302748 66.3084839,23.9010599 Z M33.9289839,65.6260284 L33.9289839,50.1382212 L33.9289839,49.6976199 C33.9289839,49.3920335 34.1781498,49.1436358 34.4843851,49.1436358 L37.9058151,49.1436358 C38.2114287,49.1436358 38.4599729,49.3921579 38.4599729,49.6976199 L38.4599729,66.0665054 C38.4599729,66.3728377 38.2113044,66.621857 37.9058151,66.621857 L34.4843851,66.621857 C34.1780255,66.621857 33.9289839,66.3727134 33.9289839,66.0665054 L33.9289839,65.6260284 Z M28.0985777,51.3863015 L31.4326007,51.3863015 L31.4326007,64.3778238 L28.0985777,64.3778238 C27.4384871,64.3778238 26.9014875,63.8413694 26.9014875,63.1820836 L26.9014875,53.2658191 L26.9014875,52.5830363 C26.9014875,51.9232532 27.4384871,51.3863015 28.0985777,51.3863015 Z" id="Shape" fill="#7F86F5" fill-rule="nonzero"></path>
                    <path d="M68.3208338,25.9399598 C66.7145596,25.9399598 66.7116999,28.4361204 68.3208338,28.4361204 C69.9271081,28.4361204 69.9297191,25.9399598 68.3208338,25.9399598 Z" id="Shape" fill="#7F86F5" fill-rule="nonzero"></path>
                    <g id="Rectangle-4-Copy-3">
                        <use fill="black" fill-opacity="1" filter="url(#filter-6)" xlink:href="#path-5"></use>
                        <use fill="#FFFFFF" fill-rule="evenodd" xlink:href="#path-5"></use>
                    </g>
                    <path d="M81.7367086,344.766722 L76.0595154,344.240462 C75.4531408,341.918727 74.5278507,339.697943 73.3019221,337.620627 L76.9447701,333.233759 C77.2799733,332.830206 77.2524956,332.237682 76.8814844,331.866578 L69.7660009,324.751687 C69.3949897,324.380955 68.8025404,324.35348 68.3987051,324.688407 L64.0043853,328.336794 C61.925653,327.114076 59.7033155,326.192344 57.3800193,325.589252 L56.8545858,319.921732 C56.8060957,319.39945 56.36782,319 55.8431325,319 L45.7804471,319 C45.2557597,319 44.817484,319.399575 44.7689939,319.921981 L44.2426901,325.598701 C41.9205128,326.205149 39.699543,327.130362 37.6221784,328.356064 L33.2349456,324.71352 C32.8313589,324.37822 32.2387853,324.405944 31.8676498,324.7768 L24.7525393,331.891691 C24.3815281,332.262671 24.3541747,332.855195 24.6892535,333.258873 L28.3379452,337.652826 C27.115125,339.73151 26.1933162,341.953662 25.5901743,344.276641 L19.9219331,344.802155 C19.399608,344.850392 19,345.288631 19,345.813399 L19,355.839938 C19,356.364582 19.399608,356.802821 19.9220574,356.851307 L25.5902986,357.376821 C26.1934406,359.6998 27.1152493,361.922076 28.3380696,364.000635 L24.6893779,368.394589 C24.3541747,368.798142 24.3816524,369.390666 24.7526636,369.761771 L31.8678984,376.876662 C32.2389097,377.247518 32.8314833,377.274993 33.2351942,376.939942 L37.6224271,373.297398 C39.6997916,374.523348 41.9207615,375.448437 44.2429387,376.054761 L44.7692426,381.731481 C44.8176083,382.253887 45.2560083,382.653462 45.7806958,382.653462 L55.8433812,382.653462 C56.3680687,382.653462 56.8063444,382.253887 56.8548344,381.731481 L57.3803923,376.063712 C59.7036885,375.460621 61.926026,374.538889 64.0047583,373.31617 L68.3990781,376.964558 C68.8027891,377.299858 69.3952383,377.272134 69.7663739,376.901278 L76.8818574,369.786387 C77.2528686,369.415282 77.280222,368.822882 76.9450188,368.419205 L73.3022951,364.032586 C74.528348,361.955395 75.4535138,359.73461 76.0598884,357.412626 L81.7370816,356.886366 C82.2595311,356.838005 82.6591391,356.399641 82.6591391,355.874997 L82.6591391,345.777843 C82.6587661,345.253448 82.2591581,344.815084 81.7367086,344.766722 Z M80.6271562,354.949287 L75.1522537,355.456774 C74.7159673,355.497304 74.3547784,355.812712 74.2563063,356.239637 C73.6558997,358.838862 72.6266667,361.309785 71.1970798,363.583158 C70.9633328,363.954884 70.9950378,364.434896 71.2756586,364.772682 L74.7901944,369.004767 L68.9844404,374.810038 L64.7452888,371.290573 C64.4077232,371.010349 63.9286661,370.978398 63.5570332,371.211379 C61.281854,372.636993 58.8094818,373.66241 56.2085488,374.259037 C55.7809658,374.357253 55.4646613,374.71866 55.4242529,375.155283 L54.9174694,380.621897 L46.7064833,380.621897 L46.1989538,375.147451 C46.1584211,374.711201 45.8429869,374.350042 45.4160256,374.251578 C42.8165845,373.651221 40.3454557,372.622074 38.0718928,371.192606 C37.6998869,370.959003 37.2199594,370.99083 36.8822696,371.271054 L32.6495833,374.785422 L26.8439536,368.980151 L30.3637114,364.741353 C30.6438348,364.40394 30.6759129,363.924798 30.4429119,363.553196 C29.0171793,361.278207 27.9916764,358.80604 27.3951241,356.205324 C27.2969006,355.777777 26.9354631,355.461499 26.4988037,355.421094 L21.0316098,354.914352 L21.0316098,346.739607 L26.4986794,346.232866 C26.9354631,346.192336 27.297025,345.876182 27.3949998,345.448635 C27.991552,342.847919 29.017055,340.375752 30.4427875,338.100763 C30.6757886,337.729161 30.6437105,337.250019 30.3635871,336.912606 L26.8438292,332.673808 L32.649459,326.868538 L36.8822696,330.382905 C37.2202081,330.663502 37.7002599,330.69508 38.0718928,330.461353 C40.3453313,329.031885 42.8162115,328.002862 45.4159012,327.402381 C45.8428626,327.303793 46.1582967,326.942634 46.1988295,326.506509 L46.7064833,321.032062 L54.9170964,321.032062 L55.4238799,326.498552 C55.4644126,326.935299 55.7805928,327.296831 56.2081758,327.394798 C58.8091088,327.991424 61.281481,329.016842 63.5566602,330.442456 C63.9282931,330.675313 64.4074746,330.643113 64.7449158,330.363262 L68.9840674,326.843797 L74.7898214,332.649068 L71.2751613,336.881401 C70.9946648,337.219187 70.9629598,337.699199 71.1967068,338.070925 C72.6262937,340.344547 73.6555267,342.815097 74.2559333,345.414322 C74.3545298,345.841248 74.7157187,346.156655 75.1518807,346.197185 L80.6267832,346.704796 L80.6267832,354.949287 L80.6271562,354.949287 Z" id="Shape" fill="#7F86F5" fill-rule="nonzero"></path>
                    <path d="M50.8296313,328.945853 C38.7633286,328.945853 28.9467405,338.761511 28.9467405,350.826669 C28.9467405,355.882886 30.7192916,360.81797 33.9380437,364.723047 C34.2928259,365.153442 34.9293323,365.214256 35.3600156,364.860126 C35.7904517,364.505377 35.8516424,363.868931 35.4971074,363.438289 C32.5755318,359.894141 30.9667738,355.415039 30.9667738,350.826546 C30.9667738,339.875075 39.8772458,330.965448 50.829755,330.965448 C61.7822641,330.965448 70.6927361,339.875075 70.6927361,350.826546 C70.6927361,361.778016 61.7821405,370.687767 50.8296313,370.687767 C46.240703,370.687767 41.7611762,369.079038 38.2166921,366.157863 C37.786256,365.803238 37.1497496,365.864423 36.7947201,366.294941 C36.4400616,366.72546 36.5012522,367.361906 36.9318119,367.716779 C40.8373828,370.935225 45.7729345,372.707608 50.8295077,372.707608 C62.8958105,372.707608 72.7123986,362.891951 72.7123986,350.826793 C72.7123986,338.761634 62.8959341,328.945853 50.8296313,328.945853 Z" id="Shape" fill="#7F86F5" fill-rule="nonzero"></path>
                    <path d="M50.8295695,336.902536 C43.1509994,336.902536 36.9041329,343.148846 36.9041329,350.826731 C36.9041329,358.504616 43.1509994,364.750926 50.8295695,364.750926 C58.5081396,364.750926 64.7550062,358.504616 64.7550062,350.826731 C64.7550062,343.148846 58.5081396,336.902536 50.8295695,336.902536 Z M50.8295695,362.713175 C44.2746622,362.713175 38.9420655,357.380929 38.9420655,350.826731 C38.9420655,344.272533 44.2747869,338.940287 50.8295695,338.940287 C57.3843521,338.940287 62.7170735,344.272533 62.7170735,350.826731 C62.7170735,357.380929 57.3844768,362.713175 50.8295695,362.713175 Z" id="Shape" fill="#7F86F5" fill-rule="nonzero"></path>
                    <path d="M55.8029398,344.859219 C55.253495,344.859219 54.8082657,345.304408 54.8082657,345.853804 L54.8082657,347.842975 C54.8082657,348.392371 55.2536167,348.83756 55.8029398,348.83756 C56.3523845,348.83756 56.7976138,348.392371 56.7976138,347.842975 L56.7976138,345.853804 C56.7977355,345.304408 56.3525063,344.859219 55.8029398,344.859219 Z" id="Shape" fill="#7F86F5" fill-rule="nonzero"></path>
                    <path d="M45.8561993,344.859219 C45.3067545,344.859219 44.8615252,345.304408 44.8615252,345.853804 L44.8615252,347.842975 C44.8615252,348.392371 45.3067545,348.83756 45.8561993,348.83756 C46.4056441,348.83756 46.8508733,348.392371 46.8508733,347.842975 L46.8508733,345.853804 C46.8508733,345.304408 46.4056441,344.859219 45.8561993,344.859219 Z" id="Shape" fill="#7F86F5" fill-rule="nonzero"></path>
                    <path d="M56.1565442,350.927114 C55.6158003,350.662876 54.985434,350.938799 54.7488831,351.542646 C54.0676217,353.282905 52.529125,354.407485 50.8295695,354.407485 C49.1298832,354.407485 47.5915173,353.283051 46.9102559,351.542646 C46.6738359,350.938653 46.0434696,350.66273 45.5025949,350.927114 C44.9617202,351.19106 44.7148333,351.894525 44.9512533,352.498664 C45.9729492,355.108029 48.2802363,356.794243 50.8295695,356.794243 C53.3789027,356.794243 55.6861899,355.108029 56.7078857,352.498664 C56.9443058,351.894525 56.6974189,351.19106 56.1565442,350.927114 Z" id="Shape" fill="#7F86F5" fill-rule="nonzero"></path>
                    <g id="Rectangle-4-Copy-2">
                        <use fill="black" fill-opacity="1" filter="url(#filter-8)" xlink:href="#path-7"></use>
                        <use fill="#FFFFFF" fill-rule="evenodd" xlink:href="#path-7"></use>
                    </g>
                    <path d="M361.399551,321.217821 L336.455071,321.217821 C334.050736,321.217821 332.093006,323.175377 332.093006,325.579497 L332.093006,376.265052 C332.093006,378.670162 334.050736,380.627718 336.455071,380.627718 L361.398561,380.627718 C363.803886,380.627718 365.761617,378.670162 365.761617,376.266042 L365.761617,325.579497 C365.761617,323.175377 363.803886,321.217821 361.399551,321.217821 Z M334.073512,329.13914 L363.78111,329.13914 L363.78111,366.765409 L334.073512,366.765409 L334.073512,329.13914 Z M336.455071,323.198151 L361.398561,323.198151 C362.712627,323.198151 363.78111,324.266539 363.78111,325.579497 L363.78111,327.15881 L334.073512,327.15881 L334.073512,325.579497 C334.073512,324.266539 335.141995,323.198151 336.455071,323.198151 Z M361.399551,378.647388 L336.455071,378.647388 C335.141995,378.647388 334.073512,377.579 334.073512,376.266042 L334.073512,368.745739 L363.78111,368.745739 L363.78111,376.266042 C363.78111,377.579 362.712627,378.647388 361.399551,378.647388 Z" id="Shape" fill="#7F86F5" fill-rule="nonzero"></path>
                    <path d="M348.927311,369.735904 C346.742813,369.735904 344.966298,371.51226 344.966298,373.696564 C344.966298,375.880868 346.742813,377.657223 348.927311,377.657223 C351.11181,377.657223 352.888324,375.880868 352.888324,373.696564 C352.888324,371.51226 351.11181,369.735904 348.927311,369.735904 Z M348.927311,375.676894 C347.835062,375.676894 346.946805,374.788716 346.946805,373.696564 C346.946805,372.604412 347.835062,371.716234 348.927311,371.716234 C350.019561,371.716234 350.907818,372.604412 350.907818,373.696564 C350.907818,374.788716 350.019561,375.676894 348.927311,375.676894 Z" id="Shape" fill="#7F86F5" fill-rule="nonzero"></path>
                    <path d="M344.966298,326.168645 L348.927311,326.168645 C349.474921,326.168645 349.917565,325.726042 349.917565,325.17848 C349.917565,324.630919 349.474921,324.188316 348.927311,324.188316 L344.966298,324.188316 C344.418688,324.188316 343.976045,324.630919 343.976045,325.17848 C343.976045,325.726042 344.418688,326.168645 344.966298,326.168645 Z" id="Shape" fill="#7F86F5" fill-rule="nonzero"></path>
                    <path d="M351.898071,326.168645 L352.888324,326.168645 C353.435934,326.168645 353.878578,325.726042 353.878578,325.17848 C353.878578,324.630919 353.435934,324.188316 352.888324,324.188316 L351.898071,324.188316 C351.350461,324.188316 350.907818,324.630919 350.907818,325.17848 C350.907818,325.726042 351.350461,326.168645 351.898071,326.168645 Z" id="Shape" fill="#7F86F5" fill-rule="nonzero"></path>
                    <path d="M375.279931,325.741884 C374.892742,325.35473 374.266902,325.35473 373.879713,325.741884 C373.492524,326.129039 373.492524,326.754823 373.879713,327.141978 C377.579299,330.841234 377.579299,336.860447 373.879713,340.560693 C373.492524,340.947848 373.492524,341.573632 373.879713,341.960786 C374.072813,342.153869 374.326317,342.250905 374.579822,342.250905 C374.833327,342.250905 375.086832,342.153869 375.279931,341.960786 C379.751915,337.490192 379.751915,330.213469 375.279931,325.741884 Z" id="Shape" fill="#7F86F5" fill-rule="nonzero"></path>
                    <path d="M371.109975,327.9955 C370.722786,327.608345 370.096946,327.608345 369.709757,327.9955 C369.322568,328.382654 369.322568,329.008439 369.709757,329.395593 C370.9347,330.620427 371.609062,332.252219 371.609062,333.988968 C371.609062,335.725718 370.9347,337.356519 369.709757,338.581353 C369.322568,338.968508 369.322568,339.594292 369.709757,339.981447 C369.902856,340.174529 370.156361,340.271565 370.409866,340.271565 C370.663371,340.271565 370.916875,340.174529 371.109975,339.981447 C372.709234,338.38332 373.589569,336.254466 373.589569,333.988968 C373.589569,331.723471 372.710224,329.593626 371.109975,327.9955 Z" id="Shape" fill="#7F86F5" fill-rule="nonzero"></path>
                    <path d="M323.974909,327.141978 C324.362098,326.754823 324.362098,326.129039 323.974909,325.741884 C323.58772,325.35473 322.96188,325.35473 322.574691,325.741884 C318.102707,330.213469 318.102707,337.489201 322.574691,341.960786 C322.76779,342.153869 323.021295,342.250905 323.2748,342.250905 C323.528305,342.250905 323.78181,342.153869 323.974909,341.960786 C324.362098,341.573632 324.362098,340.947848 323.974909,340.560693 C320.274333,336.861437 320.274333,330.842224 323.974909,327.141978 Z" id="Shape" fill="#7F86F5" fill-rule="nonzero"></path>
                    <path d="M328.144866,327.722214 C327.757677,327.33506 327.131837,327.33506 326.744648,327.722214 C325.145389,329.320341 324.265053,331.449195 324.265053,333.714693 C324.265053,335.98019 325.145389,338.109045 326.744648,339.708161 C326.937747,339.901243 327.191252,339.998279 327.444757,339.998279 C327.698262,339.998279 327.951766,339.901243 328.144866,339.708161 C328.532055,339.321007 328.532055,338.695222 328.144866,338.308068 C326.919922,337.083234 326.24556,335.451442 326.24556,333.714693 C326.24556,331.977943 326.918932,330.347142 328.144866,329.122308 C328.531065,328.736143 328.531065,328.109369 328.144866,327.722214 Z" id="Shape" fill="#7F86F5" fill-rule="nonzero"></path>
                    <g id="Rectangle-4-Copy">
                        <use fill="black" fill-opacity="1" filter="url(#filter-10)" xlink:href="#path-9"></use>
                        <use fill="#FFFFFF" fill-rule="evenodd" xlink:href="#path-9"></use>
                    </g>
                    <path d="M378.017371,38.6570273 C377.594891,38.2008351 376.993027,37.9132659 376.323658,37.9132659 L370.657345,37.9132659 L370.657345,22.1658509 C370.657345,21.642159 370.232969,21.2178206 369.70923,21.2178206 L328.145266,21.2178206 C327.621527,21.2178206 327.197151,21.642159 327.197151,22.1658509 L327.197151,37.9131395 L321.530838,37.9131395 C320.861595,37.9131395 320.259732,38.2008351 319.837252,38.6569009 C319.455351,39.0693573 319.219713,39.6190884 319.219713,40.2240581 L319.219713,78.3166733 C319.219713,79.5910788 320.256445,80.6277183 321.530838,80.6277183 L376.323785,80.6277183 C377.598177,80.6277183 378.634909,79.5910788 378.634909,78.3167997 L378.634909,40.2240581 C378.634909,39.6190884 378.399271,39.0693573 378.017371,38.6570273 Z M328.145266,42.6417882 C328.669005,42.6417882 329.093381,42.2174498 329.093381,41.6937579 L329.093381,23.1138812 L368.761115,23.1138812 L368.761115,41.6937579 C368.761115,42.2174498 369.185491,42.6417882 369.70923,42.6417882 C370.232969,42.6417882 370.657345,42.2174498 370.657345,41.6937579 L370.657345,39.8092001 L375.462012,39.8092001 L349.994383,66.3305369 C349.709064,66.6277127 349.33007,66.791406 348.927311,66.791406 C348.524552,66.791406 348.145433,66.6277127 347.86024,66.3305369 L322.392485,39.8092001 L327.197151,39.8092001 L327.197151,41.6937579 C327.197151,42.2174498 327.621654,42.6417882 328.145266,42.6417882 Z M376.323785,78.7316578 L321.530838,78.7316578 C321.305945,78.7316578 321.115943,78.5416725 321.115943,78.3167997 L321.115943,41.2174675 L338.45178,59.2704921 L323.197876,75.1555612 C322.835317,75.53313 322.847453,76.1332964 323.225182,76.4959496 C323.40899,76.6724096 323.645513,76.760134 323.881657,76.760134 C324.130821,76.760134 324.37948,76.6626765 324.56569,76.4686463 L339.766246,60.6391951 L346.492426,67.643622 C347.138661,68.3165971 348.003468,68.6873401 348.927438,68.6873401 C349.851407,68.6873401 350.716088,68.3165971 351.362449,67.643622 L358.088629,60.6391951 L364.034067,66.8304648 C364.220277,67.0243686 364.468936,67.1219525 364.718101,67.1219525 C364.954244,67.1219525 365.190767,67.0342281 365.374575,66.8577681 C365.752304,66.4951149 365.76444,65.8949485 365.401881,65.5173797 L359.403095,59.2704921 L376.73868,41.2174675 L376.73868,78.3167997 C376.73868,78.5416725 376.548678,78.7316578 376.323785,78.7316578 Z" id="Shape" fill="#7F86F5" fill-rule="nonzero"></path>
                    <path d="M368.341414,69.0208383 C367.988156,68.6641874 367.403662,68.6529712 367.035752,68.995065 C366.667842,69.3373974 366.656021,69.9039344 367.009156,70.2603467 L373.084352,76.3919039 C373.265722,76.5749426 373.507917,76.6670585 373.750605,76.6670585 C373.98061,76.6670585 374.210985,76.5842496 374.390015,76.4176772 C374.757925,76.0753448 374.769745,75.5088079 374.416611,75.1523955 L368.341414,69.0208383 Z" id="Shape" fill="#7F86F5" fill-rule="nonzero"></path>
                    <path d="M338.010146,52.9030994 L356.2609,52.9030994 C357.925001,52.9030994 359.27895,51.5662132 359.27895,49.9230844 C359.27895,49.3364162 359.106229,48.788537 358.8087,48.326884 C359.599921,47.7890518 360.119501,46.8886376 360.119501,45.8707117 C360.119501,45.2840435 359.946909,44.7362915 359.649251,44.2746384 C360.440472,43.7368062 360.960053,42.836392 360.960053,41.8184661 C360.960053,41.2317979 360.787331,40.6839187 360.489674,40.2222657 C361.281023,39.6844335 361.800604,38.7840193 361.800604,37.7660934 C361.800604,36.1229646 360.446654,34.7860783 358.782554,34.7860783 L353.303129,34.7862055 C354.217869,32.8517139 354.711045,30.5557848 354.711045,28.1584955 C354.711045,26.5153667 353.357096,25.1784805 351.692995,25.1784805 C350.028894,25.1784805 348.674945,26.5153667 348.674945,28.1584955 C348.674945,31.8129309 345.66385,34.7860783 341.962772,34.7860783 L338.010275,34.7860783 C337.476655,34.7860783 337.044272,35.213012 337.044272,35.739907 L337.044272,51.9492708 C337.044143,52.4761657 337.476655,52.9030994 338.010146,52.9030994 Z M350.606822,28.1584955 C350.606822,27.5672489 351.093945,27.0861377 351.692866,27.0861377 C352.291788,27.0861377 352.778911,27.5671217 352.778911,28.1584955 C352.778911,30.8340484 352.096655,33.3417274 350.857982,35.2194981 C350.664524,35.5127686 350.649197,35.8870509 350.818054,36.1946925 C350.986912,36.502334 351.312905,36.69399 351.667364,36.69399 L358.782425,36.6938628 C359.381218,36.6938628 359.86847,37.1748468 359.86847,37.7662205 C359.86847,38.3575943 359.381347,38.8385783 358.782425,38.8385783 L356.261029,38.8385783 C355.727409,38.8385783 355.295026,39.265512 355.295026,39.7924069 C355.295026,40.3193018 355.727409,40.7462355 356.261029,40.7462355 L357.942002,40.7462355 C358.540795,40.7462355 359.028047,41.2273467 359.028047,41.8187204 C359.028047,42.4100942 358.540924,42.8910782 357.942002,42.8910782 L356.261029,42.8910782 C355.727409,42.8910782 355.295026,43.3180119 355.295026,43.8449068 C355.295026,44.3718018 355.727409,44.7987355 356.261029,44.7987355 L357.101451,44.7987355 C357.700244,44.7987355 358.187496,45.2797194 358.187496,45.8710932 C358.187496,46.4624669 357.700373,46.9434509 357.101451,46.9434509 L356.261029,46.9434509 C355.727409,46.9434509 355.295026,47.3703846 355.295026,47.8972796 C355.295026,48.4241745 355.727409,48.8511082 356.261029,48.8511082 C356.859822,48.8511082 357.347074,49.3322194 357.347074,49.9235931 C357.347074,50.5149669 356.859822,50.9954421 356.261029,50.9954421 L342.928645,50.9954421 L342.928645,36.6390494 C347.241912,36.1631525 350.606822,32.5422919 350.606822,28.1584955 Z M338.976149,36.6937356 L340.99664,36.6937356 L340.99664,50.9954421 L338.976149,50.9954421 L338.976149,36.6937356 Z" id="Shape" fill="#7F86F5" fill-rule="nonzero"></path>
                    <g id="Line" stroke-linecap="round" stroke-linejoin="round" stroke-dasharray="2,10" transform="translate(200.015000, 200.982105) rotate(-44.000000) translate(-200.015000, -200.982105) ">
                        <use fill="black" fill-opacity="1" filter="url(#filter-12)" xlink:href="#path-11"></use>
                        <use stroke="#4A6280" stroke-width="2" xlink:href="#path-11"></use>
                    </g>
                    <path d="M108.486265,109.451532 L291.547476,292.512742" id="Line" stroke="#4A6280" stroke-width="2" opacity="0.3" stroke-linecap="round" stroke-linejoin="round" stroke-dasharray="2,10" transform="translate(200.016870, 200.982137) rotate(-44.000000) translate(-200.016870, -200.982137) "></path>
                    <g id="Line" stroke-linecap="round" stroke-linejoin="round" stroke-dasharray="2,10" transform="translate(199.261341, 200.968459) rotate(-44.000000) translate(-199.261341, -200.968459) ">
                        <use fill="black" fill-opacity="1" filter="url(#filter-14)" xlink:href="#path-13"></use>
                        <use stroke="#4A6280" stroke-width="2" xlink:href="#path-13"></use>
                    </g>
                    <path d="M108.486265,292.512742 L291.547476,109.451532" id="Line" stroke="#4A6280" stroke-width="2" opacity="0.3" stroke-linecap="round" stroke-linejoin="round" stroke-dasharray="2,10" transform="translate(200.016870, 200.982137) rotate(-44.000000) translate(-200.016870, -200.982137) "></path>
                    <path d="M197.057438,262 C235.59311,262 266.832445,235.137085 266.832445,202 C266.832445,168.862915 235.59311,142 197.057438,142 C158.521766,142 127.282431,168.862915 127.282431,202 C127.282431,235.137085 158.521766,262 197.057438,262 Z" id="Oval-5" fill="#171E27"></path>
                    <g id="Shape" fill-rule="nonzero">
                        <use fill="black" fill-opacity="1" filter="url(#filter-16)" xlink:href="#path-15"></use>
                        <use fill="#7F86F5" fill-rule="evenodd" xlink:href="#path-15"></use>
                    </g>
                    <path d="M178.438421,184.202281 C177.531051,184.202281 176.795234,184.937892 176.795234,185.845467 L176.795234,194.718306 L166.060309,194.718306 L166.060309,185.845467 C166.060309,184.938097 165.324697,184.202281 164.417122,184.202281 C163.509547,184.202281 162.773935,184.937892 162.773935,185.845467 L162.773935,206.877518 C162.773935,207.784888 163.509547,208.520705 164.417122,208.520705 C165.324697,208.520705 166.060309,207.785093 166.060309,206.877518 L166.060309,198.004679 L176.795439,198.004679 L176.795439,206.877518 C176.795439,207.784888 177.531051,208.520705 178.438626,208.520705 C179.346201,208.520705 180.081812,207.785093 180.081812,206.877518 L180.081812,185.845467 C180.081607,184.938097 179.346201,184.202281 178.438421,184.202281 Z" id="Shape" fill="#FFFFFF" fill-rule="nonzero"></path>
                    <path d="M216.997044,205.234127 L206.481018,205.234127 C206.420554,205.234127 206.371568,205.18514 206.371568,205.124676 L206.371568,185.845263 C206.371568,184.937892 205.635957,184.202076 204.728382,184.202076 C203.820806,184.202076 203.085195,184.937687 203.085195,185.845263 L203.085195,205.124676 C203.085195,206.997216 204.608478,208.5205 206.481018,208.5205 L216.997044,208.5205 C217.904414,208.5205 218.64023,207.784888 218.64023,206.877313 C218.64023,205.969738 217.904619,205.234127 216.997044,205.234127 Z" id="Shape" fill="#FFFFFF" fill-rule="nonzero"></path>
                    <path d="M197.717835,205.234127 L187.201809,205.234127 C187.141345,205.234127 187.092359,205.18514 187.092359,205.124676 L187.092359,198.004474 L194.212561,198.004474 C195.119932,198.004474 195.855748,197.268863 195.855748,196.361288 C195.855748,195.453713 195.120136,194.718101 194.212561,194.718101 L187.092359,194.718101 L187.092359,187.597899 C187.092359,187.53764 187.141345,187.488449 187.201809,187.488449 L197.717835,187.488449 C198.625205,187.488449 199.361021,186.752838 199.361021,185.845263 C199.361021,184.937687 198.62541,184.202076 197.717835,184.202076 L187.201809,184.202076 C185.329269,184.202076 183.805986,185.725359 183.805986,187.597899 L183.805986,205.124471 C183.805986,206.997011 185.329269,208.520295 187.201809,208.520295 L197.717835,208.520295 C198.625205,208.520295 199.361021,207.784683 199.361021,206.877108 C199.361021,205.969533 198.625205,205.234127 197.717835,205.234127 Z" id="Shape" fill="#FFFFFF" fill-rule="nonzero"></path>
                    <path d="M229.265911,184.202076 L224.008,184.202076 C222.135461,184.202076 220.612177,185.725359 220.612177,187.597899 L220.612177,206.877313 C220.612177,207.784683 221.347789,208.5205 222.255364,208.5205 C223.162734,208.5205 223.89855,207.784888 223.89855,206.877313 L223.89855,201.509748 L229.266116,201.509748 C234.037854,201.509748 237.919849,197.627548 237.919849,192.856014 C237.919849,188.084481 234.037444,184.202076 229.265911,184.202076 Z M229.265911,198.223375 L223.898345,198.223375 L223.898345,187.597899 C223.898345,187.537435 223.947332,187.488449 224.007796,187.488449 L229.265706,187.488449 C232.225368,187.488449 234.633271,189.896352 234.633271,192.856014 C234.633271,195.815677 232.225368,198.223375 229.265911,198.223375 Z" id="Shape" fill="#FFFFFF" fill-rule="nonzero"></path>
                </g>
            </g>
        </g>
    </g>
</svg>