<?xml version="1.0" encoding="UTF-8"?>
<svg width="55px" height="48px" viewBox="0 0 55 48" version="1.1" xmlns="http://www.w3.org/2000/svg" xmlns:xlink="http://www.w3.org/1999/xlink">
    <!-- Generator: Sketch 48.2 (47327) - http://www.bohemiancoding.com/sketch -->
    <title>1.icon</title>
    <desc>Created with Sketch.</desc>
    <defs></defs>
    <g id="-" stroke="none" stroke-width="1" fill="none" fill-rule="evenodd">
        <g id="1.icon" fill="#01CEA2" fill-rule="nonzero">
            <g id="side-menu" transform="translate(8.000000, 8.000000)">
                <path d="M39.1860047,0 C38.7365436,0 38.3720094,0.364532989 38.3720094,0.813992532 L38.3720094,7.05351662 L3.99142592,7.05351662 C3.54196485,7.05351662 3.17743062,7.41804961 3.17743062,7.86750915 C3.17743062,8.31696869 3.54196485,8.68150168 3.99142592,8.68150168 L38.3720094,8.68150168 L38.3720094,29.8613766 L29.3836021,29.8613766 L29.3836021,13.0809956 C29.3836021,12.6315361 29.0190678,12.2670031 28.5696068,12.2670031 C28.1201457,12.2670031 27.7556115,12.6315361 27.7556115,13.0809956 L27.7556115,29.861241 L1.62799058,29.861241 L1.62799058,1.62798506 L34.1092517,1.62798506 C34.5587128,1.62798506 34.923247,1.26345207 34.923247,0.813992532 C34.923247,0.364532989 34.5587128,0 34.1092517,0 L0.813995292,0 C0.364534225,0 0,0.364532989 0,0.813992532 L0,30.6753692 C0,31.1248287 0.364534225,31.4893617 0.813995292,31.4893617 L39.1860047,31.4893617 C39.6354658,31.4893617 40,31.1248287 40,30.6753692 L40,0.813992532 C40,0.364532989 39.6356014,0 39.1860047,0 Z" id="Shape"></path>
                <path d="M30.6666667,13.8666667 L36.5333333,13.8666667 C36.9750667,13.8666667 37.3333333,13.5084 37.3333333,13.0666667 C37.3333333,12.6249333 36.9750667,12.2666667 36.5333333,12.2666667 L30.6666667,12.2666667 C30.2249333,12.2666667 29.8666667,12.6249333 29.8666667,13.0666667 C29.8666667,13.5084 30.2249333,13.8666667 30.6666667,13.8666667 Z" id="Shape"></path>
                <path d="M30.6666667,22.4 L36.5333333,22.4 C36.9750667,22.4 37.3333333,22.0417333 37.3333333,21.6 C37.3333333,21.1582667 36.9750667,20.8 36.5333333,20.8 L30.6666667,20.8 C30.2249333,20.8 29.8666667,21.1582667 29.8666667,21.6 C29.8666667,22.0417333 30.2249333,22.4 30.6666667,22.4 Z" id="Shape"></path>
                <path d="M30.6666667,18.1333333 L36.5333333,18.1333333 C36.9750667,18.1333333 37.3333333,17.7750667 37.3333333,17.3333333 C37.3333333,16.8916 36.9750667,16.5333333 36.5333333,16.5333333 L30.6666667,16.5333333 C30.2249333,16.5333333 29.8666667,16.8916 29.8666667,17.3333333 C29.8666667,17.7750667 30.2249333,18.1333333 30.6666667,18.1333333 Z" id="Shape"></path>
                <path d="M3.96666667,3.96666667 C3.81866667,4.116 3.73333333,4.32133333 3.73333333,4.53333333 C3.73333333,4.744 3.81866667,4.94933333 3.96666667,5.09866667 C4.116,5.24666667 4.32133333,5.33333333 4.53333333,5.33333333 C4.74266667,5.33333333 4.94933333,5.24666667 5.09866667,5.09866667 C5.24653333,4.94933333 5.33333333,4.744 5.33333333,4.53333333 C5.33333333,4.32133333 5.24666667,4.116 5.09866667,3.96666667 C4.94933333,3.81866667 4.744,3.73333333 4.53333333,3.73333333 C4.32133333,3.73333333 4.116,3.81866667 3.96666667,3.96666667 Z" id="Shape"></path>
                <path d="M6.63466667,3.968 C6.48533333,4.11733333 6.4,4.324 6.4,4.53333333 C6.4,4.744 6.48533333,4.95066667 6.63466667,5.1 C6.78266667,5.248 6.98933333,5.33333333 7.2,5.33333333 C7.41066667,5.33333333 7.61733333,5.248 7.76533333,5.1 C7.91453333,4.95066667 8,4.744 8,4.53333333 C8,4.324 7.91453333,4.11733333 7.76533333,3.968 C7.616,3.81866667 7.41066667,3.73333333 7.2,3.73333333 C6.98933333,3.73333333 6.784,3.81866667 6.63466667,3.968 Z" id="Shape"></path>
                <path d="M9.30113794,3.96780461 C9.15326117,4.1170136 9.06666667,4.32350819 9.06666667,4.53399944 C9.06666667,4.7444907 9.15312795,4.94965307 9.30113794,5.09886206 C9.45034693,5.24807105 9.65684152,5.33333333 9.86733278,5.33333333 C10.0763586,5.33333333 10.2829864,5.24807105 10.4321954,5.09886206 C10.5812712,4.94965307 10.6666667,4.74315848 10.6666667,4.53399944 C10.6666667,4.32350819 10.5812712,4.1170136 10.4321954,3.96780461 C10.2829864,3.81992784 10.0763586,3.73333333 9.86733278,3.73333333 C9.65684152,3.73333333 9.45048016,3.81992784 9.30113794,3.96780461 Z" id="Shape"></path>
            </g>
        </g>
    </g>
</svg>