<?xml version="1.0" encoding="UTF-8"?>
<svg width="55px" height="48px" viewBox="0 0 55 48" version="1.1" xmlns="http://www.w3.org/2000/svg" xmlns:xlink="http://www.w3.org/1999/xlink">
    <!-- Generator: Sketch 48.2 (47327) - http://www.bohemiancoding.com/sketch -->
    <title>5.icon copy 5</title>
    <desc>Created with Sketch.</desc>
    <defs></defs>
    <g id="-" stroke="none" stroke-width="1" fill="none" fill-rule="evenodd">
        <g id="5.icon-copy-5" fill="#01CEA2" fill-rule="nonzero">
            <g id="left-alignment" transform="translate(9.000000, 11.000000)">
                <path d="M22.7175354,25.5897436 L0.872208223,25.5897436 C0.390749284,25.5897436 0,25.1302564 0,24.5641026 C0,23.9979487 0.390749284,23.5384615 0.872208223,23.5384615 L22.7175354,23.5384615 C23.1989943,23.5384615 23.5897436,23.9979487 23.5897436,24.5641026 C23.5897436,25.1302564 23.2007387,25.5897436 22.7175354,25.5897436 Z" id="Shape"></path>
                <path d="M36.1271712,17.7435897 L0.872828838,17.7435897 C0.39102732,17.7435897 0,17.2841026 0,16.7179487 C0,16.1517949 0.39102732,15.6923077 0.872828838,15.6923077 L36.1271712,15.6923077 C36.6089727,15.6923077 37,16.1517949 37,16.7179487 C37,17.2841026 36.6089727,17.7435897 36.1271712,17.7435897 Z" id="Shape"></path>
                <path d="M22.7175354,9.8974359 L0.872208223,9.8974359 C0.390749284,9.8974359 0,9.43794872 0,8.87179487 C0,8.30564103 0.390749284,7.84615385 0.872208223,7.84615385 L22.7175354,7.84615385 C23.1989943,7.84615385 23.5897436,8.30564103 23.5897436,8.87179487 C23.5897436,9.43794872 23.2007387,9.8974359 22.7175354,9.8974359 Z" id="Shape"></path>
                <path d="M36.1271712,2.05128205 L0.872828838,2.05128205 C0.39102732,2.05128205 0,1.59179487 0,1.02564103 C0,0.459487179 0.39102732,0 0.872828838,0 L36.1271712,0 C36.6089727,0 37,0.459487179 37,1.02564103 C37,1.59179487 36.6089727,2.05128205 36.1271712,2.05128205 Z" id="Shape"></path>
            </g>
        </g>
    </g>
</svg>