<?xml version="1.0" encoding="UTF-8"?>
<svg width="8px" height="16px" viewBox="0 0 8 16" version="1.1" xmlns="http://www.w3.org/2000/svg" xmlns:xlink="http://www.w3.org/1999/xlink">
    <!-- Generator: Sketch 48.2 (47327) - http://www.bohemiancoding.com/sketch -->
    <title>Facebook</title>
    <desc>Created with Sketch.</desc>
    <defs></defs>
    <g id="Runtime" stroke="none" stroke-width="1" fill="none" fill-rule="evenodd" transform="translate(-1368.000000, -6504.000000)">
        <g id="footer" transform="translate(0.000000, 6313.000000)" fill="#6A6A6A" fill-rule="nonzero">
            <g id="Group-55" transform="translate(528.000000, 130.000000)">
                <g id="Group-53">
                    <g id="Group-64" transform="translate(713.000000, 0.000000)">
                        <g id="Group-56" transform="translate(0.000000, 56.000000)">
                            <g id="Group-63" transform="translate(118.000000, 0.000000)">
                                <g id="Group-58">
                                    <path d="M11.0319367,8.07731157 C11.0319367,8.45171199 11.0319367,10.122818 11.0319367,10.122818 L9.53333333,10.122818 L9.53333333,12.6240711 L11.0319367,12.6240711 L11.0319367,20.0569159 L14.1103862,20.0569159 L14.1103862,12.6242784 L16.1761687,12.6242784 C16.1761687,12.6242784 16.3696383,11.4249466 16.4634197,10.1135953 C16.194545,10.1135953 14.1220268,10.1135953 14.1220268,10.1135953 C14.1220268,10.1135953 14.1220268,8.65844568 14.1220268,8.40338777 C14.1220268,8.14777719 14.4576711,7.80394642 14.7894122,7.80394642 C15.1205315,7.80394642 15.8193847,7.80394642 16.4666667,7.80394642 C16.4666667,7.46339714 16.4666667,6.28672492 16.4666667,5.2 C15.6025647,5.2 14.6195003,5.2 14.1861713,5.2 C10.9558407,5.19982729 11.0319367,7.70356745 11.0319367,8.07731157 Z" id="Facebook"></path>
                                </g>
                            </g>
                        </g>
                    </g>
                </g>
            </g>
        </g>
    </g>
</svg>