<?xml version="1.0" encoding="UTF-8"?>
<svg width="14px" height="13px" viewBox="0 0 14 13" version="1.1" xmlns="http://www.w3.org/2000/svg" xmlns:xlink="http://www.w3.org/1999/xlink">
    <!-- Generator: Sketch 48.2 (47327) - http://www.bohemiancoding.com/sketch -->
    <title>LinkedIn</title>
    <desc>Created with Sketch.</desc>
    <defs></defs>
    <g id="Runtime" stroke="none" stroke-width="1" fill="none" fill-rule="evenodd" transform="translate(-1286.000000, -6506.000000)">
        <g id="footer" transform="translate(0.000000, 6313.000000)" fill="#6A6A6A" fill-rule="nonzero">
            <g id="Group-55" transform="translate(528.000000, 130.000000)">
                <g id="Group-53">
                    <g id="Group-64" transform="translate(713.000000, 0.000000)">
                        <g id="Group-56" transform="translate(0.000000, 56.000000)">
                            <g id="Group-61" transform="translate(39.000000, 1.000000)">
                                <g id="Group-59">
                                    <path d="M19.8587171,13.6557998 L19.8587171,18.4343967 L17.0883888,18.4343967 L17.0883888,13.9758414 C17.0883888,12.855816 16.6876907,12.0914424 15.6849237,12.0914424 C14.9194383,12.0914424 14.4638974,12.6065742 14.2634882,13.1048775 C14.1904045,13.283019 14.1715927,13.5309686 14.1715927,13.7803306 L14.1715927,18.4343967 L11.4003329,18.4343967 C11.4003329,18.4343967 11.437656,10.8830675 11.4003329,10.1006935 L14.1713222,10.1006935 L14.1713222,11.2819626 C14.1657027,11.2907975 14.1584004,11.3003236 14.1531114,11.3088881 L14.1713222,11.3088881 L14.1713222,11.2819626 C14.5394753,10.714933 15.1969579,9.90491216 16.6686084,9.90491216 C18.491884,9.90488211 19.8587171,11.0960079 19.8587171,13.6557998 Z M8.50147712,6.08343504 C7.55343273,6.08343504 6.93333333,6.70527739 6.93333333,7.52302127 C6.93333333,8.32294498 7.53549237,8.96365927 8.46469487,8.96365927 L8.4832062,8.96365927 C9.44961165,8.96365927 10.0506288,8.32306519 10.0506288,7.52302127 C10.0324179,6.70527739 9.44961165,6.08343504 8.50147712,6.08343504 Z M7.09792187,18.4343967 L9.86812991,18.4343967 L9.86812991,10.1006935 L7.09792187,10.1006935 L7.09792187,18.4343967 Z" id="LinkedIn"></path>
                                </g>
                            </g>
                        </g>
                    </g>
                </g>
            </g>
        </g>
    </g>
</svg>