<?xml version="1.0" encoding="UTF-8"?>
<svg width="12px" height="11px" viewBox="0 0 12 11" version="1.1" xmlns="http://www.w3.org/2000/svg" xmlns:xlink="http://www.w3.org/1999/xlink">
    <!-- Generator: Sketch 48.2 (47327) - http://www.bohemiancoding.com/sketch -->
    <title>Shape</title>
    <desc>Created with Sketch.</desc>
    <defs></defs>
    <g id="Runtime" stroke="none" stroke-width="1" fill="none" fill-rule="evenodd" transform="translate(-1327.000000, -6507.000000)">
        <g id="footer" transform="translate(0.000000, 6313.000000)" fill="#6A6A6A" fill-rule="nonzero">
            <g id="Group-55" transform="translate(528.000000, 130.000000)">
                <g id="Group-53">
                    <g id="Group-64" transform="translate(713.000000, 0.000000)">
                        <g id="Group-56" transform="translate(0.000000, 56.000000)">
                            <g id="Group-62" transform="translate(79.000000, 0.000000)">
                                <g id="Group-60">
                                    <path d="M19.0666667,9.83275724 C18.6200919,10.030638 18.1409235,10.1648384 17.6374687,10.2247518 C18.1515303,9.91691751 18.5450316,9.42864918 18.7315323,8.84862731 C18.2493307,9.13370163 17.717069,9.34070219 17.1499339,9.45291588 C16.6957857,8.96843426 16.0498036,8.66666667 15.3333013,8.66666667 C13.9587034,8.66666667 12.8441598,9.78121032 12.8441598,11.1550548 C12.8441598,11.3499022 12.8661465,11.5402095 12.9086132,11.72219 C10.8402731,11.6183031 9.00621363,10.6273531 7.77870291,9.12156828 C7.56412892,9.48854274 7.44206183,9.91614431 7.44206183,10.3725923 C7.44206183,11.2361818 7.88181658,11.9981643 8.54903205,12.4439659 C8.14111744,12.4303258 7.75746954,12.3181121 7.42160167,12.1315915 L7.42160167,12.1626783 C7.42160167,13.3682022 8.2798778,14.3743189 9.41791495,14.6033062 C9.20940764,14.6594131 8.98954018,14.6904998 8.76207946,14.6904998 C8.60135218,14.6904998 8.44591838,14.6745798 8.29351791,14.6442464 C8.61043237,15.6336896 9.52937527,16.3532054 10.6181455,16.372932 C9.76668938,17.0401475 8.69308588,17.4366821 7.52699531,17.4366821 C7.32608125,17.4366821 7.12818071,17.4245487 6.93333333,17.402562 C8.03499025,18.1099642 9.34287453,18.5224189 10.7485592,18.5224189 C15.3272743,18.5224189 17.8300758,14.7299332 17.8300758,11.4409024 L17.8217291,11.1186746 C18.3107508,10.7698803 18.7338123,10.3316522 19.0666667,9.83275724 Z" id="Shape"></path>
                                </g>
                            </g>
                        </g>
                    </g>
                </g>
            </g>
        </g>
    </g>
</svg>