<?xml version="1.0" encoding="UTF-8"?>
<svg width="55px" height="48px" viewBox="0 0 55 48" version="1.1" xmlns="http://www.w3.org/2000/svg" xmlns:xlink="http://www.w3.org/1999/xlink">
    <!-- Generator: Sketch 48.2 (47327) - http://www.bohemiancoding.com/sketch -->
    <title>2.icon copy</title>
    <desc>Created with Sketch.</desc>
    <defs></defs>
    <g id="-" stroke="none" stroke-width="1" fill="none" fill-rule="evenodd">
        <g id="2.icon-copy" fill="#01CEA2" fill-rule="nonzero">
            <g id="line-chart-(1)" transform="translate(8.000000, 14.000000)">
                <path d="M35.6831969,0.0530994152 C33.3458869,0.0530994152 31.4443665,1.95461988 31.4443665,4.29192982 C31.4443665,5.14440546 31.6981676,5.93824561 32.1329435,6.60358674 L27.5533723,11.1831579 C26.8879532,10.7483821 26.0941131,10.4945809 25.2416374,10.4945809 C24.3582846,10.4945809 23.5373099,10.7665497 22.8575439,11.2307212 L18.2307992,6.60327485 C18.6654971,5.93793372 18.9191423,5.14417154 18.9191423,4.29185185 C18.9191423,1.95454191 17.0176218,0.0530214425 14.6803119,0.0530214425 C12.3430019,0.0530214425 10.4414815,1.95454191 10.4414815,4.29185185 C10.4414815,5.14417154 10.6952047,5.93769981 11.1297466,6.60304094 L6.55001949,11.182846 C5.88475634,10.7482261 5.09107212,10.4945809 4.23883041,10.4945809 C1.90152047,10.4945809 0,12.3961793 0,14.7334893 C0,17.0707992 1.90152047,18.9723197 4.23883041,18.9723197 C6.57614035,18.9723197 8.47766082,17.0707992 8.47766082,14.7334893 C8.47766082,13.8810136 8.22385965,13.0871735 7.78908382,12.4217544 L12.368655,7.84218324 C13.0340741,8.27695906 13.8279142,8.53076023 14.6803899,8.53076023 C15.5327875,8.53076023 16.3266277,8.27695906 16.9919688,7.84218324 L21.6442885,12.4951267 C21.2383626,13.1452632 21.002885,13.9122027 21.002885,14.7334113 C21.002885,17.0707212 22.9044055,18.9722417 25.2417154,18.9722417 C27.5790253,18.9722417 29.4805458,17.0707212 29.4805458,14.7334113 C29.4805458,13.8810916 29.2268226,13.0874854 28.7922807,12.4222222 L33.3720858,7.84241715 C34.0374269,8.27703704 34.8311111,8.53068226 35.6832749,8.53068226 C38.0205848,8.53068226 39.9221053,6.62916179 39.9221053,4.29185185 C39.9221053,1.95446394 38.0205068,0.0530994152 35.6831969,0.0530994152 Z M4.23883041,17.2201949 C2.86760234,17.2201949 1.75204678,16.1046394 1.75204678,14.7334893 C1.75204678,13.3622612 2.86760234,12.2467057 4.23883041,12.2467057 C5.60998051,12.2467057 6.72561404,13.3622612 6.72561404,14.7334893 C6.72561404,16.1046394 5.61005848,17.2201949 4.23883041,17.2201949 Z M14.6803899,6.77863548 C13.3092398,6.77863548 12.1936062,5.66307992 12.1936062,4.29185185 C12.1936062,2.92070175 13.3091618,1.80506823 14.6803899,1.80506823 C16.0516179,1.80506823 17.1671735,2.92062378 17.1671735,4.29185185 C17.1671735,5.66307992 16.0516179,6.77863548 14.6803899,6.77863548 Z M25.2416374,17.2201949 C23.8704873,17.2201949 22.7548538,16.1046394 22.7548538,14.7334113 C22.7548538,13.3621832 23.8704094,12.2466277 25.2416374,12.2466277 C26.6127875,12.2466277 27.7284211,13.3621832 27.7284211,14.7334113 C27.7283431,16.1046394 26.6127875,17.2201949 25.2416374,17.2201949 Z M35.6831969,6.77863548 C34.3120468,6.77863548 33.1964133,5.66307992 33.1964133,4.29185185 C33.1964133,2.92070175 34.3119688,1.80506823 35.6831969,1.80506823 C37.054347,1.80506823 38.1699805,2.92062378 38.1699805,4.29185185 C38.1699805,5.66307992 37.054347,6.77863548 35.6831969,6.77863548 Z" id="Shape"></path>
                <path d="M13.7835478,10.8161404 C13.4414035,10.4740741 12.8867836,10.4740741 12.5446394,10.8161404 L10.7626511,12.5981287 C10.4205848,12.9401949 10.4205848,13.4948928 10.762729,13.837037 C10.9338012,14.0081092 11.1579727,14.0936452 11.3821442,14.0936452 C11.6063158,14.0936452 11.8305653,14.0080312 12.0015595,13.837037 L13.7835478,12.0550487 C14.12577,11.7129825 14.12577,11.1582066 13.7835478,10.8161404 Z" id="Shape"></path>
                <path d="M29.1588304,5.2194152 C28.8166862,4.87734893 28.2621442,4.87734893 27.9198441,5.21949318 L26.1378558,7.00148148 C25.7957895,7.34354776 25.7957895,7.89824561 26.1378558,8.24038986 C26.3090058,8.41138402 26.5331774,8.49692008 26.7573489,8.49692008 C26.9815984,8.49692008 27.205692,8.41130604 27.3767641,8.24031189 L29.1587524,6.45832359 C29.5008967,6.11617934 29.5008967,5.56148148 29.1588304,5.2194152 Z" id="Shape"></path>
            </g>
        </g>
    </g>
</svg>