<?xml version="1.0" encoding="UTF-8"?>
<svg width="55px" height="48px" viewBox="0 0 55 48" version="1.1" xmlns="http://www.w3.org/2000/svg" xmlns:xlink="http://www.w3.org/1999/xlink">
    <!-- Generator: Sketch 48.2 (47327) - http://www.bohemiancoding.com/sketch -->
    <title>4.icon copy 4</title>
    <desc>Created with Sketch.</desc>
    <defs></defs>
    <g id="-" stroke="none" stroke-width="1" fill="none" fill-rule="evenodd">
        <g id="4.icon-copy-4" fill="#01CEA2" fill-rule="nonzero">
            <g id="bug-(3)" transform="translate(13.000000, 7.000000)">
                <path d="M26.4378541,18.1015236 L24.7998927,18.1015236 L24.7998927,13.4493348 L26.4377897,13.4493348 C28.3983476,13.4493348 29.9933691,11.8543133 29.9933691,9.89375536 L29.9933691,7.53334764 C29.9933691,7.12976395 29.6662017,6.80253219 29.2625536,6.80253219 C28.8589056,6.80253219 28.5317382,7.12976395 28.5317382,7.53334764 L28.5317382,9.89375536 C28.5317382,11.0483691 27.5924034,11.9877039 26.4377897,11.9877039 L24.6561373,11.9877039 C24.2448283,10.3446567 22.9848283,9.03540773 21.3708155,8.55373391 C21.182897,6.34152361 19.8342489,4.4561588 17.9369742,3.51032189 L17.9369742,0.730815451 C17.9369742,0.32723176 17.6097425,0 17.2060944,0 C16.8024464,0 16.475279,0.32723176 16.475279,0.730815451 L16.475279,2.99813305 C16.0539914,2.90781116 15.617382,2.85920601 15.1694421,2.85920601 C14.727103,2.85920601 14.2955794,2.90639485 13.8791202,2.9945279 L13.8791202,0.730815451 C13.8791202,0.32723176 13.5519528,0 13.1483047,0 C12.7446567,0 12.4174893,0.32723176 12.4174893,0.730815451 L12.4174893,3.50246781 C10.5120386,4.44566524 9.15650215,6.33566524 8.96813305,8.55399142 C7.35412017,9.03572961 6.09405579,10.3449142 5.68274678,11.9878326 L3.56208155,11.9878326 C2.40753219,11.9878326 1.46819742,11.0484335 1.46819742,9.89388412 L1.46819742,7.53347639 C1.46819742,7.1298927 1.14103004,6.80266094 0.737381974,6.80266094 C0.333733906,6.80266094 0.00656652361,7.1298927 0.00656652361,7.53347639 L0.00656652361,9.89388412 C0.00656652361,11.8544421 1.60158798,13.4494635 3.56208155,13.4494635 L5.53899142,13.4494635 L5.53899142,18.101588 L3.56208155,18.101588 C1.60152361,18.101588 0.00656652361,19.6966094 0.00656652361,21.6571674 L0.00656652361,24.0175751 C0.00656652361,24.4211588 0.333733906,24.7483906 0.737381974,24.7483906 C1.14103004,24.7483906 1.46819742,24.4211588 1.46819742,24.0175751 L1.46819742,21.6571674 C1.46819742,20.5025536 2.40753219,19.5632189 3.56208155,19.5632189 L5.53899142,19.5632189 L5.53899142,22.7171459 C5.53899142,23.9893777 5.78987124,25.2038627 6.24379828,26.3146996 L5.06208155,26.3146996 C3.10152361,26.3146996 1.50650215,27.909721 1.50650215,29.8702146 L1.50650215,32.2306223 C1.50650215,32.634206 1.83366953,32.9614378 2.2373176,32.9614378 C2.64096567,32.9614378 2.96813305,32.634206 2.96813305,32.2306223 L2.96813305,29.8702146 C2.96813305,28.7156009 3.90746781,27.7763305 5.06208155,27.7763305 L6.96618026,27.7763305 C6.97545064,27.7763305 6.98446352,27.7753004 6.99360515,27.7749142 C8.68261803,30.4657725 11.6759871,32.258691 15.0807296,32.258691 L15.2583476,32.258691 C18.6625107,32.258691 21.6554292,30.4664163 23.3445708,27.7762661 L24.9379185,27.7762661 C26.0925322,27.7762661 27.031867,28.7156009 27.031867,29.8701502 L27.031867,32.2305579 C27.031867,32.6341416 27.3590343,32.9613734 27.7626824,32.9613734 C28.1663305,32.9613734 28.4934979,32.6341416 28.4934979,32.2305579 L28.4934979,29.8701502 C28.4934979,27.9096567 26.8984764,26.3146352 24.9379185,26.3146352 L24.0951502,26.3146352 C24.5490773,25.2037983 24.7999571,23.9893133 24.7999571,22.7170815 L24.7999571,19.5631545 L26.4379185,19.5631545 C27.5925322,19.5631545 28.531867,20.5025536 28.531867,21.657103 L28.531867,24.0175107 C28.531867,24.4210944 28.8590343,24.7483262 29.2626824,24.7483262 C29.6663305,24.7483262 29.9934979,24.4210944 29.9934979,24.0175107 L29.9934979,21.657103 C29.9934335,19.6965451 28.398412,18.1015236 26.4378541,18.1015236 Z M15.1695064,4.32083691 C17.5477468,4.32083691 19.5243348,6.07261803 19.8771245,8.35358369 L10.4617597,8.35358369 C10.8146781,6.07261803 12.7912661,4.32083691 15.1695064,4.32083691 Z M7.0006867,13.1528755 C7.0006867,11.3124464 8.49791845,9.81521459 10.3383476,9.81521459 L20.0012446,9.81521459 C21.8412232,9.81521459 23.3381974,11.3124464 23.3381974,13.1528755 L23.3381974,15.356588 C20.8205794,13.8598712 17.5107296,14.0264807 15.1697639,15.8564807 C13.8817597,14.8499356 12.3007082,14.3466953 10.7195923,14.3466953 C9.42637339,14.3466953 8.13334764,14.6833262 7.00075107,15.3567167 L7.00075107,13.1528755 L7.0006867,13.1528755 Z M7.0006867,19.0107296 L7.0006867,17.1464807 C9.11195279,15.3541416 12.3267811,15.3541416 14.438691,17.1462876 L14.438691,19.0123391 C12.1727253,17.6651073 9.26607296,17.6652361 7.00049356,19.0124678 L7.0006867,19.0107296 Z M23.338133,22.7169528 C23.338133,27.1724034 19.7134764,30.7969957 15.2581545,30.7969957 L15.0805365,30.7969957 C10.6252146,30.7969957 7.00062232,27.1723391 7.00062232,22.7170815 L7.00062232,20.7997854 C9.11188841,19.0076395 12.3267811,19.008412 14.4386266,20.8004936 L14.4386266,24.3269099 C14.4386266,24.7304936 14.765794,25.0577253 15.1694421,25.0577253 C15.5730901,25.0577253 15.9002575,24.7304936 15.9002575,24.3269099 L15.9002575,20.8009442 C18.0115236,19.0080901 21.2264807,19.0071888 23.338133,20.799721 L23.338133,22.7169528 Z M15.9003219,19.0126609 L15.9003219,17.1468026 C18.0117167,15.3539485 21.2266738,15.3538841 23.3381974,17.1466094 L23.3381974,19.0107296 L23.3383906,19.0124678 C21.0726824,17.6650429 18.1659657,17.6651717 15.9003219,19.0126609 Z" id="Shape"></path>
                <path d="M15.1695064,27.0400429 C14.7658584,27.0400429 14.438691,27.3672747 14.438691,27.7708584 L14.438691,27.8483047 C14.438691,28.2518884 14.7658584,28.5791202 15.1695064,28.5791202 C15.5731545,28.5791202 15.9003219,28.2518884 15.9003219,27.8483047 L15.9003219,27.7708584 C15.9003219,27.3673391 15.5730901,27.0400429 15.1695064,27.0400429 Z" id="Shape"></path>
            </g>
        </g>
    </g>
</svg>