<?xml version="1.0" encoding="UTF-8"?>
<svg width="55px" height="48px" viewBox="0 0 55 48" version="1.1" xmlns="http://www.w3.org/2000/svg" xmlns:xlink="http://www.w3.org/1999/xlink">
    <!-- Generator: Sketch 48.2 (47327) - http://www.bohemiancoding.com/sketch -->
    <title>6.icon copy 6</title>
    <desc>Created with Sketch.</desc>
    <defs></defs>
    <g id="-" stroke="none" stroke-width="1" fill="none" fill-rule="evenodd">
        <g id="6.icon-copy-6" fill="#01CEA2" fill-rule="nonzero">
            <g id="speedometer" transform="translate(6.000000, 11.000000)">
                <path d="M13.7734482,6.50841833 C14.1953108,6.2942749 14.3637131,5.77870319 14.1495697,5.35692629 C13.9354263,4.9351494 13.4198546,4.76674701 12.9980777,4.98080478 C7.70119721,7.66933267 3.94777689,12.7583227 2.95749203,18.5937311 C2.87834462,19.0601355 3.19227888,19.5023845 3.65876892,19.5815319 C3.707251,19.589755 3.7554761,19.5937809 3.80310159,19.5937809 C4.21322908,19.5937809 4.57573108,19.2982629 4.64665538,18.8803406 C5.5464004,13.5776355 8.95830478,8.95256574 13.7734482,6.50841833 Z" id="Shape"></path>
                <path d="M21.5,2.95372311 C20.2733865,2.95372311 19.0463446,3.0727012 17.8532231,3.30723108 C17.3889602,3.39845618 17.0866753,3.84875697 17.1779004,4.31293426 C17.258247,4.72143426 17.6163805,5.00444622 18.0175139,5.00444622 C18.0723347,5.00444622 18.1278406,4.99913546 18.1836036,4.98825697 C19.2682829,4.77505578 20.3839701,4.66687052 21.5,4.66687052 C21.973,4.66687052 22.3565737,4.28329681 22.3565737,3.81029681 C22.3565737,3.33738247 21.973,2.95372311 21.5,2.95372311 Z" id="Shape"></path>
                <path d="M36.7027271,6.34969522 C32.6419681,2.28893625 27.2428984,0.0525079681 21.5,0.0525079681 C15.7571016,0.0525079681 10.3580319,2.28876494 6.29727291,6.34969522 C2.23634263,10.4105398 0,15.8095239 0,21.5524223 C0,22.0254223 0.383573705,22.408996 0.856573705,22.408996 L16.6834861,22.408996 C17.1457789,24.6443964 19.1296892,26.3299622 21.5,26.3299622 C23.8703108,26.3299622 25.8542211,24.6443964 26.3165139,22.408996 L42.1434263,22.408996 C42.6164263,22.408996 43,22.0254223 43,21.5524223 C43,15.8095239 40.7636574,10.4105398 36.7027271,6.34969522 Z M24.5454622,22.408996 C24.1250558,23.6894024 22.9190857,24.6168147 21.5,24.6168147 C20.0809143,24.6168147 18.8748586,23.6894024 18.4545378,22.408996 C18.3514064,22.0948048 18.2947869,21.7597988 18.2947869,21.4115159 C18.2947869,21.1654223 18.3235677,20.9260956 18.3763327,20.6958486 C18.7025159,19.2720518 19.9787251,18.2063884 21.5,18.2063884 C23.0212749,18.2063884 24.2974841,19.2720518 24.6236673,20.6958486 C24.6764323,20.9261813 24.7052131,21.165508 24.7052131,21.4115159 C24.7052131,21.7597988 24.6486793,22.0948904 24.5454622,22.408996 Z M26.3656813,20.6957629 L26.3656813,20.6958486 C26.291245,20.1874721 26.138261,19.7044502 25.9203486,19.2587749 L36.0404243,11.9061175 C36.4231414,11.6280737 36.5079422,11.0923725 36.2298984,10.7096554 C35.9519402,10.3268526 35.4160677,10.2420518 35.0334363,10.5201813 L24.9120757,17.8737809 C24.0271494,17.0196912 22.8241773,16.4931554 21.5,16.4931554 C19.0310976,16.4931554 16.982002,18.3218546 16.6343187,20.6957629 L1.73147809,20.6958486 C2.18160757,10.1810637 10.8765159,1.76548406 21.5,1.76548406 C32.1234841,1.76548406 40.8183924,10.1810637 41.2685219,20.6958486 L26.3656813,20.6957629 Z" id="Shape"></path>
                <path d="M21.5,6.0485239 C21.027,6.0485239 20.6434263,6.43209761 20.6434263,6.90509761 L20.6434263,9.90310558 C20.6434263,10.3761056 21.027,10.7596793 21.5,10.7596793 C21.973,10.7596793 22.3565737,10.3761056 22.3565737,9.90310558 L22.3565737,6.90509761 C22.3565737,6.43218327 21.973,6.0485239 21.5,6.0485239 Z" id="Shape"></path>
                <path d="M17.8318944,7.35034462 C17.6856773,6.90047211 17.2028267,6.65437849 16.7524402,6.8004243 C16.3025677,6.94664143 16.0563028,7.42992032 16.2025199,7.87987849 L16.675006,9.33382669 C16.7926135,9.69581474 17.1283904,9.92589044 17.4895219,9.92589044 C17.5771494,9.92589044 17.6664044,9.91227092 17.7544602,9.88374701 C18.2043327,9.73752988 18.4505976,9.254251 18.3043805,8.80429283 L17.8318944,7.35034462 Z" id="Shape"></path>
                <path d="M13.6662908,9.17210558 C13.388247,8.78930279 12.8524602,8.70450199 12.4698287,8.98263147 C12.0871116,9.2606753 12.0023108,9.79637649 12.2803546,10.1790936 L14.042498,12.6044821 C14.2100438,12.8351574 14.4712988,12.9576474 14.7361514,12.9576474 C14.9107211,12.9576474 15.087004,12.9044542 15.2389602,12.7939562 C15.6216773,12.5159124 15.7064781,11.9802112 15.4284343,11.597494 L13.6662908,9.17210558 Z" id="Shape"></path>
                <path d="M11.6054602,13.1640817 L10.267492,12.1919562 C9.88494622,11.9139124 9.34907371,11.9985418 9.07102988,12.3814303 C8.7929004,12.7641474 8.87778685,13.2998486 9.26050398,13.5778924 L10.5984721,14.5500179 C10.7505139,14.6605159 10.9266255,14.7137092 11.1012809,14.7137092 C11.3661335,14.7137092 11.6273884,14.5912191 11.7949343,14.3605438 C12.0730637,13.9778267 11.9881773,13.4422112 11.6054602,13.1640817 Z" id="Shape"></path>
                <path d="M10.8195538,17.0405916 L7.96827689,16.1141215 C7.51806175,15.9680757 7.03495418,16.2140837 6.88882271,16.6640418 C6.74269124,17.114 6.98887052,17.5972789 7.43874303,17.743496 L10.2900199,18.6699661 C10.37799,18.69849 10.4671594,18.7121096 10.5549582,18.7121096 C10.916004,18.7121096 11.2518665,18.4819482 11.3694741,18.1200458 C11.5156056,17.6700876 11.2693406,17.1868088 10.8195538,17.0405916 Z" id="Shape"></path>
                <path d="M35.0318088,16.1141215 L32.1805319,17.0405916 C31.7306594,17.1868088 31.4844801,17.6700876 31.6306116,18.1200458 C31.7482191,18.4820339 32.083996,18.7121096 32.4451275,18.7121096 C32.532755,18.7121096 32.62201,18.69849 32.7100657,18.6699661 L35.5613426,17.743496 C36.0112151,17.5972789 36.2573944,17.114 36.1112629,16.6640418 C35.9650458,16.2141693 35.4821096,15.96799 35.0318088,16.1141215 Z" id="Shape"></path>
                <path d="M30.5301713,8.98271713 C30.1475398,8.70475896 29.6118386,8.78930279 29.3337092,9.17219124 L27.5715657,11.5975797 C27.2935219,11.9802968 27.3783227,12.515998 27.7610398,12.7940418 C27.9130817,12.9045398 28.0891932,12.9577331 28.2638486,12.9577331 C28.5287012,12.9577331 28.7899562,12.835243 28.957502,12.6045677 L30.7196454,10.1791793 C30.9976892,9.79646215 30.9128884,9.2606753 30.5301713,8.98271713 Z" id="Shape"></path>
                <path d="M26.2288865,6.85755777 C25.7791853,6.71168327 25.2957351,6.95751992 25.1495179,7.40756375 L24.7106096,8.75838048 C24.5644781,9.20825299 24.8106574,9.69153187 25.2606155,9.837749 C25.3485,9.86627291 25.4376693,9.87989243 25.5254681,9.87989243 C25.8865139,9.87989243 26.2223765,9.64973108 26.3399841,9.28774303 L26.7788924,7.93692629 C26.9250239,7.48705378 26.6788446,7.00386056 26.2288865,6.85755777 Z" id="Shape"></path>
            </g>
        </g>
    </g>
</svg>