<?xml version="1.0" encoding="UTF-8"?>
<svg width="55px" height="48px" viewBox="0 0 55 48" version="1.1" xmlns="http://www.w3.org/2000/svg" xmlns:xlink="http://www.w3.org/1999/xlink">
    <!-- Generator: Sketch 48.2 (47327) - http://www.bohemiancoding.com/sketch -->
    <title>8.icon copy 8</title>
    <desc>Created with Sketch.</desc>
    <defs></defs>
    <g id="-" stroke="none" stroke-width="1" fill="none" fill-rule="evenodd">
        <g id="8.icon-copy-8" fill="#01CEA2" fill-rule="nonzero">
            <g id="signal" transform="translate(18.000000, 6.000000)">
                <path d="M18.5902878,35.9079856 L15.6784892,25.9821583 C15.6783453,25.9815827 15.6781295,25.9810072 15.6779856,25.9803597 L14.6389209,22.4384892 C14.6388489,22.4381295 14.638705,22.4377698 14.6386331,22.437482 L13.2028058,17.5430216 C13.202518,17.5420863 13.2023022,17.5411511 13.2020144,17.5402878 L10.917554,9.75294964 C11.9231655,9.37935252 12.6416547,8.41021583 12.6416547,7.27618705 C12.6416547,5.81978417 11.4567626,4.63496403 10.0004317,4.63496403 C8.54410072,4.63496403 7.35920863,5.81985612 7.35920863,7.27618705 C7.35920863,8.41021583 8.07769784,9.37942446 9.08330935,9.75294964 L4.3228777,25.9805036 C4.32273381,25.9810791 4.32251799,25.9816547 4.3223741,25.9823022 L1.41057554,35.9080576 C1.29820144,36.2910791 1.5176259,36.6927338 1.90064748,36.8051799 C2.28417266,36.917482 2.68532374,36.6981295 2.79776978,36.315036 L3.2405036,34.8058273 L10.0005036,30.3405755 L16.7605036,34.8058273 L17.2032374,36.315036 C17.2956835,36.6302158 17.5839568,36.8346043 17.8966187,36.8346043 C17.9639568,36.8346043 18.032518,36.8251079 18.1003597,36.8051799 C18.4832374,36.6927338 18.7026619,36.2910791 18.5902878,35.9079856 Z M8.80482014,7.27604317 C8.80482014,6.61683453 9.34115108,6.0805036 10.0003597,6.0805036 C10.6595683,6.0805036 11.1958993,6.61683453 11.1958993,7.27604317 C11.1958993,7.9352518 10.6595683,8.47158273 10.0003597,8.47158273 C9.34115108,8.47158273 8.80482014,7.93532374 8.80482014,7.27604317 Z M10.0003597,11.762446 L11.5465468,17.0333094 L8.45410072,17.0333094 L10.0003597,11.762446 Z M8.03,18.4789928 L11.9707194,18.4789928 L12.9830216,21.9299281 L7.01769784,21.9299281 L8.03,18.4789928 Z M3.87086331,32.6566906 L5.43503597,27.3248921 L8.68892086,29.4741727 L3.87086331,32.6566906 Z M5.86079137,25.8735252 L6.59359712,23.3756115 L13.4071942,23.3756115 L14.14,25.8735252 L10.0003597,28.6079137 L5.86079137,25.8735252 Z M11.3118705,29.4742446 L14.5657554,27.324964 L16.1299281,32.6567626 L11.3118705,29.4742446 Z" id="Shape"></path>
                <path d="M6.56402878,3.83978417 C6.84633094,3.55748201 6.84633094,3.09978417 6.56402878,2.81755396 C6.28172662,2.5352518 5.82410072,2.5352518 5.54172662,2.81755396 C3.08352518,5.27597122 3.08352518,9.27618705 5.54179856,11.7346043 C5.68294964,11.8757554 5.86791367,11.9463309 6.05294964,11.9463309 C6.23791367,11.9463309 6.4228777,11.8756835 6.56402878,11.7346043 C6.84633094,11.4523022 6.84633094,10.9946043 6.56402878,10.7123741 C4.66920863,8.8176259 4.66920863,5.73453237 6.56402878,3.83978417 Z" id="Shape"></path>
                <path d="M14.4589209,2.8176259 C14.1766187,2.53532374 13.7190647,2.53532374 13.4366187,2.8176259 C13.1543165,3.09992806 13.1543165,3.5576259 13.4366187,3.83985612 C15.3313669,5.73460432 15.3313669,8.81769784 13.4366187,10.712446 C13.1543885,10.9946043 13.1543885,11.4523741 13.4366906,11.7346043 C13.5778417,11.8757554 13.7628058,11.9463309 13.9478417,11.9463309 C14.1328777,11.9463309 14.3177698,11.8756835 14.4589928,11.7346043 C16.9172662,9.27618705 16.9172662,5.27597122 14.4589209,2.8176259 Z" id="Shape"></path>
                <path d="M3.95827338,1.23395683 C4.24057554,0.951654676 4.24057554,0.493956835 3.95827338,0.211726619 C3.67597122,-0.0705755396 3.21834532,-0.0705755396 2.93597122,0.211726619 C1.04906475,2.09870504 0.00985611511,4.60748201 0.00985611511,7.27611511 C0.00985611511,9.94467626 1.04906475,12.4535252 2.93597122,14.3405036 C3.07719424,14.4816547 3.26208633,14.5522302 3.44719424,14.5522302 C3.63230216,14.5522302 3.8171223,14.4815827 3.95834532,14.3405036 C4.24064748,14.0582014 4.24064748,13.6005036 3.95834532,13.3182734 C0.626546763,9.98654676 0.626546763,4.56561151 3.95827338,1.23395683 Z" id="Shape"></path>
                <path d="M18.5123741,2.04172662 C18.3030216,1.7018705 17.8576978,1.59597122 17.5177698,1.80532374 C17.1779856,2.0147482 17.0721583,2.46 17.2814388,2.79985612 C19.3641727,6.18071942 18.8546043,10.5060432 16.042446,13.3181295 C15.7601439,13.6004317 15.7601439,14.0581295 16.042446,14.3404317 C16.1835971,14.4815827 16.3685612,14.5521583 16.5535971,14.5521583 C16.7385612,14.5521583 16.9235252,14.4815827 17.0647482,14.3404317 C18.6634532,12.7416547 19.6809353,10.6259712 19.9297122,8.38316547 C20.1745324,6.17510791 19.671223,3.92294964 18.5123741,2.04172662 Z" id="Shape"></path>
                <path d="M16.5535971,0 C15.6233813,0 15.6218705,1.44568345 16.5535971,1.44568345 C17.4838129,1.44568345 17.4853237,0 16.5535971,0 Z" id="Shape"></path>
            </g>
        </g>
    </g>
</svg>