<?xml version="1.0" encoding="UTF-8"?>
<svg width="55px" height="48px" viewBox="0 0 55 48" version="1.1" xmlns="http://www.w3.org/2000/svg" xmlns:xlink="http://www.w3.org/1999/xlink">
    <!-- Generator: Sketch 48.2 (47327) - http://www.bohemiancoding.com/sketch -->
    <title>9.icon copy 3</title>
    <desc>Created with Sketch.</desc>
    <defs></defs>
    <g id="-" stroke="none" stroke-width="1" fill="none" fill-rule="evenodd">
        <g id="9.icon-copy-3" fill="#01CEA2" fill-rule="nonzero">
            <g id="blocks" transform="translate(7.000000, 11.000000)">
                <path d="M41.788117,17.1689942 L40.9260936,15.0992047 C40.5665965,14.2358713 39.5768538,13.8278246 38.7133567,14.1876491 L37.4492632,14.7140819 L36.8885263,13.3678713 L38.152538,12.8414386 C39.0139064,12.4826784 39.4228538,11.4900702 39.0641754,10.6286199 L38.202152,8.55899415 C38.0284211,8.14169591 37.7025731,7.81707602 37.2846199,7.64490058 C36.489076,7.31716959 36.0034152,7.64154386 34.7253216,8.17378947 L34.1646667,6.82757895 L35.4286784,6.3011462 C36.2901287,5.94238596 36.699076,4.94969591 36.3403977,4.08832749 L35.4783743,2.01861988 C35.4783743,2.01861988 35.4783743,2.01861988 35.4783743,2.01853801 C35.1195322,1.15725146 34.1267602,0.748222222 33.2655556,1.10706433 L32.0015439,1.63349708 L31.7569942,1.04631579 C31.416655,0.228994152 30.4796374,-0.15702924 29.6624795,0.183473684 L23.0089591,2.95449123 C22.416538,3.20116959 22.051883,3.76493567 22.0261754,4.36750877 C21.9464327,3.50802339 21.2218713,2.83274854 20.3419181,2.83274854 L18.0998713,2.83274854 C17.1667018,2.83274854 16.4075906,3.59194152 16.4075906,4.52502924 L16.4075906,5.89424561 L14.9492164,5.89424561 L14.9492164,4.52502924 C14.9492164,3.59185965 14.1900234,2.83274854 13.2569357,2.83274854 L11.0150526,2.83274854 C10.081883,2.83274854 9.32277193,3.59194152 9.32277193,4.52502924 L9.32277193,5.89424561 L7.86431579,5.89424561 L7.86431579,4.52502924 C7.86431579,3.59185965 7.10512281,2.83274854 6.17203509,2.83274854 L3.93007018,2.83274854 C2.99690058,2.83274854 2.23778947,3.59194152 2.23778947,4.52502924 L2.23778947,5.89424561 L1.60181287,5.89424561 C0.718584795,5.89424561 0,6.61283041 0,7.49597661 C0,8.21538012 0,23.1630409 0,23.8824444 C0,24.7656725 0.718584795,25.4842573 1.60181287,25.4842573 L3.57605848,25.4842573 C3.91631579,25.4842573 4.19214035,25.2084327 4.19214035,24.8681754 C4.19214035,24.5279181 3.91631579,24.2520936 3.57605848,24.2520936 L1.60181287,24.2520936 C1.39803509,24.2520936 1.23216374,24.0862222 1.23216374,23.8824444 L1.23216374,16.3052515 L23.0399064,16.3052515 L23.0399064,23.8824444 C23.0399064,24.0862222 22.8740351,24.2520936 22.6702573,24.2520936 L5.87607018,24.2520936 C5.53581287,24.2520936 5.2599883,24.5279181 5.2599883,24.8681754 C5.2599883,25.2084327 5.53581287,25.4842573 5.87607018,25.4842573 L22.6702573,25.4842573 C23.5534854,25.4842573 24.2720702,24.7656725 24.2720702,23.8824444 L24.2720702,15.6892515 L24.2720702,10.1536842 L25.3006199,12.6230877 C25.4313684,12.9373099 25.791848,13.0858246 26.1062339,12.9549123 C26.4203743,12.8241637 26.5688889,12.4634386 26.4380585,12.1493801 L23.2836374,4.57529825 C23.2052865,4.38699415 23.2946082,4.17019883 23.4827485,4.09176608 L30.136269,1.32074854 C30.3249006,1.24223392 30.5409591,1.33106433 30.6197193,1.51977778 L38.7198246,20.9691345 C38.7981754,21.157193 38.7089357,21.3738246 38.5211228,21.4520936 L31.8672749,24.2232749 C31.6790526,24.3017895 31.4622573,24.2123041 31.3838246,24.0242456 L27.2591462,14.1205965 C27.1283977,13.8064561 26.7677544,13.6578596 26.453614,13.7887719 C26.1394737,13.9195205 25.9909591,14.2802456 26.1217895,14.5943041 L30.2464678,24.4979532 C30.5025614,25.1126433 31.0994854,25.483848 31.7272749,25.483848 C31.932117,25.483848 32.1403977,25.4442222 32.3409825,25.3607135 L38.9949942,22.5894503 C39.8101053,22.2496842 40.1968655,21.3101287 39.8572632,20.4951813 L39.6127135,19.908 L40.8769708,19.3814854 C41.7379298,19.022807 42.1467953,18.0301988 41.788117,17.1689942 Z M22.034117,4.61279532 C22.0666199,4.90188304 22.1181988,4.98236257 22.498,5.89416374 L22.034117,5.89416374 L22.034117,4.61279532 Z M18.0997895,4.06474854 L20.3418363,4.06474854 C20.5955556,4.06474854 20.8020351,4.2711462 20.8020351,4.52494737 L20.8020351,5.89416374 L17.6396725,5.89416374 L17.6396725,4.52494737 L17.6395906,4.52494737 C17.6396725,4.2711462 17.8460702,4.06474854 18.0997895,4.06474854 Z M11.0149708,4.06474854 L13.2568538,4.06474854 C13.5105731,4.06474854 13.7170526,4.2711462 13.7170526,4.52494737 L13.7170526,5.89416374 L10.5548538,5.89416374 L10.5548538,4.52494737 L10.5547719,4.52494737 C10.5548538,4.2711462 10.7612515,4.06474854 11.0149708,4.06474854 Z M3.46987135,4.5248655 C3.46987135,4.2711462 3.67626901,4.06466667 3.93007018,4.06466667 L6.17211696,4.06466667 C6.42583626,4.06466667 6.63231579,4.27106433 6.63231579,4.5248655 L6.63231579,5.89408187 L3.46987135,5.89408187 L3.46987135,4.5248655 Z M23.0398246,15.0730877 L1.23216374,15.0730877 L1.23216374,7.49589474 C1.23216374,7.29211696 1.39803509,7.12624561 1.60181287,7.12624561 L2.85378947,7.12624561 C3.64016374,7.12624561 22.261883,7.12624561 22.6701754,7.12624561 C22.8739532,7.12624561 23.0398246,7.29211696 23.0398246,7.49589474 L23.0398246,15.0730877 Z M32.4752515,2.7708538 L33.7391813,2.24442105 C33.9732515,2.14683041 34.243345,2.25809357 34.3410175,2.49240936 L35.2029591,4.56203509 C35.3005497,4.79618713 35.1892047,5.06611696 34.9549708,5.1637076 L33.6910409,5.69014035 L32.4752515,2.7708538 Z M35.1991111,9.31122807 C36.5742222,8.73853801 36.5894503,8.69088889 36.8153333,8.78414035 C36.9289708,8.83097076 37.0174737,8.9191462 37.0647953,9.03261988 L37.0647953,9.03270175 L37.9268187,11.1023275 C38.0244094,11.3365614 37.9130643,11.6064912 37.6788304,11.7040819 L36.4149006,12.2305146 L35.1991111,9.31122807 Z M40.4029357,18.2442924 L39.1388421,18.7707251 L37.9230526,15.8514386 C39.2909591,15.2817778 39.3114269,15.2302807 39.5392749,15.3243509 C39.6529123,15.3711813 39.7414152,15.4593567 39.7887368,15.5728304 C39.7887368,15.5728304 39.7887368,15.5728304 39.7887368,15.5729123 L40.6507602,17.642538 C40.7481871,17.8768538 40.6370058,18.1467836 40.4029357,18.2442924 Z" id="Shape"></path>
            </g>
        </g>
    </g>
</svg>