<?xml version="1.0" encoding="UTF-8"?>
<svg width="151px" height="33px" viewBox="0 0 151 33" version="1.1" xmlns="http://www.w3.org/2000/svg" xmlns:xlink="http://www.w3.org/1999/xlink">
    <!-- Generator: Sketch 48.2 (47327) - http://www.bohemiancoding.com/sketch -->
    <title>Microsoft</title>
    <desc>Created with Sketch.</desc>
    <defs></defs>
    <g id="Monitoring" stroke="none" stroke-width="1" fill="none" fill-rule="evenodd" transform="translate(-735.000000, -6096.000000)">
        <g id="clients" transform="translate(0.000000, 5563.000000)" fill="#FFFFFF" fill-rule="nonzero">
            <g id="Group-48" transform="translate(423.000000, 190.000000)">
                <g id="Group-47" transform="translate(0.000000, 113.000000)">
                    <g id="Group-30" transform="translate(298.666667, 184.000000)">
                        <g id="Microsoft" transform="translate(14.000000, 46.000000)">
                            <path d="M52.9470199,18.4519868 L52.0529801,20.9850993 L51.9784768,20.9850993 C51.8294702,20.4139073 51.5562914,19.544702 51.1092715,18.5016556 L46.3162252,6.45695364 L41.6225166,6.45695364 L41.6225166,25.6539735 L44.7268212,25.6539735 L44.7268212,13.807947 C44.7268212,13.0629139 44.7268212,12.218543 44.7019868,11.1754967 C44.6771523,10.6539735 44.6274834,10.2566225 44.602649,9.95860927 L44.6771523,9.95860927 C44.8261589,10.7036424 45,11.25 45.1241722,11.5976821 L50.8857616,25.6043046 L53.0711921,25.6043046 L58.7831126,11.4735099 C58.9072848,11.1506623 59.031457,10.5049669 59.1556291,9.95860927 L59.2301325,9.95860927 C59.1556291,11.3741722 59.1059603,12.6407285 59.0811258,13.410596 L59.0811258,25.5794702 L62.384106,25.5794702 L62.384106,6.40728477 L57.8642384,6.40728477 L52.9470199,18.4519868 Z M65.513245,11.8211921 L68.7417219,11.8211921 L68.7417219,25.5794702 L65.513245,25.5794702 L65.513245,11.8211921 Z M67.1523179,6.00993377 C66.6059603,6.00993377 66.1589404,6.20860927 65.7864238,6.55629139 C65.4139073,6.90397351 65.2152318,7.35099338 65.2152318,7.89735099 C65.2152318,8.41887417 65.4139073,8.86589404 65.7864238,9.21357616 C66.1589404,9.56125828 66.6059603,9.73509934 67.1523179,9.73509934 C67.6986755,9.73509934 68.1705298,9.53642384 68.5182119,9.21357616 C68.8907285,8.86589404 69.089404,8.41887417 69.089404,7.89735099 C69.089404,7.37582781 68.8907285,6.92880795 68.5182119,6.55629139 C68.1953642,6.20860927 67.7235099,6.00993377 67.1523179,6.00993377 Z M80.1903974,11.6970199 C79.5943709,11.5728477 78.9735099,11.4983444 78.3774834,11.4983444 C76.9122517,11.4983444 75.5711921,11.8211921 74.4536424,12.4668874 C73.3360927,13.1125828 72.442053,14.0066225 71.8708609,15.1241722 C71.2748344,16.2665563 70.9768212,17.5827815 70.9768212,19.0976821 C70.9768212,20.4139073 71.2748344,21.5811258 71.8460265,22.6490066 C72.4172185,23.692053 73.2119205,24.5364238 74.2798013,25.1076159 C75.2980132,25.6788079 76.4900662,25.9768212 77.8311258,25.9768212 C79.3708609,25.9768212 80.6870861,25.6539735 81.7301325,25.057947 L81.7549669,25.0331126 L81.7549669,22.0529801 L81.6307947,22.1523179 C81.1589404,22.5 80.6125828,22.7980132 80.0662252,22.9718543 C79.4950331,23.1705298 78.9735099,23.2698675 78.5264901,23.2698675 C77.2350993,23.2698675 76.2168874,22.897351 75.4966887,22.0778146 C74.7516556,21.2831126 74.3791391,20.1903974 74.3791391,18.8245033 C74.3791391,17.4089404 74.7516556,16.2913907 75.5215232,15.4718543 C76.2913907,14.6523179 77.3096026,14.2301325 78.5513245,14.2301325 C79.5943709,14.2301325 80.6622517,14.5778146 81.6307947,15.2731788 L81.7549669,15.3725166 L81.7549669,12.218543 L81.7301325,12.1937086 C81.307947,12.0198675 80.8360927,11.8211921 80.1903974,11.6970199 Z M90.8443709,11.5976821 C90.0496689,11.5976821 89.3046358,11.8460265 88.6589404,12.3675497 C88.1125828,12.8145695 87.7400662,13.4602649 87.4172185,14.2301325 L87.3923841,14.2301325 L87.3923841,11.8211921 L84.1639073,11.8211921 L84.1639073,25.5794702 L87.3923841,25.5794702 L87.3923841,18.5513245 C87.3923841,17.3592715 87.6407285,16.365894 88.1870861,15.6456954 C88.7334437,14.9006623 89.4288079,14.5281457 90.2731788,14.5281457 C90.5711921,14.5281457 90.8692053,14.602649 91.2417219,14.6523179 C91.589404,14.7516556 91.8377483,14.8509934 92.0115894,14.9751656 L92.1357616,15.0745033 L92.1357616,11.8460265 L92.0612583,11.8211921 C91.8377483,11.6721854 91.3907285,11.5976821 90.8443709,11.5976821 Z M99.6357616,11.5231788 C97.3758278,11.5231788 95.5629139,12.1937086 94.2963576,13.5099338 C93.0049669,14.8261589 92.384106,16.6390728 92.384106,18.9238411 C92.384106,21.0596026 93.0298013,22.7980132 94.2715232,24.0645695 C95.513245,25.3062914 97.2019868,25.9519868 99.3129139,25.9519868 C101.523179,25.9519868 103.286424,25.281457 104.55298,23.9403974 C105.844371,22.5993377 106.465232,20.8112583 106.465232,18.6009934 C106.465232,16.4155629 105.869205,14.6771523 104.652318,13.410596 C103.485099,12.1440397 101.771523,11.5231788 99.6357616,11.5231788 Z M102.218543,22.102649 C101.622517,22.8725166 100.678808,23.2450331 99.5115894,23.2450331 C98.3443709,23.2450331 97.4006623,22.8725166 96.7301325,22.0529801 C96.0596026,21.2831126 95.736755,20.1655629 95.736755,18.75 C95.736755,17.2847682 96.0844371,16.1672185 96.7301325,15.3725166 C97.4006623,14.5778146 98.3195364,14.1804636 99.486755,14.1804636 C100.629139,14.1804636 101.523179,14.5529801 102.168874,15.3228477 C102.81457,16.0927152 103.162252,17.2102649 103.162252,18.6754967 C103.112583,20.1655629 102.839404,21.3327815 102.218543,22.102649 Z M113.667219,17.5331126 C112.649007,17.1109272 112.003311,16.7880795 111.705298,16.5149007 C111.456954,16.2665563 111.332781,15.9188742 111.332781,15.4718543 C111.332781,15.0993377 111.481788,14.7268212 111.854305,14.4784768 C112.226821,14.2301325 112.649007,14.1059603 113.269868,14.1059603 C113.816225,14.1059603 114.387417,14.205298 114.933775,14.3543046 C115.480132,14.5033113 115.976821,14.7268212 116.374172,15.0248344 L116.498344,15.1241722 L116.498344,12.0943709 L116.423841,12.0695364 C116.051325,11.9205298 115.554636,11.7715232 114.958609,11.647351 C114.362583,11.5480132 113.816225,11.4983444 113.369205,11.4983444 C111.82947,11.4983444 110.562914,11.8708609 109.569536,12.6903974 C108.576159,13.4602649 108.104305,14.5033113 108.104305,15.7201987 C108.104305,16.365894 108.203642,16.9370861 108.427152,17.4089404 C108.650662,17.8807947 108.97351,18.3278146 109.42053,18.7003311 C109.86755,19.0480132 110.513245,19.4453642 111.407285,19.8178808 C112.152318,20.1407285 112.72351,20.3890728 113.071192,20.5877483 C113.418874,20.7864238 113.642384,21.0099338 113.816225,21.1837748 C113.940397,21.3824503 114.014901,21.6307947 114.014901,21.9536424 C114.014901,22.8725166 113.319536,23.3195364 111.903974,23.3195364 C111.357616,23.3195364 110.786424,23.2201987 110.115894,22.9966887 C109.445364,22.7731788 108.824503,22.4503311 108.30298,22.0778146 L108.178808,21.9784768 L108.178808,25.1324503 L108.253311,25.1572848 C108.725166,25.3807947 109.296358,25.5298013 109.991722,25.7036424 C110.687086,25.8278146 111.307947,25.9271523 111.854305,25.9271523 C113.518212,25.9271523 114.884106,25.5546358 115.852649,24.7350993 C116.846026,23.9403974 117.36755,22.9221854 117.36755,21.6059603 C117.36755,20.6870861 117.119205,19.8675497 116.572848,19.2466887 C115.852649,18.6506623 114.958609,18.0298013 113.667219,17.5331126 Z M125.885762,11.5231788 C123.625828,11.5231788 121.812914,12.1937086 120.546358,13.5099338 C119.279801,14.8261589 118.634106,16.6390728 118.634106,18.9238411 C118.634106,21.0596026 119.279801,22.7980132 120.521523,24.0645695 C121.763245,25.3062914 123.451987,25.9519868 125.562914,25.9519868 C127.773179,25.9519868 129.536424,25.281457 130.80298,23.9403974 C132.094371,22.5993377 132.715232,20.8112583 132.715232,18.6009934 C132.715232,16.4155629 132.119205,14.6771523 130.902318,13.410596 C129.735099,12.1440397 128.021523,11.5231788 125.885762,11.5231788 Z M128.443709,22.102649 C127.847682,22.8725166 126.903974,23.2450331 125.736755,23.2450331 C124.544702,23.2450331 123.625828,22.8725166 122.955298,22.0529801 C122.284768,21.2831126 121.961921,20.1655629 121.961921,18.75 C121.961921,17.2847682 122.309603,16.1672185 122.955298,15.3725166 C123.625828,14.5778146 124.544702,14.1804636 125.711921,14.1804636 C126.82947,14.1804636 127.748344,14.5529801 128.39404,15.3228477 C129.039735,16.0927152 129.387417,17.2102649 129.387417,18.6754967 C129.387417,20.1655629 129.06457,21.3327815 128.443709,22.102649 Z" id="Shape"></path>
                            <path d="M149.975166,14.4784768 L149.975166,11.8211921 L146.721854,11.8211921 L146.721854,7.74834437 L146.622517,7.77317881 L143.543046,8.69205298 L143.468543,8.71688742 L143.468543,11.8211921 L138.600993,11.8211921 L138.600993,10.0827815 C138.600993,9.28807947 138.799669,8.66721854 139.147351,8.26986755 C139.495033,7.87251656 140.016556,7.67384106 140.662252,7.67384106 C141.109272,7.67384106 141.581126,7.77317881 142.102649,7.99668874 L142.226821,8.07119205 L142.226821,5.26490066 L142.152318,5.24006623 C141.705298,5.0910596 141.109272,4.99172185 140.339404,4.99172185 C139.370861,4.99172185 138.52649,5.21523179 137.756623,5.58774834 C136.986755,6.00993377 136.415563,6.58112583 135.993377,7.35099338 C135.571192,8.09602649 135.347682,8.94039735 135.347682,9.9089404 L135.347682,11.8211921 L133.087748,11.8211921 L133.087748,14.4536424 L135.347682,14.4536424 L135.347682,25.5794702 L138.600993,25.5794702 L138.600993,14.4784768 L143.468543,14.4784768 L143.468543,21.5562914 C143.468543,24.4619205 144.834437,25.9271523 147.566225,25.9271523 C148.013245,25.9271523 148.485099,25.852649 148.932119,25.7781457 C149.403974,25.6788079 149.751656,25.5546358 149.950331,25.455298 L149.975166,25.4304636 L149.975166,22.7731788 L149.850993,22.8725166 C149.652318,22.9966887 149.478477,23.0960265 149.180464,23.1705298 C148.932119,23.2450331 148.708609,23.2698675 148.534768,23.2698675 C147.889073,23.2698675 147.442053,23.1208609 147.119205,22.7483444 C146.821192,22.4006623 146.672185,21.8294702 146.672185,20.9850993 L146.672185,14.4784768 L149.975166,14.4784768 Z" id="Shape"></path>
                            <polygon id="Shape" points="0 0 15.2235099 0 15.2235099 15.2235099 0 15.2235099"></polygon>
                            <polygon id="Shape" points="16.8129139 0 32.0364238 0 32.0364238 15.2235099 16.8129139 15.2235099"></polygon>
                            <polygon id="Shape" points="0 16.8129139 15.2235099 16.8129139 15.2235099 32.0364238 0 32.0364238"></polygon>
                            <polygon id="Shape" points="16.8129139 16.8129139 32.0364238 16.8129139 32.0364238 32.0364238 16.8129139 32.0364238"></polygon>
                        </g>
                    </g>
                </g>
            </g>
        </g>
    </g>
</svg>