<?xml version="1.0" encoding="UTF-8"?>
<svg width="151px" height="22px" viewBox="0 0 151 22" version="1.1" xmlns="http://www.w3.org/2000/svg" xmlns:xlink="http://www.w3.org/1999/xlink">
    <!-- Generator: Sketch 48.2 (47327) - http://www.bohemiancoding.com/sketch -->
    <title>Southwest_Airlines</title>
    <desc>Created with Sketch.</desc>
    <defs></defs>
    <g id="Monitoring" stroke="none" stroke-width="1" fill="none" fill-rule="evenodd" transform="translate(-735.000000, -5917.000000)">
        <g id="clients" transform="translate(0.000000, 5563.000000)" fill="#FFFFFF" fill-rule="nonzero">
            <g id="Group-48" transform="translate(423.000000, 190.000000)">
                <g id="Group-47" transform="translate(0.000000, 113.000000)">
                    <g id="Group-27" transform="translate(298.666667, 0.000000)">
                        <g id="Southwest_Airlines" transform="translate(14.000000, 51.000000)">
                            <path d="M41.4532182,17.6961111 C40.8194974,17.836938 40.0449496,17.9073514 39.2704019,17.9073514 C37.0171721,17.9073514 36.5242781,17.1328037 36.5242781,15.6541217 L36.5242781,7.13409664 L32.2994723,7.13409664 L32.2994723,16.1470157 C32.2994723,20.1605812 34.5527021,21.9913303 39.0591616,21.9913303 C41.2419779,21.9913303 43.2839674,21.5688498 45.7484374,21.0055423 L45.7484374,7.13409664 L41.4532182,7.13409664 C41.4532182,7.13409664 41.4532182,17.6961111 41.4532182,17.6961111 Z M55.183837,18.1185917 C53.6347416,18.1185917 53.4235013,17.4144574 53.4235013,16.2174291 L53.4235013,10.7251816 L56.9441728,10.7251816 L56.9441728,7.20451007 L53.4235013,7.20451007 L53.4235013,2.90929085 L49.1986955,2.90929085 L49.1986955,7.13409664 L47.0862926,7.13409664 L47.0862926,10.6547681 L49.1986955,10.6547681 L49.1986955,16.4286694 C49.1986955,18.9635529 49.6915895,21.9209169 53.9163953,21.9209169 C55.183837,21.9209169 56.2400385,21.6392632 57.4370668,21.287196 L57.0145862,17.7665246 C56.3808654,17.9777648 55.8175579,18.1185917 55.183837,18.1185917 Z M10.7529628,10.1618741 C9.97841508,9.88022041 9.06304049,9.59856669 8.1476659,9.31691297 C5.68319586,8.61277867 4.90864813,8.26071152 4.90864813,7.13409664 C4.90864813,5.86665491 5.82402272,5.23293404 8.07725247,5.30334747 C9.90800165,5.30334747 11.5275105,5.79624148 13.1470194,6.35954891 L14.062394,2.20515655 C12.1612314,1.50102225 10.4008957,0.867301386 8.21807933,0.867301386 C3.14831238,0.867301386 0.331775188,3.75425201 0.331775188,7.20451007 C0.331775188,9.80980698 1.45839007,11.4997293 3.99327354,12.5559307 C4.69740784,12.8375845 5.61278243,13.1192382 6.52815702,13.4008919 C9.27428078,14.2458531 10.1192419,14.6683336 10.1192419,15.7245351 C10.1192419,16.9919768 9.06304049,17.6961111 6.88022417,17.6961111 C4.90864813,17.6961111 3.07789895,17.1328037 1.17673635,16.2878425 L0.190948329,20.5126483 C2.30335122,21.3576095 4.34534069,21.9209169 6.88022417,21.9209169 C12.090818,21.9209169 14.7665283,19.0339663 14.7665283,15.5132948 C14.7665283,12.6967576 13.1470194,11.0772487 10.7529628,10.1618741 Z M66.2387455,6.42996234 C64.8304769,6.42996234 63.4926218,6.78202949 62.5772472,7.06368321 L62.5772472,0.0927536573 L58.3524414,0.0927536573 L58.3524414,21.9209169 L62.5772472,21.9209169 L62.5772472,11.0068353 C63.3517949,10.7251816 64.1967561,10.4435278 65.2529575,10.4435278 C66.8724664,10.4435278 67.5061873,11.0772487 67.5061873,12.6263442 L67.5061873,21.9209169 L71.7309931,21.9209169 L71.7309931,12.1334502 C71.7309931,8.26071152 69.9706573,6.42996234 66.2387455,6.42996234 Z M23.4273802,6.35954891 C19.132161,6.35954891 15.6819029,9.3873264 15.6819029,14.1050262 C15.6819029,18.822726 19.132161,21.9913303 23.4273802,21.9913303 C27.7225994,21.9913303 31.1728575,18.8931394 31.1728575,14.1050262 C31.1728575,9.31691297 27.7225994,6.35954891 23.4273802,6.35954891 Z M23.4273802,17.7665246 C21.596631,17.7665246 20.117949,16.4286694 20.117949,14.0346128 C20.117949,11.6405562 21.5262176,10.3731144 23.4273802,10.3731144 C25.3285428,10.3731144 26.7368114,11.6405562 26.7368114,14.0346128 C26.7368114,16.4990828 25.2581294,17.7665246 23.4273802,17.7665246 Z M118.27427,12.9079979 C117.640549,12.6967576 117.006828,12.4855173 116.232281,12.274277 C114.753599,11.8517964 114.190291,11.6405562 114.190291,11.0068353 C114.190291,10.3731144 114.753599,9.95063384 116.091454,9.95063384 C117.499722,9.95063384 118.767164,10.2322876 120.175433,10.6547681 L120.879567,6.99326978 C119.330472,6.64120263 117.85179,6.35954891 116.161867,6.35954891 C112.148302,6.35954891 109.965485,8.40153838 109.965485,11.2180756 C109.965485,13.1896516 110.951273,14.4570933 112.92285,15.3020545 C113.486157,15.5132948 114.119878,15.7949485 114.894426,16.0061888 C116.443521,16.4286694 117.218069,16.6399097 117.218069,17.344044 C117.218069,18.0481783 116.302694,18.329832 115.035252,18.329832 C113.486157,18.329832 112.077888,18.0481783 110.599206,17.4848708 L109.965485,21.1463692 C111.796235,21.6392632 113.486157,21.9913303 115.38732,21.9913303 C119.612125,21.9913303 121.513288,19.808514 121.513288,17.0623903 C121.442875,15.1612276 120.668327,13.7529591 118.27427,12.9079979 Z M102.431248,6.35954891 C97.9952024,6.35954891 94.8265981,9.45773983 94.8265981,14.3866799 C94.8265981,18.9635529 97.5727218,21.9913303 102.501662,21.9913303 C104.684478,21.9913303 106.444814,21.3576095 108.275563,20.5830617 L107.641842,17.0623903 C106.233574,17.6961111 104.825305,18.1890051 103.135383,18.1890051 C100.600499,18.1890051 99.5442979,17.1328037 99.403471,15.5837082 L108.909284,15.5837082 C108.909284,15.5837082 109.050111,13.8937859 109.050111,13.5417188 C109.050111,9.52815326 106.867295,6.35954891 102.431248,6.35954891 Z M99.4738844,12.767171 C99.7555382,11.4997293 100.389259,9.88022041 102.220008,9.88022041 C104.050757,9.88022041 104.614065,11.7109696 104.614065,12.767171 L99.4738844,12.767171 Z M129.822073,18.1185917 C128.272977,18.1185917 128.061737,17.4144574 128.061737,16.2174291 L128.061737,10.7251816 L131.582408,10.7251816 L131.582408,7.13409664 L128.061737,7.13409664 L128.061737,2.90929085 L123.836931,2.90929085 L123.836931,7.13409664 L121.654115,7.13409664 L121.654115,10.7251816 L123.836931,10.7251816 L123.836931,16.4990828 C123.836931,19.0339663 124.470652,21.9913303 128.695458,21.9913303 C129.9629,21.9913303 131.019101,21.7096766 132.216129,21.3576095 L131.723235,17.836938 C131.019101,17.9777648 130.455794,18.1185917 129.822073,18.1185917 Z M132.63861,0.937714816 C131.582408,0.937714816 130.807861,1.78267597 130.737447,2.83887742 C130.667034,3.89507887 131.582408,4.74004003 132.568196,4.74004003 C133.624398,4.74004003 134.469359,3.89507887 134.469359,2.83887742 C134.469359,1.78267597 133.694811,0.937714816 132.63861,0.937714816 Z M132.63861,4.38797288 C131.793649,4.38797288 131.159928,3.75425201 131.159928,2.83887742 C131.159928,1.92350283 131.793649,1.28978196 132.709023,1.28978196 C133.553984,1.28978196 134.258119,1.92350283 134.187705,2.83887742 C134.117292,3.75425201 133.483571,4.38797288 132.63861,4.38797288 Z M132.84985,2.90929085 C133.201917,2.83887742 133.413158,2.69805056 133.413158,2.34598341 C133.413158,1.99391626 133.131504,1.71226254 132.709023,1.71226254 L132.004889,1.71226254 L132.004889,3.89507887 L132.42737,3.89507887 L132.42737,2.97970428 C132.568196,2.97970428 132.63861,3.05011771 132.709023,3.19094457 L133.201917,3.89507887 L133.694811,3.89507887 L133.272331,3.19094457 C132.990677,3.05011771 132.920264,2.97970428 132.84985,2.90929085 Z M132.568196,2.69805056 L132.356956,2.69805056 L132.356956,2.06432969 L132.63861,2.06432969 C132.920264,2.06432969 132.990677,2.20515655 132.990677,2.34598341 C132.990677,2.62763713 132.779437,2.69805056 132.568196,2.69805056 Z M90.883446,7.13409664 L88.2077357,15.2316411 L85.5320253,7.13409664 L81.870527,7.13409664 L79.1244032,15.2316411 L76.4486929,7.13409664 L71.8718199,7.13409664 L77.1528272,21.9209169 L81.0255658,21.9209169 L83.7012761,13.8937859 L86.3769865,21.9209169 L90.2497251,21.9209169 L95.5307324,7.13409664 L90.883446,7.13409664 Z" id="path6"></path>
                            <path d="M134.328532,11.4293159 C134.328532,15.3724679 138.553338,19.1043797 142.074009,21.5688498 C143.130211,20.8647155 144.186412,20.0197543 145.1722,19.1747931 C140.454501,15.2316411 135.948041,11.6405562 134.398946,10.3731144 C134.398946,10.6547681 134.328532,11.0068353 134.328532,11.4293159 Z" id="path21"></path>
                            <path d="M149.608246,13.260065 C146.157988,10.4435278 144.115999,8.96484582 141.862769,7.62699065 C141.229048,7.2749235 140.03202,6.71161606 138.694165,6.71161606 C137.426723,6.71161606 136.300108,7.13409664 135.525561,7.90864437 C135.032667,8.40153838 134.680599,9.03525925 134.539773,9.80980698 C136.300108,11.0772487 141.158635,14.5275068 146.017162,18.4002454 C147.63667,16.85115 148.974526,15.0908142 149.608246,13.260065 Z" id="path28"></path>
                            <path d="M148.692872,7.90864437 C147.918324,7.13409664 146.862123,6.71161606 145.594681,6.71161606 C144.256826,6.71161606 143.271038,7.13409664 142.49649,7.55657722 C143.834345,8.33112495 146.721296,9.95063384 149.749073,12.2038636 C149.819487,11.9222099 149.819487,11.5701427 149.819487,11.288489 C149.8899,9.88022041 149.46742,8.6831921 148.692872,7.90864437 Z" id="path37"></path>
                        </g>
                    </g>
                </g>
            </g>
        </g>
    </g>
</svg>