<?xml version="1.0" encoding="UTF-8"?>
<svg width="55px" height="48px" viewBox="0 0 55 48" version="1.1" xmlns="http://www.w3.org/2000/svg" xmlns:xlink="http://www.w3.org/1999/xlink">
    <!-- Generator: Sketch 48.2 (47327) - http://www.bohemiancoding.com/sketch -->
    <title>3.icon copy 2</title>
    <desc>Created with Sketch.</desc>
    <defs></defs>
    <g id="-" stroke="none" stroke-width="1" fill="none" fill-rule="evenodd">
        <g id="3.icon-copy-2" fill="#01CEA2" fill-rule="nonzero">
            <g id="bell-(1)" transform="translate(12.000000, 8.000000)">
                <path d="M27.0551216,22.445302 C26.1161412,22.445302 25.3522824,21.6813804 25.3522824,20.7424627 L25.3522824,14.5894275 C25.3522824,10.3088941 22.4613647,6.69107451 18.5295686,5.58506667 C19.0501647,4.99212549 19.3668392,4.21596863 19.3668392,3.36677647 C19.3668392,1.51033725 17.856502,0 16.0000627,0 C14.1436235,0 12.6332235,1.51033725 12.6332235,3.36683922 C12.6332235,4.21603137 12.949898,4.99218824 13.4704941,5.58512941 C9.53863529,6.69107451 6.64778039,10.3088941 6.64778039,14.5894902 L6.64778039,20.7425255 C6.64778039,21.6815059 5.88392157,22.4453647 4.94494118,22.4453647 C3.61493333,22.4453647 2.53283137,23.5274667 2.53283137,24.8574745 L2.53283137,25.1957333 C2.53283137,26.5257412 3.61487059,27.6078431 4.94494118,27.6078431 L12.2591373,27.6078431 L12.2591373,28.3846275 C12.2591373,30.4473725 13.9373176,32.1255529 16.0000627,32.1255529 C18.0628078,32.1255529 19.7409882,30.4473725 19.7409882,28.3846275 L19.7409882,27.6077804 L27.0551843,27.6077804 C28.3852549,27.6077804 29.4672941,26.5256784 29.4672941,25.1956706 L29.4672941,24.8574118 C29.4672941,23.5274039 28.3851922,22.445302 27.0551216,22.445302 Z M16.0000627,1.49628235 C17.0314039,1.49628235 17.8704941,2.33537255 17.8704941,3.36671373 C17.8704941,4.3980549 17.0314039,5.2371451 16.0000627,5.2371451 C14.9687216,5.2371451 14.1296314,4.3980549 14.1296314,3.36671373 C14.1296314,2.33537255 14.9686588,1.49628235 16.0000627,1.49628235 Z M18.2445804,28.384502 C18.2445804,29.622149 17.2377098,30.6290196 16.0000627,30.6290196 C14.7624157,30.6290196 13.7555451,29.622149 13.7555451,28.384502 L13.7555451,27.6077176 L18.2446431,27.6077176 L18.2446431,28.384502 L18.2445804,28.384502 Z M27.9708863,25.1956078 C27.9708863,25.7005804 27.5600941,26.1113725 27.0551216,26.1113725 L4.94494118,26.1113725 C4.43996863,26.1113725 4.02917647,25.7005176 4.02917647,25.1956078 L4.02917647,24.857349 C4.02917647,24.3523765 4.44003137,23.9415843 4.94494118,23.9415843 C6.70901961,23.9415843 8.14418824,22.5064157 8.14418824,20.7423373 L8.14418824,14.5893647 C8.14418824,10.2576314 11.6683294,6.7334902 16.0000627,6.7334902 C20.3317961,6.7334902 23.8559373,10.2576314 23.8559373,14.5893647 L23.8559373,20.7424 C23.8559373,20.8914196 23.8669804,21.0378667 23.8868078,21.1815529 L19.9731451,21.1815529 C19.5599059,21.1815529 19.2249725,21.5164863 19.2249725,21.9297255 C19.2249725,22.3429647 19.5599059,22.677898 19.9731451,22.677898 L24.5101176,22.677898 C25.0950275,23.4451451 26.0180078,23.9415843 27.0551216,23.9415843 C27.5600941,23.9415843 27.9708863,24.3524392 27.9708863,24.857349 L27.9708863,25.1956078 Z" id="Shape"></path>
                <path d="M16.643702,21.1815529 L16.5689098,21.1815529 C16.1556706,21.1815529 15.8207373,21.5164863 15.8207373,21.9297255 C15.8207373,22.3429647 16.1556706,22.677898 16.5689098,22.677898 L16.643702,22.677898 C17.0569412,22.677898 17.3918745,22.3429647 17.3918745,21.9297255 C17.3918745,21.5164863 17.0569412,21.1815529 16.643702,21.1815529 Z" id="Shape"></path>
                <path d="M31.9859451,12.8006902 C31.5987451,9.32241569 30.0454902,6.00790588 27.6122353,3.46792157 C27.3264314,3.16956863 26.8528314,3.15927843 26.5544157,3.44520784 C26.2560627,3.73101176 26.2457725,4.20461176 26.531702,4.50302745 C28.7388235,6.8070902 30.147702,9.81276863 30.4987608,12.9662745 C30.541302,13.3488314 30.8651922,13.6318118 31.2414118,13.6318118 C31.2690196,13.6318118 31.2970039,13.6302431 31.3251137,13.6271059 C31.7358431,13.581302 32.0316863,13.2114196 31.9859451,12.8006902 Z" id="Shape"></path>
                <path d="M27.5244549,13.2973176 C27.5669961,13.6798745 27.8908863,13.9627922 28.2671059,13.9627922 C28.2947137,13.9627922 28.322698,13.9612235 28.3508078,13.9580863 C28.7614745,13.9123451 29.0573176,13.5424 29.0115765,13.1317333 C28.6967216,10.3029333 27.4322196,7.60614902 25.4511059,5.53800784 C25.165302,5.2396549 24.691702,5.22936471 24.3932863,5.51529412 C24.0949333,5.80109804 24.0846431,6.27469804 24.3705725,6.57311373 C26.1256157,8.40533333 27.2456784,10.7934118 27.5244549,13.2973176 Z" id="Shape"></path>
                <path d="M5.44558431,3.4451451 C5.14723137,3.15927843 4.67363137,3.16944314 4.38776471,3.46785882 C1.9545098,6.00796863 0.401317647,9.32241569 0.014054902,12.8006902 C-0.0316862745,13.2113569 0.264156863,13.5813647 0.674823529,13.6270431 C0.702933333,13.6301804 0.730854902,13.631749 0.75852549,13.631749 C1.13461961,13.631749 1.45857255,13.3487686 1.50117647,12.9662118 C1.85223529,9.81270588 3.26111373,6.80702745 5.46823529,4.50296471 C5.75422745,4.20461176 5.744,3.73101176 5.44558431,3.4451451 Z" id="Shape"></path>
                <path d="M3.6492549,13.9582118 C3.67736471,13.961349 3.70528627,13.9629176 3.73295686,13.9629176 C4.10905098,13.9629176 4.43300392,13.6799373 4.47560784,13.2973804 C4.75438431,10.793349 5.87438431,8.40539608 7.6294902,6.57317647 C7.91535686,6.27482353 7.90519216,5.80122353 7.60677647,5.51529412 C7.30842353,5.22942745 6.83482353,5.23959216 6.54895686,5.53807059 C4.56784314,7.60621176 3.30334118,10.3029961 2.98854902,13.1317961 C2.9427451,13.5425255 3.23865098,13.9124706 3.6492549,13.9582118 Z" id="Shape"></path>
            </g>
        </g>
    </g>
</svg>