<?xml version="1.0" encoding="UTF-8"?>
<svg width="55px" height="48px" viewBox="0 0 55 48" version="1.1" xmlns="http://www.w3.org/2000/svg" xmlns:xlink="http://www.w3.org/1999/xlink">
    <!-- Generator: Sketch 48.2 (47327) - http://www.bohemiancoding.com/sketch -->
    <title>7.icon copy 7</title>
    <desc>Created with Sketch.</desc>
    <defs></defs>
    <g id="-" stroke="none" stroke-width="1" fill="none" fill-rule="evenodd">
        <g id="7.icon-copy-7" fill="#01CEA2" fill-rule="nonzero">
            <g id="equalizers-outline" transform="translate(9.000000, 9.000000)">
                <path d="M17.679783,15.6855856 L0.895303426,15.6855856 C0.400722675,15.6855856 0,15.2848026 0,14.7903426 C0,14.2957618 0.400722675,13.8950392 0.895303426,13.8950392 L17.679783,13.8950392 C18.1743638,13.8950392 18.5750865,14.2957618 18.5750865,14.7903426 C18.5750865,15.2848026 18.1743638,15.6855856 17.679783,15.6855856 Z" id="Shape"></path>
                <path d="M36.0443377,15.6855856 L27.1396509,15.6855856 C26.6451305,15.6855856 26.2443475,15.2848026 26.2443475,14.7902822 C26.2443475,14.2957015 26.6451305,13.8949788 27.1396509,13.8949788 L36.0443377,13.8949788 C36.5388581,13.8949788 36.9396411,14.2957015 36.9396411,14.7902822 C36.9396411,15.2848026 36.5388581,15.6855856 36.0443377,15.6855856 Z" id="Shape"></path>
                <path d="M12.9496982,27.0233997 L0.895303426,27.0233997 C0.400722675,27.0233997 0,26.6226166 0,26.1281566 C0,25.6336362 0.400722675,25.2327928 0.895303426,25.2327928 L12.9496982,25.2327928 C13.444279,25.2327928 13.8450016,25.6336362 13.8450016,26.1281566 C13.8450016,26.6226166 13.444279,27.0233997 12.9496982,27.0233997 Z" id="Shape"></path>
                <path d="M36.0443377,27.0233997 L22.4092039,27.0233997 C21.9146835,27.0233997 21.5139005,26.6226166 21.5139005,26.1280962 C21.5139005,25.6336362 21.9146835,25.2327928 22.4092039,25.2327928 L36.0443377,25.2327928 C36.5388581,25.2327928 36.9396411,25.6336362 36.9396411,26.1280962 C36.9396411,26.6226166 36.5388581,27.0233997 36.0443377,27.0233997 Z" id="Shape"></path>
                <path d="M7.80850897,4.58486134 L0.895303426,4.58486134 C0.400722675,4.58486134 0,4.1840783 0,3.68955791 C0,3.19503752 0.400722675,2.79425449 0.895303426,2.79425449 L7.80850897,2.79425449 C8.30302936,2.79425449 8.7038124,3.19497716 8.7038124,3.68955791 C8.7038124,4.18413866 8.30308972,4.58486134 7.80850897,4.58486134 Z" id="Shape"></path>
                <path d="M36.0443377,4.58486134 L17.2686786,4.58486134 C16.7740979,4.58486134 16.3733752,4.18413866 16.3733752,3.68955791 C16.3733752,3.19497716 16.7740979,2.79425449 17.2686786,2.79425449 L36.0446998,2.79425449 C36.5392202,2.79425449 36.9400033,3.19497716 36.9400033,3.68955791 C36.9396411,4.1840783 36.5388581,4.58486134 36.0443377,4.58486134 Z" id="Shape"></path>
                <path d="M10.6011338,7.37676183 C8.56734095,7.37676183 6.91314519,5.72256607 6.91314519,3.68883361 C6.91314519,1.65576509 8.56734095,0.00156933116 10.6011338,0.00156933116 C12.6342023,0.00156933116 14.2883377,1.65576509 14.2883377,3.68883361 C14.2880359,5.72262643 12.6338401,7.37676183 10.6011338,7.37676183 Z M10.6011338,1.79223654 C9.55505383,1.79223654 8.7038124,2.64311582 8.7038124,3.68883361 C8.7038124,4.73491354 9.55505383,5.58615498 10.6011338,5.58615498 C11.6468515,5.58615498 12.4977308,4.73485318 12.4977308,3.68883361 C12.497429,2.64317618 11.6464894,1.79223654 10.6011338,1.79223654 Z" id="Shape"></path>
                <path d="M15.5550294,29.8160245 C13.5212365,29.8160245 11.8671011,28.1618287 11.8671011,26.1279755 C11.8671011,24.0946052 13.5212365,22.4403491 15.5550294,22.4403491 C17.58846,22.4403491 19.2425954,24.0945449 19.2425954,26.1279755 C19.2422936,28.1618287 17.5881582,29.8160245 15.5550294,29.8160245 Z M15.5550294,24.2310767 C14.5089494,24.2310767 13.657708,25.0820767 13.657708,26.1281566 C13.657708,27.1741762 14.5089494,28.0255383 15.5550294,28.0255383 C16.6011093,28.0255383 17.4519886,27.1742365 17.4519886,26.1281566 C17.4519886,25.0820767 16.6008075,24.2310767 15.5550294,24.2310767 Z" id="Shape"></path>
                <path d="M20.472106,18.477124 C18.4386754,18.477124 16.7844796,16.8230489 16.7844796,14.7895579 C16.7844796,12.7564894 18.4386754,11.1022936 20.472106,11.1022936 C22.5054763,11.1022936 24.1596721,12.7564894 24.1596721,14.7895579 C24.1596721,16.8229886 22.5054763,18.477124 20.472106,18.477124 Z M20.472106,12.8929608 C19.4260261,12.8929608 18.5750865,13.7438401 18.5750865,14.7895579 C18.5750865,15.8356378 19.4260261,16.6865171 20.472106,16.6865171 C21.518186,16.6865171 22.3690653,15.8356378 22.3690653,14.7895579 C22.3690653,13.7438401 21.518186,12.8929608 20.472106,12.8929608 Z" id="Shape"></path>
            </g>
        </g>
    </g>
</svg>